<?xml version="1.0" encoding="utf-8"?>
<!-- Generator: Adobe Illustrator 27.5.0, SVG Export Plug-In . SVG Version: 6.00 Build 0)  -->
<svg version="1.1" xmlns="http://www.w3.org/2000/svg" xmlns:xlink="http://www.w3.org/1999/xlink" x="0px" y="0px"
	 viewBox="0 0 500 500" style="enable-background:new 0 0 500 500;" xml:space="preserve">
<g id="Floor">
	<ellipse id="Floor_3_" style="fill:#F5F5F5;" cx="249.048" cy="360.942" rx="218.589" ry="120.163"/>
</g>
<g id="Shadows">
	<ellipse id="Shadow_5_" style="fill:#E0E0E0;" cx="377.874" cy="384.262" rx="38.168" ry="22.036"/>
	<path id="Shadow_13_" style="fill:#E0E0E0;" d="M60.938,402.439l-8.25-4.764c-2.6-1.501-2.6-3.936,0-5.437l246.76-142.467
		c2.6-1.501,6.816-1.501,9.417,0l8.249,4.764c2.6,1.501,2.6,3.936,0,5.437L70.354,402.439
		C67.754,403.94,63.538,403.94,60.938,402.439z"/>
</g>
<g id="Clouds">
	<g id="Clouds_7_">
		<g>
			<g id="XMLID_18_">
				<path style="fill:#EBEBEB;" d="M99.628,66.872l-7.109,4.104c0.035-0.364,0.06-0.725,0.06-1.081v-2.378
					c0-4.232-2.573-6.177-5.747-4.345c-1.285,0.742-2.468,1.994-3.425,3.497c-0.52-5.368-4.135-7.673-8.527-5.137
					c-4.748,2.742-8.598,10.096-8.598,16.427v3.558c0,1.64,0.263,3.044,0.728,4.186l-5.905,3.409
					c-1.761,1.017-3.188,3.743-3.188,6.091c0,2.347,1.427,3.426,3.188,2.41l38.522-22.241c1.761-1.016,3.188-3.743,3.188-6.091
					C102.816,66.935,101.389,65.856,99.628,66.872z"/>
			</g>
			<g id="XMLID_17_">
				<path style="fill:#EBEBEB;" d="M145.305,79.289l-5.365,3.098c0.027-0.274,0.045-0.547,0.045-0.816v-1.795
					c0-3.194-1.942-4.662-4.337-3.279c-0.97,0.56-1.863,1.505-2.585,2.639c-0.392-4.051-3.121-5.791-6.435-3.877
					c-3.584,2.069-6.489,7.62-6.489,12.398v2.685c0,1.238,0.198,2.298,0.549,3.16l-4.456,2.573
					c-1.329,0.767-2.406,2.825-2.406,4.597s1.077,2.586,2.406,1.819l29.073-16.785c1.329-0.767,2.406-2.825,2.406-4.597
					C147.71,79.336,146.633,78.522,145.305,79.289z"/>
			</g>
		</g>
	</g>
</g>
<g id="Window">
	<g id="Window_5_">
		<g id="XMLID_1177_">
			<path style="fill:#27DEBF;" d="M63.173,203.975L319.347,56.074V41.11c0,0,0-0.001,0-0.002c0-0.339-0.033-0.65-0.085-0.942
				c-0.007-0.037-0.01-0.076-0.018-0.112c-0.053-0.265-0.132-0.505-0.226-0.727c-0.021-0.049-0.041-0.099-0.063-0.146
				c-0.096-0.201-0.21-0.38-0.337-0.54c-0.038-0.047-0.077-0.091-0.117-0.134c-0.132-0.143-0.275-0.269-0.432-0.372
				c-0.101-0.066-0.206-0.126-0.316-0.175c0.043,0.02,0.09,0.035,0.132,0.057c-0.558-0.334-2.151-1.257-3.833-2.228
				c-2.029-1.168-4.169-2.396-4.799-2.759c-0.042-0.024-0.093-0.053-0.121-0.069c-0.106-0.061-0.217-0.113-0.333-0.157
				c-0.813-0.305-1.856-0.168-2.992,0.488L78.712,164.404l-19.671,11.358c-0.324,0.187-0.639,0.407-0.945,0.656
				c-2.145,1.746-3.759,4.869-3.759,7.496v14.967l8.836,5.097V203.975z"/>
			<path id="XMLID_1185_" style="fill:#F5F5F5;" d="M318.301,38.304c-0.051-0.043-0.107-0.079-0.161-0.118
				C318.195,38.224,318.251,38.261,318.301,38.304z"/>
			<path id="XMLID_1186_" style="fill:#F5F5F5;" d="M318.141,38.186c-0.074-0.051-0.145-0.105-0.225-0.147
				c0.043,0.022,0.076,0.033,0.098,0.054C318.058,38.121,318.098,38.156,318.141,38.186z"/>
			<path id="XMLID_1187_" style="fill:#F5F5F5;" d="M318.568,38.572c-0.082-0.101-0.172-0.187-0.267-0.268
				C318.396,38.384,318.485,38.472,318.568,38.572z"/>
			<path id="XMLID_621_" style="fill:#F0F0F0;" d="M67.879,180.859l246.76-142.467c2.6-1.501,4.708-0.284,4.708,2.718v208.416
				c0,3.003-2.108,6.654-4.708,8.155L67.88,400.148c-2.6,1.501-4.708,0.284-4.708-2.718l-0.001-208.416
				C63.171,186.011,65.279,182.36,67.879,180.859z"/>
			<path id="XMLID_6_" style="fill:#27DEBF;" d="M314.638,38.392L67.879,180.859c-2.6,1.501-4.708,5.152-4.708,8.155v14.962
				L319.347,56.074V41.11C319.347,38.108,317.239,36.891,314.638,38.392z"/>
			<path id="XMLID_5_" style="opacity:0.1;" d="M55.712,179.277c-0.852,1.476-1.38,3.14-1.38,4.64v14.962l8.84,5.1v-14.962
				c0-1.501,0.528-3.165,1.38-4.641L55.712,179.277z"/>
			<path id="XMLID_1_" style="opacity:0.4;fill:#FFFFFF;" d="M309.13,32.961c-0.848-0.489-2.023-0.424-3.327,0.326L59.041,175.762
				c-1.299,0.75-2.477,2.039-3.329,3.515l8.841,5.099c0.852-1.476,2.029-2.764,3.328-3.514L314.643,38.387
				c1.261-0.729,2.403-0.815,3.24-0.37C316.611,37.256,309.956,33.429,309.13,32.961z"/>
			<path id="XMLID_1180_" style="fill:#E6E6E6;" d="M64.455,400.423c-1.207-0.685-7.97-4.567-8.807-5.089
				c-0.815-0.511-1.305-1.544-1.305-3.001l-0.011-193.455l8.84,5.1v193.455C63.173,398.879,63.662,399.912,64.455,400.423z"/>
			<g id="XMLID_625_">
				<path id="XMLID_630_" style="fill:#455A64;" d="M289.019,59.071c-1.534,0.886-2.778,3.519-2.778,5.881
					c0,2.362,1.244,3.559,2.778,2.673c1.534-0.886,2.778-3.519,2.778-5.881C291.797,59.382,290.553,58.185,289.019,59.071z"/>
				<path id="XMLID_629_" style="fill:#455A64;" d="M299.021,53.286c-1.534,0.886-2.778,3.519-2.778,5.881
					c0,2.362,1.244,3.559,2.778,2.673c1.534-0.886,2.778-3.519,2.778-5.881C301.799,53.597,300.555,52.4,299.021,53.286z"/>
				<path id="XMLID_627_" style="fill:#455A64;" d="M309.023,47.5c-1.534,0.886-2.778,3.519-2.778,5.881
					c0,2.362,1.244,3.559,2.778,2.673c1.534-0.886,2.778-3.519,2.778-5.881C311.801,47.812,310.557,46.615,309.023,47.5z"/>
			</g>
		</g>
		<g id="XMLID_1209_">
			<g id="XMLID_549_">
				<g id="XMLID_1198_">
					<polygon id="XMLID_1196_" style="opacity:0.15;fill:#27DEBF;" points="76.421,216.727 195.676,147.876 195.676,305.981 
						76.42,374.833 					"/>
					<g id="XMLID_1197_">
						<g>
							<polyline style="fill:none;stroke:#27DEBF;stroke-width:1.5;stroke-linecap:round;stroke-linejoin:round;" points="
								76.421,218.227 76.421,216.727 77.72,215.977 							"/>
							
								<line style="fill:none;stroke:#27DEBF;stroke-width:1.5;stroke-linecap:round;stroke-linejoin:round;stroke-dasharray:3.0384,5.064;" x1="82.106" y1="213.445" x2="192.184" y2="149.892"/>
							<polyline style="fill:none;stroke:#27DEBF;stroke-width:1.5;stroke-linecap:round;stroke-linejoin:round;" points="
								194.377,148.626 195.676,147.876 195.676,149.376 							"/>
							
								<line style="fill:none;stroke:#27DEBF;stroke-width:1.5;stroke-linecap:round;stroke-linejoin:round;stroke-dasharray:2.9638,4.9396;" x1="195.676" y1="154.316" x2="195.676" y2="302.011"/>
							<polyline style="fill:none;stroke:#27DEBF;stroke-width:1.5;stroke-linecap:round;stroke-linejoin:round;" points="
								195.676,304.481 195.676,305.981 194.377,306.731 							"/>
							
								<line style="fill:none;stroke:#27DEBF;stroke-width:1.5;stroke-linecap:round;stroke-linejoin:round;stroke-dasharray:3.0385,5.0641;" x1="189.992" y1="309.263" x2="79.912" y2="372.817"/>
							<polyline style="fill:none;stroke:#27DEBF;stroke-width:1.5;stroke-linecap:round;stroke-linejoin:round;" points="
								77.719,374.083 76.42,374.833 76.42,373.333 							"/>
							
								<line style="fill:none;stroke:#27DEBF;stroke-width:1.5;stroke-linecap:round;stroke-linejoin:round;stroke-dasharray:2.9638,4.9397;" x1="76.42" y1="368.393" x2="76.421" y2="220.697"/>
						</g>
					</g>
				</g>
				<g id="XMLID_526_">
					<g id="XMLID_1193_">
						
							<polyline id="XMLID_260_" style="fill:none;stroke:#27DEBF;stroke-width:2;stroke-linecap:round;stroke-linejoin:round;stroke-miterlimit:10;" points="
							144.378,243.447 144.378,252.772 127.718,262.392 127.718,253.066 						"/>
					</g>
					
						<polyline id="XMLID_346_" style="fill:none;stroke:#27DEBF;stroke-width:2;stroke-linecap:round;stroke-linejoin:round;stroke-miterlimit:10;" points="
						140.783,239.087 135.788,231.898 130.794,244.854 					"/>
					
						<line id="XMLID_1200_" style="fill:none;stroke:#27DEBF;stroke-width:2;stroke-linecap:round;stroke-linejoin:round;stroke-miterlimit:10;" x1="135.788" y1="233.398" x2="135.788" y2="251.458"/>
				</g>
				<g id="XMLID_534_">
					<path id="XMLID_530_" style="fill:#27DEBF;" d="M114.11,296.971l43.877-25.332c1.3-0.751,2.354-0.142,2.354,1.359l0,12.39
						c0,1.501-1.054,3.327-2.354,4.078l-43.877,25.332c-1.3,0.751-2.354,0.142-2.354-1.359v-12.39
						C111.755,299.548,112.809,297.722,114.11,296.971z"/>
					<g id="XMLID_532_">
						<path id="XMLID_538_" style="fill:#FAFAFA;" d="M121.217,298.621c0-0.111,0.025-0.221,0.079-0.331
							c0.052-0.111,0.114-0.187,0.186-0.227l0.743-0.43c0.072-0.041,0.134-0.037,0.186,0.013c0.053,0.05,0.078,0.131,0.078,0.241
							v3.827c0,0.603,0.084,1.036,0.25,1.302c0.167,0.267,0.44,0.29,0.817,0.072c0.346-0.2,0.612-0.533,0.793-1
							c0.183-0.468,0.274-1.002,0.274-1.606v-3.827c0-0.11,0.027-0.221,0.079-0.331c0.052-0.11,0.115-0.187,0.186-0.227l0.743-0.429
							c0.072-0.042,0.135-0.038,0.187,0.012c0.052,0.051,0.079,0.131,0.079,0.241v7.021c0,0.11-0.027,0.222-0.079,0.331
							c-0.052,0.11-0.115,0.187-0.187,0.229l-0.743,0.429c-0.071,0.04-0.134,0.036-0.186-0.014c-0.052-0.05-0.079-0.131-0.079-0.241
							v-0.346c-0.15,0.317-0.336,0.633-0.558,0.947c-0.221,0.313-0.488,0.561-0.803,0.742c-0.398,0.23-0.727,0.324-0.989,0.284
							c-0.26-0.039-0.468-0.174-0.626-0.406c-0.156-0.232-0.268-0.542-0.332-0.93c-0.066-0.389-0.098-0.821-0.098-1.292V298.621z"/>
						<path id="XMLID_541_" style="fill:#FAFAFA;" d="M129.995,301.131c-0.202,0.117-0.383,0.191-0.544,0.223
							c-0.159,0.032-0.299,0.038-0.421,0.017c-0.121-0.02-0.224-0.058-0.308-0.116c-0.085-0.056-0.154-0.114-0.205-0.175v3.209
							c0,0.11-0.028,0.222-0.079,0.331c-0.052,0.11-0.115,0.187-0.187,0.229l-0.743,0.429c-0.072,0.041-0.134,0.036-0.186-0.014
							s-0.079-0.131-0.079-0.241v-9.884c0-0.11,0.027-0.221,0.079-0.331c0.052-0.11,0.114-0.186,0.186-0.227l0.743-0.429
							c0.072-0.043,0.135-0.038,0.187,0.012c0.051,0.051,0.079,0.131,0.079,0.241v0.346c0.051-0.119,0.12-0.257,0.205-0.411
							c0.084-0.155,0.187-0.312,0.308-0.473c0.121-0.159,0.261-0.316,0.421-0.469c0.16-0.153,0.342-0.287,0.544-0.404
							c0.326-0.188,0.621-0.261,0.886-0.217c0.264,0.043,0.49,0.174,0.675,0.393c0.186,0.219,0.332,0.512,0.441,0.876
							c0.107,0.364,0.167,0.774,0.181,1.229c0.006,0.146,0.009,0.321,0.009,0.522c0,0.2-0.003,0.378-0.009,0.531
							c-0.014,0.471-0.073,0.949-0.181,1.439c-0.108,0.49-0.255,0.95-0.441,1.384c-0.186,0.435-0.411,0.826-0.675,1.174
							C130.617,300.675,130.321,300.943,129.995,301.131z M130.905,296.96c0.02-0.293,0.02-0.573,0-0.843
							c-0.039-0.631-0.17-1.026-0.391-1.184c-0.223-0.158-0.493-0.144-0.813,0.04c-0.319,0.184-0.588,0.485-0.807,0.903
							c-0.218,0.417-0.344,0.907-0.376,1.469c-0.014,0.158-0.02,0.353-0.02,0.584c0,0.231,0.006,0.417,0.02,0.561
							c0.032,0.503,0.158,0.843,0.376,1.018c0.219,0.174,0.488,0.169,0.807-0.015c0.321-0.185,0.59-0.484,0.813-0.898
							C130.736,298.179,130.866,297.636,130.905,296.96z"/>
						<path id="XMLID_1195_" style="fill:#FAFAFA;" d="M134.575,297.93c0,0.11-0.027,0.222-0.079,0.33
							c-0.052,0.111-0.115,0.188-0.186,0.229l-0.743,0.429c-0.073,0.043-0.135,0.037-0.187-0.013
							c-0.051-0.051-0.078-0.131-0.078-0.241v-9.884c0-0.11,0.028-0.222,0.078-0.332c0.052-0.109,0.114-0.185,0.187-0.227
							l0.743-0.429c0.071-0.041,0.134-0.037,0.186,0.013c0.052,0.051,0.079,0.131,0.079,0.241V297.93z"/>
						<path id="XMLID_1201_" style="fill:#FAFAFA;" d="M138.166,288.279c0.359-0.208,0.683-0.31,0.974-0.307
							c0.291,0.003,0.541,0.094,0.753,0.273c0.212,0.179,0.382,0.433,0.51,0.76c0.127,0.329,0.201,0.718,0.22,1.169
							c0.006,0.088,0.011,0.201,0.011,0.341c0,0.14,0,0.283,0,0.423c0,0.14,0,0.278,0,0.414s-0.004,0.251-0.011,0.345
							c-0.026,0.477-0.101,0.953-0.224,1.425c-0.124,0.473-0.293,0.92-0.506,1.339c-0.211,0.418-0.462,0.796-0.753,1.135
							c-0.291,0.338-0.615,0.611-0.974,0.819c-0.359,0.206-0.684,0.308-0.974,0.306c-0.29-0.004-0.542-0.091-0.754-0.265
							c-0.212-0.174-0.379-0.427-0.503-0.756c-0.124-0.33-0.2-0.719-0.225-1.166c-0.006-0.087-0.012-0.198-0.015-0.331
							c-0.003-0.134-0.004-0.27-0.004-0.412c0-0.14,0.001-0.283,0.004-0.424c0.003-0.143,0.008-0.26,0.015-0.356
							c0.019-0.474,0.092-0.947,0.221-1.423c0.126-0.475,0.295-0.924,0.508-1.349c0.212-0.423,0.464-0.805,0.754-1.143
							C137.482,288.757,137.807,288.484,138.166,288.279z M139.35,290.984c-0.019-0.301-0.067-0.531-0.141-0.694
							c-0.075-0.161-0.169-0.272-0.279-0.329c-0.11-0.055-0.232-0.068-0.362-0.039c-0.131,0.031-0.264,0.086-0.401,0.165
							c-0.137,0.08-0.271,0.178-0.401,0.3c-0.131,0.121-0.251,0.273-0.362,0.457c-0.111,0.186-0.204,0.404-0.278,0.652
							c-0.075,0.25-0.122,0.535-0.142,0.857c-0.008,0.085-0.012,0.188-0.015,0.31c-0.003,0.123-0.005,0.25-0.005,0.38
							c0,0.131,0.002,0.258,0.005,0.381s0.007,0.219,0.015,0.285c0.02,0.302,0.067,0.532,0.142,0.694
							c0.074,0.164,0.167,0.273,0.278,0.329c0.112,0.056,0.232,0.07,0.362,0.038c0.131-0.03,0.264-0.084,0.401-0.163
							c0.137-0.079,0.271-0.178,0.401-0.299c0.13-0.119,0.252-0.272,0.362-0.457c0.111-0.185,0.204-0.401,0.279-0.652
							c0.074-0.249,0.122-0.534,0.141-0.858c0.006-0.073,0.01-0.172,0.01-0.297s0-0.255,0-0.384c0-0.132,0-0.257,0-0.378
							C139.36,291.16,139.357,291.061,139.35,290.984z"/>
						<path id="XMLID_1206_" style="fill:#FAFAFA;" d="M141.747,288.289c0.027-0.226,0.087-0.486,0.182-0.783
							c0.094-0.296,0.228-0.598,0.4-0.909c0.173-0.311,0.385-0.606,0.637-0.888c0.251-0.279,0.544-0.517,0.876-0.708
							c0.332-0.192,0.633-0.297,0.9-0.317c0.267-0.018,0.497,0.048,0.689,0.198c0.192,0.15,0.341,0.394,0.446,0.729
							c0.103,0.338,0.156,0.761,0.156,1.273v4.43c0,0.11-0.027,0.221-0.079,0.33c-0.052,0.112-0.114,0.187-0.186,0.229l-0.743,0.429
							c-0.072,0.041-0.134,0.036-0.186-0.014c-0.053-0.05-0.079-0.131-0.079-0.241v-0.497c-0.137,0.371-0.335,0.733-0.593,1.087
							c-0.257,0.355-0.585,0.648-0.982,0.877c-0.281,0.163-0.533,0.249-0.755,0.262c-0.221,0.012-0.407-0.043-0.556-0.168
							c-0.151-0.124-0.268-0.306-0.348-0.546c-0.082-0.239-0.122-0.53-0.122-0.872c0-0.692,0.16-1.327,0.479-1.903
							c0.321-0.577,0.748-1.09,1.282-1.539l1.596-1.343c0-0.412-0.088-0.652-0.264-0.721c-0.176-0.069-0.395-0.028-0.655,0.122
							c-0.163,0.096-0.291,0.204-0.381,0.326c-0.092,0.123-0.18,0.27-0.266,0.439c-0.058,0.115-0.111,0.201-0.16,0.259
							c-0.05,0.059-0.103,0.104-0.163,0.138l-0.91,0.527c-0.066,0.037-0.121,0.039-0.167,0.005
							C141.751,288.468,141.734,288.397,141.747,288.289z M143.381,291.595c0.223-0.128,0.419-0.29,0.593-0.485
							c0.173-0.194,0.318-0.407,0.435-0.635c0.118-0.229,0.205-0.461,0.264-0.694c0.058-0.236,0.088-0.459,0.088-0.669v-0.151
							l-1.331,1.13c-0.268,0.225-0.461,0.44-0.578,0.642c-0.118,0.203-0.176,0.421-0.176,0.651c0,0.211,0.07,0.327,0.21,0.346
							C143.029,291.749,143.193,291.704,143.381,291.595z"/>
						<path id="XMLID_1224_" style="fill:#FAFAFA;" d="M149.294,281.854c0.201-0.117,0.382-0.191,0.543-0.223
							c0.159-0.032,0.299-0.038,0.421-0.017c0.121,0.02,0.224,0.058,0.309,0.116c0.084,0.056,0.153,0.114,0.205,0.175v-3.209
							c0-0.11,0.027-0.222,0.079-0.333c0.052-0.108,0.115-0.185,0.186-0.227l0.744-0.429c0.071-0.041,0.133-0.036,0.186,0.013
							c0.051,0.051,0.077,0.132,0.077,0.242v9.884c0,0.11-0.026,0.221-0.077,0.33c-0.053,0.111-0.115,0.187-0.186,0.228
							l-0.744,0.429c-0.071,0.043-0.134,0.038-0.186-0.013c-0.052-0.05-0.079-0.13-0.079-0.24v-0.346
							c-0.052,0.119-0.121,0.257-0.205,0.411c-0.085,0.155-0.188,0.312-0.309,0.473c-0.121,0.159-0.261,0.316-0.421,0.469
							c-0.16,0.153-0.342,0.287-0.543,0.404c-0.327,0.188-0.622,0.261-0.886,0.217c-0.266-0.043-0.491-0.174-0.676-0.393
							c-0.186-0.219-0.332-0.512-0.441-0.876c-0.107-0.364-0.167-0.774-0.179-1.23c-0.007-0.145-0.011-0.32-0.011-0.521
							c0-0.2,0.003-0.378,0.011-0.533c0.013-0.469,0.072-0.947,0.179-1.437c0.108-0.49,0.255-0.95,0.441-1.386
							c0.186-0.433,0.411-0.824,0.676-1.172C148.671,282.311,148.967,282.042,149.294,281.854z M148.383,286.025
							c-0.019,0.293-0.019,0.573,0,0.843c0.039,0.631,0.17,1.026,0.392,1.183c0.222,0.158,0.493,0.146,0.812-0.039
							c0.32-0.184,0.588-0.485,0.807-0.903c0.219-0.417,0.344-0.907,0.377-1.469c0.014-0.158,0.02-0.353,0.02-0.584
							c0-0.231-0.006-0.417-0.02-0.561c-0.033-0.503-0.158-0.843-0.377-1.018c-0.219-0.175-0.487-0.169-0.807,0.015
							c-0.32,0.185-0.59,0.483-0.812,0.897C148.552,284.806,148.422,285.35,148.383,286.025z"/>
					</g>
				</g>
			</g>
			<g id="XMLID_548_">
				<g id="XMLID_1192_">
					
						<polygon id="XMLID_1178_" style="fill:none;stroke:#27DEBF;stroke-linecap:round;stroke-linejoin:round;stroke-miterlimit:10;" points="
						204.511,143.189 239.843,122.789 239.843,153.384 204.51,173.783 					"/>
					
						<polyline id="XMLID_1189_" style="fill:none;stroke:#27DEBF;stroke-linecap:round;stroke-linejoin:round;stroke-miterlimit:10;" points="
						204.511,167.669 216.289,144.549 229.038,152.709 					"/>
					
						<polyline id="XMLID_1190_" style="fill:none;stroke:#27DEBF;stroke-linecap:round;stroke-linejoin:round;stroke-miterlimit:10;" points="
						225.225,150.269 231.46,140.73 239.843,145.909 					"/>
					
						<path id="XMLID_1191_" style="fill:none;stroke:#27DEBF;stroke-linecap:round;stroke-linejoin:round;stroke-miterlimit:10;" d="
						M225.055,136.429c1.388-0.801,2.513-0.152,2.513,1.451c0,1.602-1.125,3.551-2.513,4.352c-1.388,0.801-2.513,0.152-2.513-1.451
						C222.542,139.179,223.667,137.23,225.055,136.429z"/>
				</g>
				<path id="XMLID_542_" style="fill:#455A64;" d="M306.984,98.087l-1.278-1.23l1.415-2.995c0.153-0.324,0.015-0.711-0.31-0.864
					c-0.324-0.152-0.71-0.014-0.864,0.31l-1.228,2.6l-0.963-0.927c-0.258-0.248-0.669-0.241-0.917,0.018
					c-0.249,0.258-0.241,0.669,0.018,0.918l1.278,1.23l-1.415,2.996c-0.153,0.324-0.015,0.711,0.31,0.864
					c0.089,0.042,0.184,0.062,0.276,0.062c0.243,0,0.477-0.137,0.587-0.372l1.228-2.6l0.963,0.927
					c0.126,0.121,0.288,0.181,0.45,0.181c0.171,0,0.34-0.066,0.468-0.199C307.25,98.746,307.242,98.335,306.984,98.087z"/>
				<g id="XMLID_547_">
					<path id="XMLID_535_" style="fill:#E0E0E0;" d="M245.874,142.44c0,1.408,1.054,1.941,2.354,1.191l52.71-30.432
						c1.3-0.751,2.354-2.501,2.354-3.909c0-1.408-1.054-1.941-2.354-1.191l-52.71,30.432
						C246.928,139.282,245.874,141.032,245.874,142.44z"/>
					<path id="XMLID_545_" style="fill:#27DEBF;" d="M245.874,142.44c0,1.408,1.054,1.941,2.354,1.191l29.429-16.993
						c1.3-0.751,2.354-2.501,2.354-3.909c0-1.408-1.054-1.941-2.354-1.191l-29.429,16.993
						C246.928,139.282,245.874,141.032,245.874,142.44z"/>
				</g>
				<g id="XMLID_533_">
					<path id="XMLID_1926_" style="fill:#455A64;" d="M246.637,125.905c0.053-0.03,0.096-0.027,0.134,0.01
						c0.038,0.036,0.057,0.093,0.057,0.173v0.848c0,0.08-0.019,0.16-0.057,0.239c-0.038,0.08-0.081,0.134-0.134,0.165l-0.607,0.35
						c-0.053,0.03-0.096,0.027-0.134-0.01c-0.038-0.036-0.057-0.094-0.057-0.174v-0.848c0-0.08,0.019-0.159,0.057-0.238
						c0.038-0.08,0.081-0.134,0.134-0.165L246.637,125.905z M246.792,133.242c0,0.08-0.019,0.159-0.055,0.238
						c-0.038,0.08-0.083,0.135-0.136,0.165l-0.535,0.31c-0.053,0.03-0.098,0.027-0.136-0.01c-0.036-0.036-0.055-0.094-0.055-0.174
						v-5.067c0-0.08,0.019-0.159,0.055-0.24c0.038-0.079,0.083-0.135,0.136-0.165l0.535-0.31c0.053-0.03,0.098-0.026,0.136,0.01
						c0.036,0.037,0.055,0.095,0.055,0.175V133.242z"/>
					<path id="XMLID_2720_" style="fill:#455A64;" d="M248.685,127.332c0.113-0.276,0.251-0.516,0.41-0.72
						c0.161-0.205,0.327-0.358,0.501-0.458c0.297-0.172,0.539-0.226,0.729-0.165c0.189,0.062,0.336,0.2,0.444,0.412
						c0.062-0.179,0.138-0.354,0.227-0.521c0.089-0.168,0.185-0.321,0.287-0.459c0.1-0.138,0.206-0.258,0.312-0.36
						c0.108-0.102,0.215-0.183,0.319-0.243c0.27-0.155,0.493-0.215,0.671-0.181c0.178,0.035,0.325,0.136,0.435,0.305
						c0.11,0.168,0.187,0.392,0.231,0.675c0.045,0.283,0.068,0.594,0.068,0.935v2.925c0,0.08-0.019,0.159-0.057,0.238
						c-0.036,0.08-0.083,0.135-0.134,0.165l-0.537,0.31c-0.051,0.03-0.096,0.027-0.134-0.01c-0.038-0.036-0.055-0.094-0.055-0.174
						v-2.871c0-0.493-0.062-0.801-0.185-0.927c-0.123-0.125-0.295-0.123-0.516,0.004c-0.187,0.109-0.348,0.297-0.482,0.562
						c-0.134,0.267-0.206,0.637-0.217,1.114v2.925c0,0.08-0.019,0.159-0.055,0.238c-0.038,0.08-0.083,0.135-0.136,0.165l-0.537,0.31
						c-0.051,0.03-0.096,0.027-0.134-0.01c-0.038-0.036-0.055-0.094-0.055-0.174v-2.871c0-0.493-0.062-0.801-0.185-0.927
						c-0.121-0.125-0.293-0.123-0.514,0.004c-0.193,0.112-0.359,0.307-0.495,0.584c-0.138,0.279-0.206,0.661-0.206,1.146v2.871
						c0,0.08-0.017,0.159-0.055,0.238c-0.038,0.08-0.083,0.135-0.134,0.165l-0.537,0.31c-0.053,0.03-0.098,0.027-0.136-0.01
						c-0.036-0.035-0.055-0.094-0.055-0.174v-5.067c0-0.08,0.019-0.159,0.055-0.239c0.038-0.079,0.083-0.135,0.136-0.165l0.537-0.31
						c0.051-0.03,0.096-0.026,0.134,0.01c0.038,0.037,0.055,0.095,0.055,0.175V127.332z"/>
					<path id="XMLID_2722_" style="fill:#455A64;" d="M254.257,124.963c0.019-0.162,0.064-0.352,0.132-0.565
						c0.068-0.214,0.163-0.432,0.289-0.657c0.125-0.224,0.278-0.438,0.459-0.64c0.183-0.202,0.393-0.373,0.633-0.511
						c0.24-0.139,0.457-0.215,0.65-0.229c0.193-0.014,0.359,0.034,0.497,0.143c0.138,0.108,0.246,0.284,0.323,0.526
						c0.074,0.243,0.112,0.549,0.112,0.919v3.197c0,0.08-0.019,0.16-0.057,0.239c-0.038,0.08-0.081,0.134-0.134,0.165l-0.537,0.31
						c-0.051,0.03-0.096,0.027-0.134-0.01c-0.038-0.035-0.057-0.093-0.057-0.173v-0.359c-0.098,0.267-0.24,0.529-0.427,0.784
						c-0.185,0.256-0.423,0.467-0.709,0.633c-0.202,0.117-0.382,0.18-0.544,0.189c-0.161,0.009-0.295-0.031-0.401-0.121
						c-0.11-0.09-0.193-0.22-0.253-0.393c-0.057-0.173-0.087-0.382-0.087-0.629c0-0.5,0.115-0.959,0.346-1.374
						c0.229-0.416,0.539-0.786,0.926-1.111l1.149-0.968c0-0.297-0.064-0.471-0.189-0.521c-0.128-0.05-0.287-0.02-0.474,0.089
						c-0.119,0.068-0.21,0.146-0.276,0.234c-0.066,0.089-0.13,0.195-0.189,0.317c-0.045,0.083-0.083,0.145-0.117,0.186
						c-0.036,0.043-0.074,0.076-0.117,0.1l-0.658,0.379c-0.047,0.027-0.087,0.029-0.119,0.005
						C254.26,125.092,254.249,125.04,254.257,124.963z M255.436,127.349c0.161-0.092,0.304-0.21,0.429-0.351
						c0.125-0.14,0.229-0.294,0.314-0.459c0.085-0.165,0.149-0.332,0.189-0.501c0.042-0.17,0.064-0.331,0.064-0.483v-0.109
						l-0.96,0.815c-0.193,0.162-0.331,0.317-0.416,0.464c-0.085,0.146-0.127,0.304-0.127,0.47c0,0.152,0.051,0.236,0.153,0.249
						C255.181,127.46,255.3,127.427,255.436,127.349z"/>
					<path id="XMLID_2725_" style="fill:#455A64;" d="M259.894,127.059c0.1-0.057,0.2-0.139,0.304-0.247
						c0.104-0.106,0.198-0.235,0.283-0.385c0.085-0.151,0.153-0.319,0.208-0.507c0.053-0.187,0.081-0.386,0.081-0.596v-0.402
						c-0.036,0.087-0.087,0.186-0.149,0.298c-0.059,0.11-0.134,0.225-0.223,0.34c-0.085,0.116-0.187,0.228-0.302,0.339
						c-0.117,0.11-0.246,0.206-0.393,0.291c-0.236,0.136-0.448,0.189-0.639,0.158c-0.189-0.031-0.353-0.126-0.486-0.285
						c-0.136-0.158-0.24-0.369-0.318-0.632c-0.077-0.263-0.121-0.559-0.132-0.887c-0.004-0.106-0.006-0.232-0.006-0.376
						c0-0.146,0.002-0.273,0.006-0.385c0.011-0.339,0.055-0.685,0.132-1.038c0.078-0.353,0.183-0.686,0.318-0.999
						c0.134-0.313,0.297-0.595,0.486-0.847c0.191-0.251,0.404-0.444,0.639-0.58c0.146-0.084,0.276-0.139,0.393-0.161
						c0.115-0.023,0.217-0.028,0.302-0.012c0.089,0.014,0.164,0.042,0.223,0.084c0.062,0.04,0.113,0.082,0.149,0.125v-0.249
						c0-0.08,0.019-0.159,0.057-0.239c0.038-0.079,0.083-0.135,0.134-0.165l0.537-0.31c0.051-0.03,0.096-0.025,0.134,0.01
						c0.036,0.037,0.057,0.095,0.057,0.175v5.099c0,0.877-0.159,1.631-0.478,2.26c-0.318,0.63-0.756,1.106-1.317,1.43
						c-0.24,0.139-0.463,0.218-0.667,0.238c-0.206,0.02-0.384-0.007-0.533-0.084c-0.151-0.076-0.272-0.192-0.361-0.346
						c-0.089-0.156-0.138-0.339-0.149-0.551c-0.004-0.078,0.013-0.156,0.053-0.237c0.04-0.082,0.087-0.137,0.138-0.167l0.48-0.277
						c0.066-0.038,0.121-0.037,0.17,0.005c0.047,0.042,0.087,0.083,0.119,0.122c0.062,0.088,0.146,0.14,0.253,0.159
						C259.501,127.245,259.669,127.189,259.894,127.059z M259.046,123.329c-0.015,0.211-0.015,0.414,0,0.608
						c0.028,0.456,0.123,0.74,0.282,0.854c0.159,0.114,0.355,0.105,0.586-0.028c0.229-0.133,0.425-0.35,0.582-0.652
						c0.157-0.301,0.248-0.655,0.272-1.06c0.011-0.115,0.015-0.254,0.015-0.421c0-0.167-0.004-0.302-0.015-0.406
						c-0.023-0.362-0.115-0.607-0.272-0.734c-0.157-0.126-0.353-0.123-0.582,0.011c-0.232,0.133-0.427,0.349-0.586,0.647
						C259.169,122.448,259.074,122.842,259.046,123.329z"/>
					<path id="XMLID_2728_" style="fill:#455A64;" d="M262.478,121.652c0-0.407,0.04-0.812,0.121-1.217
						c0.078-0.405,0.193-0.783,0.346-1.134c0.151-0.351,0.331-0.666,0.546-0.941c0.215-0.277,0.454-0.49,0.718-0.642
						c0.263-0.152,0.501-0.216,0.716-0.191c0.215,0.025,0.397,0.118,0.548,0.281c0.151,0.163,0.268,0.39,0.351,0.679
						c0.081,0.29,0.123,0.62,0.123,0.99v0.49c0,0.08-0.019,0.159-0.057,0.238c-0.036,0.08-0.083,0.135-0.134,0.164l-2.357,1.362
						c0,0.167,0.021,0.3,0.066,0.402c0.045,0.101,0.104,0.174,0.18,0.217c0.074,0.044,0.161,0.058,0.261,0.044
						c0.098-0.013,0.2-0.049,0.304-0.109c0.151-0.087,0.274-0.181,0.367-0.283c0.094-0.102,0.172-0.207,0.234-0.314
						c0.051-0.087,0.094-0.152,0.125-0.193c0.034-0.04,0.079-0.076,0.136-0.109l0.565-0.326c0.051-0.03,0.096-0.028,0.136,0.007
						c0.04,0.035,0.06,0.093,0.055,0.175c-0.006,0.105-0.042,0.256-0.11,0.456c-0.068,0.199-0.17,0.414-0.308,0.645
						c-0.136,0.231-0.304,0.458-0.505,0.683c-0.2,0.224-0.431,0.411-0.694,0.564c-0.263,0.152-0.503,0.22-0.718,0.203
						s-0.395-0.114-0.546-0.288c-0.153-0.173-0.268-0.417-0.346-0.729C262.519,122.461,262.478,122.087,262.478,121.652z
						 M264.209,119.022c-0.138,0.079-0.253,0.177-0.35,0.294c-0.095,0.117-0.178,0.244-0.242,0.38
						c-0.068,0.136-0.117,0.273-0.153,0.413c-0.036,0.141-0.057,0.267-0.066,0.382l1.595-0.921
						c-0.011-0.104-0.028-0.208-0.053-0.313c-0.025-0.105-0.068-0.188-0.127-0.252c-0.059-0.064-0.136-0.099-0.234-0.105
						C264.483,118.895,264.36,118.935,264.209,119.022z"/>
					<path id="XMLID_3033_" style="fill:#455A64;" d="M266.772,122.652c-0.053,0.03-0.098,0.027-0.136-0.01
						c-0.036-0.036-0.055-0.094-0.055-0.174v-0.718c0-0.08,0.019-0.159,0.055-0.238c0.038-0.08,0.083-0.135,0.136-0.165l4.131-2.385
						c0.051-0.03,0.098-0.027,0.134,0.01c0.038,0.036,0.057,0.094,0.057,0.174v0.718c0,0.08-0.019,0.159-0.057,0.238
						c-0.036,0.08-0.083,0.135-0.134,0.165L266.772,122.652z"/>
					<path id="XMLID_3074_" style="fill:#455A64;" d="M271.625,114.044c-0.034-0.046-0.047-0.11-0.038-0.195
						c0.006-0.083,0.03-0.162,0.072-0.238l1.533-2.744c0.038-0.065,0.076-0.129,0.117-0.193c0.04-0.062,0.083-0.108,0.13-0.135
						l0.552-0.318c0.051-0.03,0.096-0.027,0.134,0.009c0.038,0.037,0.055,0.094,0.055,0.174v7.025c0,0.08-0.017,0.159-0.055,0.238
						c-0.038,0.08-0.083,0.135-0.134,0.165l-0.571,0.33c-0.053,0.03-0.098,0.027-0.136-0.009c-0.036-0.036-0.057-0.093-0.057-0.173
						v-5.372l-1.002,1.786c-0.04,0.074-0.087,0.121-0.136,0.139c-0.051,0.018-0.093,0.005-0.132-0.039L271.625,114.044z"/>
				</g>
			</g>
			<g id="XMLID_555_">
				<g id="XMLID_609_">
					
						<polygon id="XMLID_972_" style="fill:none;stroke:#27DEBF;stroke-linecap:round;stroke-linejoin:round;stroke-miterlimit:10;" points="
						204.511,185.444 239.843,165.044 239.843,195.639 204.51,216.038 					"/>
					
						<polyline id="XMLID_661_" style="fill:none;stroke:#27DEBF;stroke-linecap:round;stroke-linejoin:round;stroke-miterlimit:10;" points="
						204.511,209.924 216.289,186.804 229.038,194.964 					"/>
					
						<polyline id="XMLID_611_" style="fill:none;stroke:#27DEBF;stroke-linecap:round;stroke-linejoin:round;stroke-miterlimit:10;" points="
						225.225,192.524 231.46,182.986 239.843,188.164 					"/>
					<path id="XMLID_610_" style="fill:none;stroke:#27DEBF;stroke-linecap:round;stroke-linejoin:round;stroke-miterlimit:10;" d="
						M225.055,178.684c1.388-0.801,2.513-0.152,2.513,1.451c0,1.602-1.125,3.551-2.513,4.352c-1.388,0.801-2.513,0.152-2.513-1.451
						C222.542,181.434,223.667,179.485,225.055,178.684z"/>
				</g>
				<path id="XMLID_607_" style="fill:#455A64;" d="M306.984,140.342l-1.278-1.23l1.415-2.995c0.153-0.324,0.015-0.711-0.31-0.864
					c-0.324-0.152-0.71-0.014-0.864,0.31l-1.228,2.6l-0.963-0.927c-0.258-0.248-0.669-0.241-0.917,0.018
					c-0.249,0.258-0.241,0.669,0.018,0.918l1.278,1.23l-1.415,2.995c-0.153,0.324-0.015,0.711,0.31,0.864
					c0.089,0.042,0.184,0.062,0.276,0.062c0.243,0,0.477-0.137,0.587-0.372l1.228-2.6l0.963,0.927
					c0.126,0.121,0.288,0.181,0.45,0.181c0.171,0,0.34-0.067,0.468-0.199C307.25,141.001,307.242,140.59,306.984,140.342z"/>
				<g id="XMLID_561_">
					<path id="XMLID_606_" style="fill:#E0E0E0;" d="M245.874,184.695c0,1.408,1.054,1.942,2.354,1.191l52.71-30.432
						c1.3-0.751,2.354-2.501,2.354-3.909c0-1.408-1.054-1.941-2.354-1.191l-52.71,30.432
						C246.928,181.537,245.874,183.287,245.874,184.695z"/>
					<path id="XMLID_605_" style="fill:#27DEBF;" d="M245.874,184.695c0,1.408,1.054,1.942,2.354,1.191l39.666-22.9
						c1.3-0.751,2.354-2.501,2.354-3.909c0-1.408-1.054-1.941-2.354-1.191l-39.666,22.9
						C246.928,181.537,245.874,183.287,245.874,184.695z"/>
				</g>
				<g id="XMLID_556_">
					<path id="XMLID_1417_" style="fill:#455A64;" d="M246.637,168.161c0.053-0.03,0.096-0.027,0.134,0.01
						c0.038,0.036,0.057,0.093,0.057,0.173v0.848c0,0.08-0.019,0.16-0.057,0.239c-0.038,0.08-0.081,0.134-0.134,0.164l-0.607,0.351
						c-0.053,0.03-0.096,0.027-0.134-0.01c-0.038-0.036-0.057-0.094-0.057-0.174v-0.848c0-0.08,0.019-0.159,0.057-0.238
						c0.038-0.08,0.081-0.134,0.134-0.165L246.637,168.161z M246.792,175.498c0,0.08-0.019,0.159-0.055,0.238
						c-0.038,0.08-0.083,0.135-0.136,0.165l-0.535,0.31c-0.053,0.03-0.098,0.027-0.136-0.009c-0.036-0.036-0.055-0.094-0.055-0.174
						v-5.067c0-0.08,0.019-0.159,0.055-0.24c0.038-0.079,0.083-0.135,0.136-0.165l0.535-0.31c0.053-0.03,0.098-0.026,0.136,0.01
						c0.036,0.037,0.055,0.095,0.055,0.175V175.498z"/>
					<path id="XMLID_1434_" style="fill:#455A64;" d="M248.685,169.588c0.113-0.276,0.251-0.516,0.41-0.72
						c0.161-0.205,0.327-0.358,0.501-0.458c0.297-0.171,0.539-0.226,0.729-0.165c0.189,0.062,0.336,0.2,0.444,0.412
						c0.062-0.179,0.138-0.354,0.227-0.521c0.089-0.168,0.185-0.321,0.287-0.459c0.1-0.138,0.206-0.258,0.312-0.36
						c0.108-0.102,0.215-0.183,0.319-0.243c0.27-0.155,0.493-0.215,0.671-0.181c0.178,0.035,0.325,0.136,0.435,0.305
						c0.11,0.168,0.187,0.392,0.231,0.675c0.045,0.283,0.068,0.594,0.068,0.935v2.925c0,0.08-0.019,0.159-0.057,0.238
						c-0.036,0.08-0.083,0.135-0.134,0.165l-0.537,0.31c-0.051,0.03-0.096,0.027-0.134-0.01c-0.038-0.036-0.055-0.094-0.055-0.174
						v-2.871c0-0.493-0.062-0.801-0.185-0.927c-0.123-0.125-0.295-0.123-0.516,0.004c-0.187,0.109-0.348,0.297-0.482,0.562
						c-0.134,0.266-0.206,0.637-0.217,1.114v2.925c0,0.08-0.019,0.159-0.055,0.238c-0.038,0.08-0.083,0.135-0.136,0.165l-0.537,0.31
						c-0.051,0.03-0.096,0.027-0.134-0.01c-0.038-0.036-0.055-0.094-0.055-0.174v-2.871c0-0.493-0.062-0.801-0.185-0.927
						c-0.121-0.125-0.293-0.123-0.514,0.004c-0.193,0.111-0.359,0.307-0.495,0.584c-0.138,0.279-0.206,0.661-0.206,1.146v2.871
						c0,0.08-0.017,0.159-0.055,0.238c-0.038,0.08-0.083,0.135-0.134,0.165l-0.537,0.31c-0.053,0.03-0.098,0.027-0.136-0.01
						c-0.036-0.036-0.055-0.094-0.055-0.174v-5.067c0-0.08,0.019-0.159,0.055-0.239c0.038-0.079,0.083-0.135,0.136-0.165l0.537-0.31
						c0.051-0.03,0.096-0.026,0.134,0.01c0.038,0.037,0.055,0.095,0.055,0.175V169.588z"/>
					<path id="XMLID_1436_" style="fill:#455A64;" d="M254.257,167.219c0.019-0.163,0.064-0.352,0.132-0.565
						c0.068-0.214,0.163-0.432,0.289-0.657c0.125-0.224,0.278-0.438,0.459-0.64c0.183-0.202,0.393-0.373,0.633-0.511
						c0.24-0.139,0.457-0.215,0.65-0.229c0.193-0.014,0.359,0.034,0.497,0.143c0.138,0.108,0.246,0.283,0.323,0.526
						c0.074,0.243,0.112,0.549,0.112,0.919v3.197c0,0.08-0.019,0.16-0.057,0.239c-0.038,0.08-0.081,0.134-0.134,0.165l-0.537,0.309
						c-0.051,0.03-0.096,0.027-0.134-0.01c-0.038-0.035-0.057-0.093-0.057-0.173v-0.359c-0.098,0.267-0.24,0.529-0.427,0.784
						c-0.185,0.256-0.423,0.467-0.709,0.633c-0.202,0.117-0.382,0.18-0.544,0.189c-0.161,0.009-0.295-0.031-0.401-0.121
						c-0.11-0.09-0.193-0.22-0.253-0.394c-0.057-0.173-0.087-0.382-0.087-0.629c0-0.5,0.115-0.959,0.346-1.374
						c0.229-0.416,0.539-0.786,0.926-1.111l1.149-0.968c0-0.297-0.064-0.471-0.189-0.521c-0.128-0.05-0.287-0.02-0.474,0.089
						c-0.119,0.068-0.21,0.146-0.276,0.234c-0.066,0.089-0.13,0.195-0.189,0.317c-0.045,0.083-0.083,0.145-0.117,0.186
						c-0.036,0.043-0.074,0.076-0.117,0.1l-0.658,0.379c-0.047,0.027-0.087,0.029-0.119,0.005
						C254.26,167.349,254.249,167.297,254.257,167.219z M255.436,169.605c0.161-0.092,0.304-0.21,0.429-0.351
						c0.125-0.14,0.229-0.294,0.314-0.459c0.085-0.165,0.149-0.332,0.189-0.501c0.042-0.17,0.064-0.331,0.064-0.483v-0.109
						l-0.96,0.816c-0.193,0.162-0.331,0.317-0.416,0.464c-0.085,0.146-0.127,0.304-0.127,0.47c0,0.152,0.051,0.236,0.153,0.249
						C255.181,169.716,255.3,169.684,255.436,169.605z"/>
					<path id="XMLID_1441_" style="fill:#455A64;" d="M259.894,169.315c0.1-0.057,0.2-0.139,0.304-0.247
						c0.104-0.106,0.198-0.235,0.283-0.385c0.085-0.151,0.153-0.319,0.208-0.507c0.053-0.188,0.081-0.386,0.081-0.596v-0.402
						c-0.036,0.086-0.087,0.186-0.149,0.298c-0.059,0.11-0.134,0.225-0.223,0.34c-0.085,0.116-0.187,0.228-0.302,0.339
						c-0.117,0.11-0.246,0.206-0.393,0.291c-0.236,0.136-0.448,0.189-0.639,0.158c-0.189-0.031-0.353-0.126-0.486-0.285
						c-0.136-0.158-0.24-0.369-0.318-0.632c-0.077-0.263-0.121-0.559-0.132-0.887c-0.004-0.106-0.006-0.232-0.006-0.376
						c0-0.146,0.002-0.273,0.006-0.385c0.011-0.339,0.055-0.685,0.132-1.037c0.078-0.353,0.183-0.686,0.318-0.999
						c0.134-0.313,0.297-0.595,0.486-0.847c0.191-0.251,0.404-0.444,0.639-0.58c0.146-0.084,0.276-0.139,0.393-0.161
						c0.115-0.023,0.217-0.028,0.302-0.012c0.089,0.014,0.164,0.042,0.223,0.084c0.062,0.04,0.113,0.082,0.149,0.125v-0.249
						c0-0.08,0.019-0.159,0.057-0.24c0.038-0.079,0.083-0.135,0.134-0.165l0.537-0.31c0.051-0.03,0.096-0.026,0.134,0.009
						c0.036,0.037,0.057,0.095,0.057,0.175v5.099c0,0.877-0.159,1.63-0.478,2.26c-0.318,0.63-0.756,1.106-1.317,1.43
						c-0.24,0.139-0.463,0.218-0.667,0.238c-0.206,0.02-0.384-0.007-0.533-0.084c-0.151-0.076-0.272-0.192-0.361-0.346
						c-0.089-0.156-0.138-0.339-0.149-0.55c-0.004-0.078,0.013-0.156,0.053-0.237c0.04-0.082,0.087-0.137,0.138-0.167l0.48-0.277
						c0.066-0.038,0.121-0.037,0.17,0.005c0.047,0.042,0.087,0.083,0.119,0.122c0.062,0.088,0.146,0.14,0.253,0.159
						C259.501,169.501,259.669,169.445,259.894,169.315z M259.046,165.585c-0.015,0.211-0.015,0.414,0,0.608
						c0.028,0.456,0.123,0.74,0.282,0.854c0.159,0.114,0.355,0.105,0.586-0.028c0.229-0.133,0.425-0.35,0.582-0.652
						c0.157-0.301,0.248-0.655,0.272-1.06c0.011-0.115,0.015-0.254,0.015-0.421c0-0.167-0.004-0.302-0.015-0.406
						c-0.023-0.362-0.115-0.607-0.272-0.734c-0.157-0.126-0.353-0.123-0.582,0.011c-0.232,0.133-0.427,0.349-0.586,0.647
						C259.169,164.705,259.074,165.098,259.046,165.585z"/>
					<path id="XMLID_1447_" style="fill:#455A64;" d="M262.478,163.909c0-0.407,0.04-0.812,0.121-1.217
						c0.078-0.405,0.193-0.783,0.346-1.134c0.151-0.351,0.331-0.666,0.546-0.941c0.215-0.277,0.454-0.49,0.718-0.642
						c0.263-0.152,0.501-0.216,0.716-0.191c0.215,0.025,0.397,0.118,0.548,0.281c0.151,0.163,0.268,0.39,0.351,0.678
						c0.081,0.29,0.123,0.62,0.123,0.99v0.49c0,0.08-0.019,0.159-0.057,0.238c-0.036,0.08-0.083,0.135-0.134,0.165l-2.357,1.362
						c0,0.167,0.021,0.3,0.066,0.402c0.045,0.101,0.104,0.174,0.18,0.217c0.074,0.044,0.161,0.058,0.261,0.044
						c0.098-0.013,0.2-0.049,0.304-0.109c0.151-0.087,0.274-0.181,0.367-0.283c0.094-0.101,0.172-0.207,0.234-0.314
						c0.051-0.087,0.094-0.152,0.125-0.193c0.034-0.04,0.079-0.077,0.136-0.109l0.565-0.326c0.051-0.03,0.096-0.028,0.136,0.007
						c0.04,0.035,0.06,0.093,0.055,0.175c-0.006,0.105-0.042,0.257-0.11,0.456c-0.068,0.199-0.17,0.414-0.308,0.645
						c-0.136,0.231-0.304,0.458-0.505,0.683c-0.2,0.224-0.431,0.411-0.694,0.564c-0.263,0.152-0.503,0.22-0.718,0.203
						s-0.395-0.114-0.546-0.288c-0.153-0.173-0.268-0.417-0.346-0.73C262.519,164.717,262.478,164.343,262.478,163.909z
						 M264.209,161.279c-0.138,0.079-0.253,0.177-0.35,0.294c-0.095,0.117-0.178,0.244-0.242,0.38
						c-0.068,0.136-0.117,0.273-0.153,0.414c-0.036,0.141-0.057,0.267-0.066,0.382l1.595-0.921
						c-0.011-0.104-0.028-0.208-0.053-0.313c-0.025-0.105-0.068-0.189-0.127-0.252c-0.059-0.064-0.136-0.099-0.234-0.105
						C264.483,161.151,264.36,161.191,264.209,161.279z"/>
					<path id="XMLID_1453_" style="fill:#455A64;" d="M266.772,164.908c-0.053,0.03-0.098,0.027-0.136-0.01
						c-0.036-0.036-0.055-0.094-0.055-0.174v-0.718c0-0.08,0.019-0.159,0.055-0.238c0.038-0.08,0.083-0.135,0.136-0.165l4.131-2.386
						c0.051-0.03,0.098-0.027,0.134,0.01c0.038,0.036,0.057,0.094,0.057,0.174v0.718c0,0.08-0.019,0.159-0.057,0.238
						c-0.036,0.08-0.083,0.135-0.134,0.165L266.772,164.908z"/>
					<path id="XMLID_1600_" style="fill:#455A64;" d="M274.055,155.79c0.14-0.256,0.232-0.485,0.272-0.69
						c0.04-0.203,0.059-0.383,0.059-0.535c0-0.297-0.059-0.515-0.176-0.654c-0.119-0.138-0.314-0.128-0.586,0.03
						c-0.259,0.149-0.448,0.356-0.569,0.621c-0.119,0.264-0.206,0.565-0.257,0.899c-0.015,0.101-0.042,0.189-0.085,0.26
						c-0.042,0.072-0.085,0.12-0.127,0.145l-0.559,0.322c-0.051,0.03-0.098,0.029-0.138-0.002c-0.04-0.031-0.057-0.092-0.053-0.182
						c0.015-0.335,0.07-0.674,0.164-1.018c0.094-0.344,0.219-0.671,0.378-0.98c0.157-0.309,0.342-0.587,0.554-0.836
						c0.212-0.25,0.44-0.444,0.686-0.586c0.295-0.171,0.552-0.245,0.769-0.221c0.217,0.024,0.395,0.111,0.537,0.266
						c0.14,0.154,0.246,0.355,0.314,0.603c0.068,0.246,0.102,0.511,0.102,0.793c0,0.182-0.006,0.358-0.021,0.529
						c-0.015,0.171-0.047,0.354-0.1,0.547c-0.051,0.192-0.125,0.407-0.225,0.641c-0.098,0.234-0.232,0.501-0.395,0.799l-1.308,2.592
						l1.964-1.133c0.051-0.03,0.096-0.027,0.134,0.01c0.038,0.037,0.057,0.093,0.057,0.173v0.773c0,0.08-0.019,0.16-0.057,0.239
						c-0.038,0.08-0.083,0.134-0.134,0.165l-3.298,1.904c-0.051,0.03-0.096,0.027-0.134-0.01c-0.038-0.035-0.057-0.094-0.057-0.174
						v-0.664c0-0.123,0.023-0.244,0.07-0.361c0.049-0.118,0.087-0.204,0.121-0.26L274.055,155.79z"/>
				</g>
			</g>
			<g id="XMLID_993_">
				<g id="XMLID_1181_">
					
						<polygon id="XMLID_1188_" style="fill:none;stroke:#27DEBF;stroke-linecap:round;stroke-linejoin:round;stroke-miterlimit:10;" points="
						204.511,228.787 239.843,208.387 239.843,238.982 204.51,259.381 					"/>
					
						<polyline id="XMLID_1184_" style="fill:none;stroke:#27DEBF;stroke-linecap:round;stroke-linejoin:round;stroke-miterlimit:10;" points="
						204.511,253.267 216.289,230.147 229.038,238.307 					"/>
					
						<polyline id="XMLID_1183_" style="fill:none;stroke:#27DEBF;stroke-linecap:round;stroke-linejoin:round;stroke-miterlimit:10;" points="
						225.225,235.867 231.46,226.329 239.843,231.507 					"/>
					
						<path id="XMLID_1182_" style="fill:none;stroke:#27DEBF;stroke-linecap:round;stroke-linejoin:round;stroke-miterlimit:10;" d="
						M225.055,222.027c1.388-0.801,2.513-0.152,2.513,1.451c0,1.602-1.125,3.551-2.513,4.352c-1.388,0.801-2.513,0.152-2.513-1.451
						S223.667,222.829,225.055,222.027z"/>
				</g>
				<path id="XMLID_1179_" style="fill:#455A64;" d="M306.984,183.685l-1.278-1.23l1.415-2.995c0.153-0.324,0.015-0.711-0.31-0.864
					c-0.324-0.152-0.71-0.014-0.864,0.31l-1.228,2.6l-0.963-0.927c-0.258-0.248-0.669-0.241-0.917,0.018
					c-0.249,0.258-0.241,0.669,0.018,0.917l1.278,1.23l-1.415,2.996c-0.153,0.324-0.015,0.711,0.31,0.864
					c0.089,0.042,0.184,0.062,0.276,0.062c0.243,0,0.477-0.137,0.587-0.372l1.228-2.6l0.963,0.927
					c0.126,0.121,0.288,0.181,0.45,0.181c0.171,0,0.34-0.066,0.468-0.199C307.25,184.344,307.242,183.934,306.984,183.685z"/>
				<g id="XMLID_1173_">
					<path id="XMLID_1175_" style="fill:#E0E0E0;" d="M245.874,228.038c0,1.408,1.054,1.941,2.354,1.191l52.71-30.432
						c1.3-0.751,2.354-2.501,2.354-3.909c0-1.408-1.054-1.941-2.354-1.191l-52.71,30.432
						C246.928,224.88,245.874,226.63,245.874,228.038z"/>
					<path id="XMLID_1174_" style="fill:#27DEBF;" d="M245.874,228.038c0,1.408,1.054,1.941,2.354,1.191l16.477-9.513
						c1.3-0.751,2.354-2.501,2.354-3.909c0-1.408-1.054-1.941-2.354-1.191l-16.477,9.513
						C246.928,224.88,245.874,226.63,245.874,228.038z"/>
				</g>
				<g id="XMLID_1172_">
					<path id="XMLID_1276_" style="fill:#455A64;" d="M246.637,211.506c0.053-0.03,0.096-0.027,0.134,0.009
						c0.038,0.036,0.057,0.094,0.057,0.173v0.848c0,0.08-0.019,0.16-0.057,0.239c-0.038,0.08-0.081,0.134-0.134,0.165l-0.607,0.351
						c-0.053,0.03-0.096,0.027-0.134-0.01c-0.038-0.036-0.057-0.094-0.057-0.174v-0.848c0-0.08,0.019-0.159,0.057-0.238
						c0.038-0.08,0.081-0.134,0.134-0.165L246.637,211.506z M246.792,218.843c0,0.08-0.019,0.159-0.055,0.238
						c-0.038,0.08-0.083,0.135-0.136,0.165l-0.535,0.31c-0.053,0.03-0.098,0.027-0.136-0.01c-0.036-0.036-0.055-0.094-0.055-0.174
						v-5.067c0-0.08,0.019-0.159,0.055-0.24c0.038-0.079,0.083-0.135,0.136-0.165l0.535-0.31c0.053-0.03,0.098-0.026,0.136,0.01
						c0.036,0.037,0.055,0.095,0.055,0.175V218.843z"/>
					<path id="XMLID_1279_" style="fill:#455A64;" d="M248.685,212.933c0.113-0.276,0.251-0.516,0.41-0.72
						c0.161-0.205,0.327-0.358,0.501-0.458c0.297-0.171,0.539-0.226,0.729-0.165c0.189,0.062,0.336,0.2,0.444,0.412
						c0.062-0.179,0.138-0.354,0.227-0.521c0.089-0.168,0.185-0.321,0.287-0.459c0.1-0.138,0.206-0.258,0.312-0.361
						c0.108-0.102,0.215-0.183,0.319-0.243c0.27-0.155,0.493-0.215,0.671-0.182c0.178,0.035,0.325,0.136,0.435,0.305
						c0.11,0.168,0.187,0.392,0.231,0.675c0.045,0.283,0.068,0.594,0.068,0.935v2.925c0,0.08-0.019,0.159-0.057,0.238
						c-0.036,0.08-0.083,0.135-0.134,0.165l-0.537,0.31c-0.051,0.03-0.096,0.027-0.134-0.009c-0.038-0.036-0.055-0.094-0.055-0.174
						v-2.871c0-0.493-0.062-0.801-0.185-0.927c-0.123-0.125-0.295-0.123-0.516,0.004c-0.187,0.109-0.348,0.297-0.482,0.562
						c-0.134,0.267-0.206,0.637-0.217,1.114v2.925c0,0.08-0.019,0.159-0.055,0.238c-0.038,0.08-0.083,0.135-0.136,0.165l-0.537,0.31
						c-0.051,0.03-0.096,0.027-0.134-0.01c-0.038-0.036-0.055-0.094-0.055-0.174v-2.871c0-0.493-0.062-0.801-0.185-0.927
						c-0.121-0.125-0.293-0.123-0.514,0.004c-0.193,0.111-0.359,0.307-0.495,0.584c-0.138,0.279-0.206,0.661-0.206,1.146v2.871
						c0,0.08-0.017,0.159-0.055,0.238c-0.038,0.08-0.083,0.135-0.134,0.165l-0.537,0.31c-0.053,0.03-0.098,0.027-0.136-0.01
						c-0.036-0.036-0.055-0.094-0.055-0.174v-5.067c0-0.08,0.019-0.159,0.055-0.239c0.038-0.079,0.083-0.135,0.136-0.165l0.537-0.31
						c0.051-0.03,0.096-0.026,0.134,0.01c0.038,0.037,0.055,0.095,0.055,0.175V212.933z"/>
					<path id="XMLID_1281_" style="fill:#455A64;" d="M254.257,210.564c0.019-0.163,0.064-0.352,0.132-0.565
						c0.068-0.214,0.163-0.432,0.289-0.657c0.125-0.223,0.278-0.438,0.459-0.64c0.183-0.202,0.393-0.373,0.633-0.511
						c0.24-0.139,0.457-0.215,0.65-0.229c0.193-0.014,0.359,0.034,0.497,0.143c0.138,0.108,0.246,0.283,0.323,0.526
						c0.074,0.243,0.112,0.55,0.112,0.919v3.197c0,0.08-0.019,0.16-0.057,0.239c-0.038,0.08-0.081,0.134-0.134,0.165l-0.537,0.309
						c-0.051,0.03-0.096,0.027-0.134-0.01c-0.038-0.036-0.057-0.093-0.057-0.173v-0.359c-0.098,0.267-0.24,0.529-0.427,0.784
						c-0.185,0.256-0.423,0.467-0.709,0.633c-0.202,0.117-0.382,0.18-0.544,0.189c-0.161,0.009-0.295-0.031-0.401-0.121
						c-0.11-0.09-0.193-0.22-0.253-0.393c-0.057-0.173-0.087-0.382-0.087-0.629c0-0.5,0.115-0.959,0.346-1.374
						c0.229-0.416,0.539-0.786,0.926-1.111l1.149-0.968c0-0.297-0.064-0.471-0.189-0.521c-0.128-0.05-0.287-0.02-0.474,0.089
						c-0.119,0.068-0.21,0.146-0.276,0.234c-0.066,0.089-0.13,0.195-0.189,0.317c-0.045,0.083-0.083,0.145-0.117,0.186
						c-0.036,0.043-0.074,0.076-0.117,0.1l-0.658,0.379c-0.047,0.027-0.087,0.029-0.119,0.005
						C254.26,210.693,254.249,210.641,254.257,210.564z M255.436,212.95c0.161-0.092,0.304-0.21,0.429-0.351
						c0.125-0.14,0.229-0.294,0.314-0.459c0.085-0.165,0.149-0.332,0.189-0.501c0.042-0.17,0.064-0.331,0.064-0.483v-0.109
						l-0.96,0.816c-0.193,0.162-0.331,0.317-0.416,0.464c-0.085,0.146-0.127,0.304-0.127,0.47c0,0.152,0.051,0.236,0.153,0.249
						C255.181,213.061,255.3,213.028,255.436,212.95z"/>
					<path id="XMLID_1284_" style="fill:#455A64;" d="M259.894,212.66c0.1-0.057,0.2-0.139,0.304-0.247
						c0.104-0.106,0.198-0.235,0.283-0.385c0.085-0.151,0.153-0.319,0.208-0.507c0.053-0.188,0.081-0.386,0.081-0.596v-0.402
						c-0.036,0.087-0.087,0.186-0.149,0.298c-0.059,0.11-0.134,0.225-0.223,0.34c-0.085,0.116-0.187,0.228-0.302,0.339
						c-0.117,0.11-0.246,0.207-0.393,0.291c-0.236,0.136-0.448,0.189-0.639,0.158c-0.189-0.031-0.353-0.126-0.486-0.285
						c-0.136-0.158-0.24-0.369-0.318-0.632c-0.077-0.263-0.121-0.559-0.132-0.887c-0.004-0.106-0.006-0.232-0.006-0.376
						c0-0.146,0.002-0.273,0.006-0.385c0.011-0.339,0.055-0.685,0.132-1.037c0.078-0.353,0.183-0.686,0.318-0.999
						c0.134-0.313,0.297-0.595,0.486-0.847c0.191-0.251,0.404-0.444,0.639-0.58c0.146-0.084,0.276-0.139,0.393-0.161
						c0.115-0.023,0.217-0.028,0.302-0.012c0.089,0.014,0.164,0.042,0.223,0.084c0.062,0.04,0.113,0.082,0.149,0.125v-0.249
						c0-0.08,0.019-0.159,0.057-0.24c0.038-0.079,0.083-0.135,0.134-0.165l0.537-0.31c0.051-0.03,0.096-0.025,0.134,0.01
						c0.036,0.037,0.057,0.095,0.057,0.175v5.099c0,0.877-0.159,1.63-0.478,2.26c-0.318,0.63-0.756,1.106-1.317,1.43
						c-0.24,0.139-0.463,0.218-0.667,0.238c-0.206,0.02-0.384-0.007-0.533-0.084c-0.151-0.076-0.272-0.192-0.361-0.346
						c-0.089-0.156-0.138-0.339-0.149-0.551c-0.004-0.078,0.013-0.156,0.053-0.237c0.04-0.082,0.087-0.137,0.138-0.167l0.48-0.277
						c0.066-0.038,0.121-0.037,0.17,0.005c0.047,0.042,0.087,0.083,0.119,0.122c0.062,0.088,0.146,0.14,0.253,0.159
						C259.501,212.846,259.669,212.79,259.894,212.66z M259.046,208.93c-0.015,0.211-0.015,0.414,0,0.608
						c0.028,0.456,0.123,0.74,0.282,0.854c0.159,0.114,0.355,0.105,0.586-0.028c0.229-0.133,0.425-0.35,0.582-0.652
						c0.157-0.301,0.248-0.655,0.272-1.06c0.011-0.115,0.015-0.254,0.015-0.421s-0.004-0.302-0.015-0.406
						c-0.023-0.362-0.115-0.607-0.272-0.734c-0.157-0.126-0.353-0.123-0.582,0.011c-0.232,0.133-0.427,0.349-0.586,0.647
						C259.169,208.049,259.074,208.443,259.046,208.93z"/>
					<path id="XMLID_1288_" style="fill:#455A64;" d="M262.478,207.253c0-0.407,0.04-0.812,0.121-1.217
						c0.078-0.405,0.193-0.783,0.346-1.134c0.151-0.351,0.331-0.666,0.546-0.941c0.215-0.277,0.454-0.49,0.718-0.642
						c0.263-0.152,0.501-0.216,0.716-0.191c0.215,0.025,0.397,0.118,0.548,0.281c0.151,0.163,0.268,0.39,0.351,0.678
						c0.081,0.29,0.123,0.62,0.123,0.99v0.49c0,0.08-0.019,0.159-0.057,0.238c-0.036,0.08-0.083,0.135-0.134,0.165l-2.357,1.362
						c0,0.167,0.021,0.3,0.066,0.402c0.045,0.101,0.104,0.174,0.18,0.217c0.074,0.044,0.161,0.058,0.261,0.044
						c0.098-0.013,0.2-0.049,0.304-0.109c0.151-0.087,0.274-0.181,0.367-0.283c0.094-0.101,0.172-0.206,0.234-0.314
						c0.051-0.087,0.094-0.152,0.125-0.193c0.034-0.04,0.079-0.077,0.136-0.109l0.565-0.326c0.051-0.03,0.096-0.028,0.136,0.007
						c0.04,0.035,0.06,0.093,0.055,0.175c-0.006,0.105-0.042,0.257-0.11,0.456c-0.068,0.199-0.17,0.414-0.308,0.645
						c-0.136,0.232-0.304,0.458-0.505,0.683c-0.2,0.224-0.431,0.411-0.694,0.564c-0.263,0.152-0.503,0.22-0.718,0.203
						c-0.215-0.018-0.395-0.114-0.546-0.288c-0.153-0.173-0.268-0.417-0.346-0.73C262.519,208.061,262.478,207.688,262.478,207.253z
						 M264.209,204.623c-0.138,0.079-0.253,0.177-0.35,0.294c-0.095,0.117-0.178,0.244-0.242,0.38
						c-0.068,0.136-0.117,0.273-0.153,0.414c-0.036,0.141-0.057,0.267-0.066,0.382l1.595-0.921
						c-0.011-0.104-0.028-0.208-0.053-0.313c-0.025-0.105-0.068-0.189-0.127-0.252c-0.059-0.064-0.136-0.099-0.234-0.105
						C264.483,204.496,264.36,204.536,264.209,204.623z"/>
					<path id="XMLID_1291_" style="fill:#455A64;" d="M266.772,208.253c-0.053,0.03-0.098,0.027-0.136-0.01
						c-0.036-0.036-0.055-0.094-0.055-0.174v-0.718c0-0.08,0.019-0.159,0.055-0.238c0.038-0.08,0.083-0.135,0.136-0.165l4.131-2.385
						c0.051-0.03,0.098-0.027,0.134,0.01c0.038,0.036,0.057,0.094,0.057,0.174v0.718c0,0.08-0.019,0.159-0.057,0.238
						c-0.036,0.08-0.083,0.135-0.134,0.165L266.772,208.253z"/>
					<path id="XMLID_1293_" style="fill:#455A64;" d="M275.212,195.117c0.053-0.03,0.096-0.027,0.134,0.009
						c0.038,0.037,0.057,0.094,0.057,0.173v0.773c0,0.08-0.017,0.164-0.053,0.253c-0.036,0.089-0.07,0.169-0.102,0.238l-1.032,2.27
						c0.212-0.079,0.404-0.108,0.576-0.092c0.172,0.017,0.319,0.082,0.442,0.197c0.123,0.114,0.217,0.278,0.282,0.494
						c0.066,0.216,0.1,0.479,0.1,0.792c0,0.377-0.049,0.74-0.144,1.089c-0.098,0.35-0.232,0.675-0.404,0.977
						c-0.172,0.303-0.374,0.575-0.607,0.819c-0.234,0.243-0.486,0.443-0.76,0.6c-0.329,0.191-0.616,0.296-0.858,0.316
						c-0.242,0.021-0.444-0.016-0.607-0.111c-0.161-0.094-0.285-0.237-0.37-0.427c-0.085-0.19-0.134-0.397-0.149-0.622
						c-0.004-0.083,0.013-0.164,0.053-0.242c0.04-0.077,0.085-0.132,0.138-0.161l0.556-0.322c0.049-0.027,0.087-0.026,0.117,0.004
						c0.032,0.029,0.062,0.078,0.096,0.146c0.03,0.071,0.066,0.131,0.113,0.179c0.047,0.049,0.11,0.082,0.189,0.099
						c0.076,0.017,0.174,0.01,0.291-0.022c0.119-0.032,0.263-0.097,0.431-0.195c0.289-0.166,0.52-0.387,0.697-0.667
						c0.176-0.28,0.266-0.583,0.266-0.909c0-0.326-0.089-0.51-0.266-0.549c-0.176-0.039-0.408,0.024-0.697,0.19l-0.586,0.339
						c-0.051,0.03-0.096,0.026-0.134-0.01c-0.036-0.037-0.055-0.095-0.055-0.174v-0.772c0-0.08,0.017-0.164,0.053-0.254
						c0.034-0.089,0.068-0.168,0.102-0.238l0.988-2.169l-1.947,1.125c-0.053,0.03-0.098,0.027-0.136-0.01
						c-0.036-0.036-0.055-0.093-0.055-0.173v-0.773c0-0.08,0.019-0.159,0.055-0.239c0.038-0.08,0.083-0.134,0.136-0.165
						L275.212,195.117z"/>
				</g>
			</g>
			<g id="XMLID_1227_">
				<g id="XMLID_1233_">
					
						<polygon id="XMLID_1254_" style="fill:none;stroke:#27DEBF;stroke-linecap:round;stroke-linejoin:round;stroke-miterlimit:10;" points="
						204.511,271.042 239.843,250.642 239.843,281.237 204.51,301.636 					"/>
					
						<polyline id="XMLID_1253_" style="fill:none;stroke:#27DEBF;stroke-linecap:round;stroke-linejoin:round;stroke-miterlimit:10;" points="
						204.511,295.522 216.289,272.402 229.038,280.562 					"/>
					
						<polyline id="XMLID_1235_" style="fill:none;stroke:#27DEBF;stroke-linecap:round;stroke-linejoin:round;stroke-miterlimit:10;" points="
						225.225,278.122 231.46,268.584 239.843,273.762 					"/>
					
						<path id="XMLID_1234_" style="fill:none;stroke:#27DEBF;stroke-linecap:round;stroke-linejoin:round;stroke-miterlimit:10;" d="
						M225.055,264.282c1.388-0.801,2.513-0.152,2.513,1.451c0,1.603-1.125,3.551-2.513,4.352c-1.388,0.801-2.513,0.152-2.513-1.451
						C222.542,267.032,223.667,265.083,225.055,264.282z"/>
				</g>
				<path id="XMLID_1232_" style="fill:#455A64;" d="M306.984,225.94l-1.278-1.23l1.415-2.995c0.153-0.324,0.015-0.711-0.31-0.864
					c-0.324-0.152-0.71-0.014-0.864,0.31l-1.228,2.6l-0.963-0.927c-0.258-0.248-0.669-0.241-0.917,0.018
					c-0.249,0.258-0.241,0.669,0.018,0.918l1.278,1.23l-1.415,2.996c-0.153,0.324-0.015,0.711,0.31,0.864
					c0.089,0.042,0.184,0.062,0.276,0.062c0.243,0,0.477-0.137,0.587-0.372l1.228-2.6l0.963,0.927
					c0.126,0.121,0.288,0.181,0.45,0.181c0.171,0,0.34-0.066,0.468-0.199C307.25,226.599,307.242,226.189,306.984,225.94z"/>
				<g id="XMLID_1229_">
					<path id="XMLID_1231_" style="fill:#E0E0E0;" d="M245.874,270.293c0,1.408,1.054,1.941,2.354,1.191l52.71-30.432
						c1.3-0.751,2.354-2.501,2.354-3.909c0-1.408-1.054-1.941-2.354-1.191l-52.71,30.432
						C246.928,267.135,245.874,268.885,245.874,270.293z"/>
					<path id="XMLID_1230_" style="fill:#27DEBF;" d="M245.874,270.293c0,1.408,1.054,1.941,2.354,1.191l45.883-26.49
						c1.3-0.751,2.354-2.501,2.354-3.909c0-1.408-1.054-1.941-2.354-1.191l-45.883,26.49
						C246.928,267.135,245.874,268.885,245.874,270.293z"/>
				</g>
				<g id="XMLID_1228_">
					<path id="XMLID_1211_" style="fill:#455A64;" d="M246.637,253.762c0.053-0.03,0.096-0.027,0.134,0.011
						c0.038,0.035,0.057,0.094,0.057,0.172v0.85c0,0.079-0.019,0.159-0.057,0.238c-0.038,0.081-0.081,0.135-0.134,0.166l-0.607,0.35
						c-0.053,0.03-0.096,0.026-0.134-0.011c-0.038-0.035-0.057-0.094-0.057-0.173v-0.849c0-0.08,0.019-0.159,0.057-0.238
						c0.038-0.081,0.081-0.135,0.134-0.166L246.637,253.762z M246.792,261.099c0,0.08-0.019,0.159-0.055,0.238
						c-0.038,0.081-0.083,0.136-0.136,0.166l-0.535,0.31c-0.053,0.03-0.098,0.027-0.136-0.011c-0.036-0.035-0.055-0.093-0.055-0.173
						v-5.067c0-0.08,0.019-0.159,0.055-0.239c0.038-0.08,0.083-0.136,0.136-0.166l0.535-0.31c0.053-0.03,0.098-0.025,0.136,0.011
						c0.036,0.036,0.055,0.094,0.055,0.174V261.099z"/>
					<path id="XMLID_1215_" style="fill:#455A64;" d="M248.685,255.189c0.113-0.276,0.251-0.516,0.41-0.72
						c0.161-0.205,0.327-0.358,0.501-0.459c0.297-0.171,0.539-0.225,0.729-0.165c0.189,0.063,0.336,0.2,0.444,0.412
						c0.062-0.179,0.138-0.354,0.227-0.521c0.089-0.168,0.185-0.321,0.287-0.459c0.1-0.138,0.206-0.259,0.312-0.361
						c0.108-0.102,0.215-0.183,0.319-0.243c0.27-0.155,0.493-0.215,0.671-0.182c0.178,0.035,0.325,0.136,0.435,0.305
						c0.11,0.168,0.187,0.392,0.231,0.674c0.045,0.284,0.068,0.595,0.068,0.936v2.925c0,0.08-0.019,0.159-0.057,0.238
						c-0.036,0.081-0.083,0.136-0.134,0.166l-0.537,0.31c-0.051,0.03-0.096,0.027-0.134-0.011c-0.038-0.035-0.055-0.093-0.055-0.173
						v-2.871c0-0.493-0.062-0.802-0.185-0.927c-0.123-0.125-0.295-0.123-0.516,0.004c-0.187,0.108-0.348,0.297-0.482,0.562
						c-0.134,0.266-0.206,0.637-0.217,1.114v2.926c0,0.079-0.019,0.159-0.055,0.238c-0.038,0.081-0.083,0.135-0.136,0.165
						l-0.537,0.31c-0.051,0.03-0.096,0.027-0.134-0.01c-0.038-0.036-0.055-0.093-0.055-0.174v-2.871
						c0-0.493-0.062-0.801-0.185-0.926c-0.121-0.125-0.293-0.123-0.514,0.004c-0.193,0.11-0.359,0.306-0.495,0.584
						c-0.138,0.278-0.206,0.66-0.206,1.146v2.871c0,0.08-0.017,0.159-0.055,0.239c-0.038,0.08-0.083,0.134-0.134,0.164l-0.537,0.31
						c-0.053,0.03-0.098,0.028-0.136-0.008c-0.036-0.036-0.055-0.095-0.055-0.174v-5.067c0-0.08,0.019-0.159,0.055-0.24
						c0.038-0.079,0.083-0.134,0.136-0.163l0.537-0.31c0.051-0.03,0.096-0.027,0.134,0.008c0.038,0.037,0.055,0.096,0.055,0.175
						V255.189z"/>
					<path id="XMLID_1220_" style="fill:#455A64;" d="M254.257,252.82c0.019-0.163,0.064-0.352,0.132-0.565
						c0.068-0.213,0.163-0.432,0.289-0.657c0.125-0.223,0.278-0.438,0.459-0.639c0.183-0.202,0.393-0.373,0.633-0.512
						c0.24-0.138,0.457-0.214,0.65-0.228c0.193-0.014,0.359,0.034,0.497,0.143c0.138,0.107,0.246,0.283,0.323,0.525
						c0.074,0.244,0.112,0.55,0.112,0.92v3.197c0,0.08-0.019,0.16-0.057,0.239c-0.038,0.081-0.081,0.134-0.134,0.164l-0.537,0.309
						c-0.051,0.031-0.096,0.028-0.134-0.008c-0.038-0.036-0.057-0.094-0.057-0.174v-0.359c-0.098,0.268-0.24,0.529-0.427,0.784
						c-0.185,0.257-0.423,0.467-0.709,0.633c-0.202,0.117-0.382,0.18-0.544,0.19c-0.161,0.009-0.295-0.031-0.401-0.121
						c-0.11-0.09-0.193-0.22-0.253-0.394c-0.057-0.172-0.087-0.382-0.087-0.629c0-0.499,0.115-0.958,0.346-1.374
						c0.229-0.415,0.539-0.786,0.926-1.111l1.149-0.968c0-0.297-0.064-0.47-0.189-0.52c-0.128-0.05-0.287-0.02-0.474,0.089
						c-0.119,0.068-0.21,0.145-0.276,0.234c-0.066,0.089-0.13,0.195-0.189,0.316c-0.045,0.084-0.083,0.145-0.117,0.187
						c-0.036,0.043-0.074,0.077-0.117,0.1l-0.658,0.38c-0.047,0.026-0.087,0.029-0.119,0.004
						C254.26,252.949,254.249,252.897,254.257,252.82z M255.436,255.206c0.161-0.092,0.304-0.21,0.429-0.351
						c0.125-0.14,0.229-0.295,0.314-0.459c0.085-0.166,0.149-0.332,0.189-0.501c0.042-0.17,0.064-0.331,0.064-0.482v-0.11
						l-0.96,0.816c-0.193,0.163-0.331,0.318-0.416,0.464c-0.085,0.147-0.127,0.304-0.127,0.47c0,0.152,0.051,0.236,0.153,0.249
						C255.181,255.316,255.3,255.284,255.436,255.206z"/>
					<path id="XMLID_1255_" style="fill:#455A64;" d="M259.894,254.916c0.1-0.057,0.2-0.139,0.304-0.247
						c0.104-0.106,0.198-0.235,0.283-0.384c0.085-0.151,0.153-0.319,0.208-0.507c0.053-0.188,0.081-0.385,0.081-0.596v-0.404
						c-0.036,0.087-0.087,0.187-0.149,0.299c-0.059,0.11-0.134,0.224-0.223,0.34c-0.085,0.115-0.187,0.227-0.302,0.338
						c-0.117,0.11-0.246,0.207-0.393,0.291c-0.236,0.136-0.448,0.189-0.639,0.158c-0.189-0.031-0.353-0.126-0.486-0.285
						c-0.136-0.158-0.24-0.368-0.318-0.632c-0.077-0.263-0.121-0.559-0.132-0.887c-0.004-0.105-0.006-0.233-0.006-0.377
						c0-0.144,0.002-0.272,0.006-0.384c0.011-0.339,0.055-0.685,0.132-1.037c0.078-0.354,0.183-0.686,0.318-0.999
						c0.134-0.313,0.297-0.595,0.486-0.847c0.191-0.251,0.404-0.444,0.639-0.58c0.146-0.085,0.276-0.139,0.393-0.161
						c0.115-0.023,0.217-0.028,0.302-0.013c0.089,0.015,0.164,0.042,0.223,0.085c0.062,0.039,0.113,0.082,0.149,0.125v-0.251
						c0-0.079,0.019-0.159,0.057-0.239c0.038-0.08,0.083-0.135,0.134-0.165l0.537-0.31c0.051-0.03,0.096-0.026,0.134,0.009
						c0.036,0.037,0.057,0.094,0.057,0.175v5.099c0,0.877-0.159,1.63-0.478,2.26c-0.318,0.629-0.756,1.105-1.317,1.429
						c-0.24,0.138-0.463,0.219-0.667,0.238c-0.206,0.02-0.384-0.006-0.533-0.083c-0.151-0.076-0.272-0.192-0.361-0.346
						c-0.089-0.156-0.138-0.34-0.149-0.551c-0.004-0.078,0.013-0.156,0.053-0.237c0.04-0.083,0.087-0.138,0.138-0.168l0.48-0.276
						c0.066-0.038,0.121-0.037,0.17,0.004c0.047,0.042,0.087,0.083,0.119,0.122c0.062,0.088,0.146,0.14,0.253,0.158
						C259.501,255.102,259.669,255.047,259.894,254.916z M259.046,251.186c-0.015,0.212-0.015,0.414,0,0.609
						c0.028,0.454,0.123,0.739,0.282,0.854c0.159,0.114,0.355,0.105,0.586-0.028c0.229-0.134,0.425-0.35,0.582-0.652
						c0.157-0.302,0.248-0.656,0.272-1.06c0.011-0.115,0.015-0.255,0.015-0.422c0-0.167-0.004-0.303-0.015-0.407
						c-0.023-0.361-0.115-0.606-0.272-0.733c-0.157-0.127-0.353-0.123-0.582,0.011c-0.232,0.133-0.427,0.348-0.586,0.647
						C259.169,250.305,259.074,250.699,259.046,251.186z"/>
					<path id="XMLID_1268_" style="fill:#455A64;" d="M262.478,249.51c0-0.408,0.04-0.813,0.121-1.218
						c0.078-0.405,0.193-0.783,0.346-1.134c0.151-0.352,0.331-0.666,0.546-0.942c0.215-0.276,0.454-0.49,0.718-0.641
						c0.263-0.153,0.501-0.217,0.716-0.191c0.215,0.025,0.397,0.118,0.548,0.281c0.151,0.163,0.268,0.39,0.351,0.679
						c0.081,0.291,0.123,0.62,0.123,0.99v0.489c0,0.08-0.019,0.159-0.057,0.239c-0.036,0.08-0.083,0.134-0.134,0.163l-2.357,1.362
						c0,0.167,0.021,0.301,0.066,0.402c0.045,0.1,0.104,0.173,0.18,0.217c0.074,0.044,0.161,0.057,0.261,0.045
						c0.098-0.014,0.2-0.05,0.304-0.11c0.151-0.087,0.274-0.18,0.367-0.282c0.094-0.102,0.172-0.206,0.234-0.314
						c0.051-0.087,0.094-0.152,0.125-0.193c0.034-0.04,0.079-0.076,0.136-0.109l0.565-0.326c0.051-0.03,0.096-0.028,0.136,0.007
						c0.04,0.035,0.06,0.092,0.055,0.175c-0.006,0.105-0.042,0.257-0.11,0.456c-0.068,0.199-0.17,0.413-0.308,0.645
						c-0.136,0.231-0.304,0.459-0.505,0.684c-0.2,0.223-0.431,0.411-0.694,0.563c-0.263,0.153-0.503,0.221-0.718,0.204
						c-0.215-0.018-0.395-0.115-0.546-0.289c-0.153-0.173-0.268-0.416-0.346-0.73C262.519,250.317,262.478,249.943,262.478,249.51z
						 M264.209,246.879c-0.138,0.08-0.253,0.177-0.35,0.295c-0.095,0.117-0.178,0.244-0.242,0.379
						c-0.068,0.136-0.117,0.273-0.153,0.413c-0.036,0.141-0.057,0.268-0.066,0.382l1.595-0.922
						c-0.011-0.104-0.028-0.207-0.053-0.312c-0.025-0.105-0.068-0.189-0.127-0.253c-0.059-0.064-0.136-0.098-0.234-0.104
						C264.483,246.751,264.36,246.792,264.209,246.879z"/>
					<path id="XMLID_1271_" style="fill:#455A64;" d="M266.772,250.509c-0.053,0.03-0.098,0.027-0.136-0.01
						c-0.036-0.036-0.055-0.093-0.055-0.174v-0.718c0-0.078,0.019-0.159,0.055-0.238c0.038-0.081,0.083-0.135,0.136-0.165
						l4.131-2.386c0.051-0.03,0.098-0.027,0.134,0.011c0.038,0.035,0.057,0.093,0.057,0.173v0.718c0,0.08-0.019,0.159-0.057,0.239
						c-0.036,0.08-0.083,0.134-0.134,0.163L266.772,250.509z"/>
					<path id="XMLID_1273_" style="fill:#455A64;" d="M274.231,245.551c-0.051,0.03-0.098,0.027-0.134-0.011
						c-0.038-0.035-0.057-0.093-0.057-0.173v-1.317l-2.189,1.265c-0.051,0.03-0.096,0.026-0.134-0.008
						c-0.038-0.037-0.057-0.096-0.057-0.174v-0.773c0-0.102,0.017-0.199,0.047-0.293c0.032-0.093,0.066-0.195,0.108-0.307
						l2.162-5.402c0.096-0.236,0.191-0.382,0.289-0.439l0.537-0.31c0.051-0.03,0.098-0.027,0.134,0.01
						c0.038,0.037,0.057,0.094,0.057,0.174v4.349l0.607-0.352c0.051-0.03,0.098-0.025,0.134,0.011
						c0.038,0.036,0.057,0.094,0.057,0.174v0.772c0,0.08-0.019,0.159-0.057,0.239c-0.036,0.08-0.083,0.134-0.134,0.164l-0.607,0.352
						v1.317c0,0.08-0.019,0.159-0.057,0.239c-0.036,0.08-0.083,0.134-0.134,0.163L274.231,245.551z M274.04,242.692v-2.327
						l-1.208,3.024L274.04,242.692z"/>
				</g>
			</g>
		</g>
	</g>
</g>
<g id="Plants">
	<g id="Plants_2_">
		<path id="XMLID_3119_" style="fill:#37474F;" d="M101.791,398.512l10.702-6.165c0,0,9.732-20.313,5.918-40.479
			c-4.174-22.074-13.611-27.291-19.818-24.796c-6.208,2.495-8.701,10.105-0.154,25.505
			C105.386,365.094,105.472,381.738,101.791,398.512z"/>
		<g id="XMLID_3114_">
			<g id="XMLID_3115_">
				<path id="XMLID_3116_" style="fill:#FFFFFF;" d="M106.934,396.059c0.204,0,0.394-0.13,0.461-0.335
					c6.89-21.098,7.178-50.727-5.861-64.085c-0.187-0.193-0.493-0.196-0.686-0.008c-0.192,0.187-0.195,0.494-0.008,0.686
					c12.308,12.609,12.529,41.988,5.632,63.105c-0.083,0.255,0.056,0.529,0.311,0.612
					C106.834,396.051,106.885,396.059,106.934,396.059z"/>
			</g>
		</g>
		<g id="XMLID_3077_">
			<path id="XMLID_3113_" style="fill:#455A64;" d="M82.57,409.608c-1.108,0.636-3.391-0.755-4.266-1.342
				c-1.497-1.005-2.711-2.427-3.517-4.037c-0.938-1.873-1.174-3.879-0.881-5.951c0.152-1.074,0.453-2.121,0.753-3.164
				c0.294-1.024,0.589-2.048,0.883-3.072c0.29-1.01,0.584-2.055,0.45-3.098c-0.269-2.101-2.134-3.573-3.829-4.842
				c-1.875-1.404-3.827-3.257-3.816-5.786c0.008-1.951,1.019-3.764,2.228-5.295c1.209-1.531,2.645-2.885,3.737-4.501
				c0.787-1.164,1.401-2.531,1.273-3.93c-0.079-0.869-0.44-1.688-0.856-2.455c-0.893-1.647-2.071-3.155-2.687-4.924
				c-0.616-1.769-0.528-3.97,0.852-5.235c1.134-1.039,2.818-1.184,4.352-1.083c1.419,0.094,2.806,0.734,4.048,1.425
				c4.015,2.233,6.307,6.988,10.567,8.706c1.643,0.663,3.444,0.808,5.157,1.261c1.713,0.453,3.46,1.328,4.253,2.912
				c1.564,3.124-1.339,6.974-0.239,10.29c0.973,2.934,3.825,4.057,5.426,6.702c0.7,1.157,0.862,2.494,0.749,3.842
				c-0.191,2.281-0.525,3.955-1.62,6.492c-0.905,2.096-3.563,5.848-3.563,5.848C101.959,398.434,82.739,409.51,82.57,409.608z"/>
			<g id="XMLID_3088_">
				<path id="XMLID_3112_" style="fill:#FFFFFF;" d="M94.047,403.408c0.215,0,0.401-0.16,0.429-0.379
					c2.069-16.392-5.756-38.501-17.441-49.286c-0.176-0.161-0.45-0.152-0.612,0.025c-0.162,0.176-0.152,0.449,0.025,0.611
					c11.504,10.618,19.206,32.393,17.169,48.542c-0.03,0.237,0.138,0.453,0.375,0.483C94.011,403.407,94.029,403.408,94.047,403.408
					z"/>
			</g>
			<g id="XMLID_3084_">
				<path id="XMLID_3085_" style="fill:#FFFFFF;" d="M92.048,382.434c0.132,0,0.262-0.06,0.347-0.174
					c0.144-0.191,0.105-0.463-0.087-0.606c-6.448-4.838-16.302-3.995-16.719-3.957c-0.238,0.022-0.413,0.233-0.392,0.471
					c0.022,0.239,0.239,0.409,0.471,0.392c0.099-0.01,9.94-0.849,16.12,3.787C91.867,382.405,91.958,382.434,92.048,382.434z"/>
			</g>
			<g id="XMLID_3080_">
				<path id="XMLID_3082_" style="fill:#FFFFFF;" d="M91.076,378.413c0.231,0,0.423-0.183,0.433-0.416
					c0.293-7.509,5.965-12.046,6.022-12.09c0.188-0.148,0.22-0.42,0.073-0.608c-0.148-0.188-0.419-0.221-0.607-0.074
					c-0.246,0.193-6.045,4.818-6.354,12.738c-0.009,0.239,0.177,0.44,0.416,0.45C91.065,378.413,91.071,378.413,91.076,378.413z"/>
			</g>
		</g>
	</g>
</g>
<g id="Character">
	<g id="Character_1_">
		<g id="XMLID_15084_">
			<g id="XMLID_10410_">
				<path id="XMLID_522_" style="fill:#FFA8A7;" d="M360.703,174.572c-0.306,5.219-1.413,27.333-1.044,29.538
					c0.654,3.913,12.506,21.439,12.506,21.439s0.746,6.966-8.736,10.083c-2.811-5.02-12.554-19.957-14.545-24.338
					c-0.717-1.577-1.103-4.424-0.8-7.841c0.918-10.344,3.368-25.455,3.634-28.783L360.703,174.572z"/>
				<g id="XMLID_9205_">
					<path id="XMLID_15075_" style="fill:#27DEBF;" d="M374.154,223.605c-0.831-0.761-4.338-3.357-5.546-5.068
						c-3.964-5.616-6.383-9.951-6.383-9.951c-3.996-0.355-10.236,4.906-10.07,10.144c2.203,5.095,6.817,11.583,10.689,17.324
						L374.154,223.605z"/>
				</g>
			</g>
			<g id="XMLID_9202_">
				<polygon id="XMLID_9204_" style="fill:#FFA8A7;" points="397.666,382.297 390.553,382.5 390.204,368.449 397.317,368.246 				
					"/>
				<path id="XMLID_9203_" style="fill:#263238;" d="M390.453,378.99l-0.029-1.017c-0.672,0.316-2.563,5.71-4.829,9.049
					c-1.706,2.514-6.633,5.513-7.347,7.816c-0.742,2.396,4.367,3.561,6.453,3.129c2.423-0.501,6.153-1.625,8.541-4.306
					c1.271-1.427,1.968-4.581,2.795-5.771c0.828-1.19,2.775-2.547,3.202-3.909c0.234-0.748-0.116-2.362-0.514-3.722
					c-0.366-1.248-0.763-2.621-1.189-2.49c0.003,0.153,0.022,0.775,0.022,0.775c-0.5,0.587-1.912,1.196-3.522,1.304
					C392.997,379.918,390.467,379.784,390.453,378.99z"/>
			</g>
			<g id="XMLID_9192_">
				<polygon id="XMLID_9194_" style="fill:#FFA8A7;" points="375.733,370.086 368.632,370.534 367.907,355.783 375.365,355.325 				
					"/>
				<path id="XMLID_9193_" style="fill:#263238;" d="M368.504,367.924c-0.369,0.023-1.196,0.675-1.932,1.568
					c-0.923,1.12-2.195,2.233-4.955,3.936c-2.536,1.564-7.967,3.725-11.083,4.853c-1.51,0.547-2.028,2.699,0.46,4.395
					c2.797,1.906,6.13,1.642,10.489,0.535c2.375-0.603,6.425-3.307,8.599-3.741c1.935-0.387,5.694-0.549,7.481-2.214
					c0.319-2.119,0.25-3.299-0.081-4.629c-0.496-1.996-1.156-5.107-1.816-4.951l0.02,0.692c-0.818,1.32-5.216,1.973-7.122,1.073
					L368.504,367.924z"/>
			</g>
			<g id="XMLID_9186_">
				<path id="XMLID_9191_" style="fill:#455A64;" d="M396.357,273.76c0.194,6.792,0.983,53.72,0.983,53.72
					c0.222,1.95,2.203,5.371,2.55,12.406c0.504,10.203-2.094,34.438-2.094,34.438s-3.395,2.117-7.915,0.383
					c0,0-4.843-33.997-6.407-44.066c-1.447-9.316-1.688-8.631-4.245-32.382l-2.228,20.932c0,0,1.462,5.223,1.205,11.279
					c-0.199,4.684-2.137,33.737-2.137,33.737s-3.283,2.367-8.195,0.863c0,0-4.748-41.19-4.953-45.476
					c-0.234-4.887-0.977-47.62-0.977-47.62L396.357,273.76z"/>
				<path id="XMLID_9189_" style="fill:#37474F;" d="M377.632,289.586c0,0-3.297-0.624-7.634-4.581c0,0,1.209,3.191,5.939,5.615
					l1.695,7.652l-0.419,18.49l2.002-18.505L377.632,289.586z"/>
			</g>
			<g id="XMLID_6612_">
				<path id="XMLID_8426_" style="fill:#F0F0F0;" d="M393.132,227.256c3.646,2.091,4.849,3.381,5.477,4.976
					c0.559,1.421,1.192,1.477,1.192,4.193l-3.821,18.061l0.376,19.274c-10.213,5.383-23.516,6.172-34.412-1.786
					c0,0-0.93-32.116,0.41-37.832c1.326-5.658,4.529-10.803,9.81-11.997c1.923-0.435,16.346,2.72,16.346,2.72
					S390.594,225.8,393.132,227.256z"/>
			</g>
			<g id="XMLID_4815_">
				<g id="XMLID_4836_">
					<circle id="XMLID_5709_" style="fill:#263238;" cx="375.905" cy="199.686" r="9.779"/>
					<path id="XMLID_5695_" style="fill:#263238;" d="M392.809,206.639c0,0-1.585,7.445-2.22,8.668s-1.949,1.571-1.949,1.571
						l0.111-5.237L392.809,206.639z"/>
					<path id="XMLID_5678_" style="fill:#263238;" d="M390.82,195.973c0,0,1.706-0.292,3.037,1.068
						c1.304,1.334,0.576,5.509-1.048,9.597l-2.985,0.343L390.82,195.973z"/>
					<path id="XMLID_5674_" style="fill:#FFA8A7;" d="M388.929,206.984c0.598,0.357,1.452-0.792,2.191-1.565
						c0.738-0.772,3.148-1.827,4.35,0.705c1.225,2.581-1.061,5.992-2.958,6.587c-3.269,1.026-3.76-1.071-3.76-1.071l-0.241,13.224
						l0,0c-4.065,5.211-15.346,4.814-10.646-0.63l0.009-4.703c0,0-2.644,0.22-4.089-0.003c-2.404-0.372-3.848-2.054-4.627-4.642
						c-1.011-3.358-1.528-9.214-0.96-15.776c0.783-9.042,11.57-9.104,17.229-5.542C391.087,197.131,388.929,206.984,388.929,206.984
						z"/>
					<path id="XMLID_4933_" style="fill:#263238;" d="M388.929,207.991c0.301,0.006,1.446-1.894,2.191-2.572
						c1.032-0.939-0.299-9.446-0.299-9.446s0.992-2.114-0.996-4.302c-1.414-1.557-2.952-2.54-7.031-2.757
						c-2.388-0.128-6.207,0.247-8.352,0.392c-4.026,0.272-5.513-0.72-7.826-1.368c-2.33-0.654-2.506,5.64,2.499,8.01
						c0,0,1.455,0.939,5.285,1.405c3.83,0.466,9.795-0.09,10.61-0.201c1.111-0.152,1.348,0.924,1.946,3.865
						C387.481,203.597,387.917,207.971,388.929,207.991z"/>
					<path id="XMLID_4905_" style="fill:#263238;" d="M390.814,196.635l3.619-1.943c-0.514-1.037-1.74-1.443-2.74-0.906
						C390.695,194.323,390.301,195.598,390.814,196.635z"/>
					<path id="XMLID_4837_" style="fill:#F28F8F;" d="M377.874,219.533c0,0,5.367-1.081,7.243-2.079
						c1.256-0.667,2.29-1.825,2.594-2.566c0,0-0.352,1.592-1.474,3.027c-1.372,1.754-8.363,3.046-8.363,3.046L377.874,219.533z"/>
				</g>
				<g id="XMLID_4816_">
					<path id="XMLID_4822_" style="fill:#263238;" d="M378.136,205.642c0,0.617,0.482,1.116,1.076,1.115
						c0.594-0.002,1.076-0.503,1.076-1.121c0-0.617-0.481-1.116-1.076-1.115C378.618,204.524,378.136,205.025,378.136,205.642z"/>
					<path id="XMLID_4821_" style="fill:#263238;" d="M379.277,201.582l2.301,1.27c0.339-0.661,0.099-1.481-0.536-1.832
						C380.406,200.669,379.616,200.921,379.277,201.582z"/>
					<path id="XMLID_4820_" style="fill:#F28F8F;" d="M378.36,213.072l-2.455,0.921c0.243,0.704,0.99,1.068,1.668,0.814
						C378.251,214.552,378.603,213.775,378.36,213.072z"/>
					<path id="XMLID_4819_" style="fill:#263238;" d="M368.858,202.477l2.098-1.616c-0.428-0.601-1.245-0.726-1.824-0.28
						C368.552,201.027,368.43,201.876,368.858,202.477z"/>
					<path id="XMLID_4818_" style="fill:#263238;" d="M369.504,205.336c0,0.617,0.481,1.116,1.076,1.114
						c0.594-0.002,1.076-0.503,1.076-1.12c0-0.617-0.482-1.116-1.076-1.114C369.985,204.217,369.504,204.719,369.504,205.336z"/>
					<polygon id="XMLID_4817_" style="fill:#F28F8F;" points="374.983,204.316 374.63,210.784 371.253,209.633 					"/>
				</g>
			</g>
		</g>
		<g id="XMLID_634_">
			<path id="XMLID_721_" style="fill:#263238;" d="M352.558,68.572v74.621c0,0.786,0.552,1.747,1.235,2.138l74.182,42.856
				c0.678,0.395,1.23,0.073,1.23-0.713v-3.899l-72.703-41.997V69.421l-2.709-1.562C353.109,67.464,352.558,67.781,352.558,68.572z"
				/>
			<g id="XMLID_697_">
				<path id="XMLID_704_" style="fill:#27DEBF;" d="M374.435,100.274c0.078-0.075,0.163-0.136,0.249-0.191l-0.002-0.003l0.024-0.014
					c0.01-0.006,0.02-0.012,0.03-0.018l4.61-2.664v0l0.032-0.019l0.002,0.003c0.697-0.393,1.613-0.201,2.073,0.507l16.379,40.381
					l10.876-7.156c0.071-0.062,0.148-0.11,0.226-0.156l-0.003-0.004l0.049-0.029c0.005-0.003,0.011-0.007,0.017-0.01l4.551-2.629
					l0.004,0.005c0.7-0.426,1.634-0.244,2.106,0.464l15.86,32.157l-0.003,21.336l-4.626,2.673l-71.379-41.228
					c-0.82-0.473-1.326-1.349-1.326-2.296v-20.244L374.435,100.274z"/>
				<path id="XMLID_703_" style="opacity:0.15;" d="M374.435,100.274c0.078-0.075,0.163-0.136,0.249-0.191l-0.002-0.003l0.024-0.014
					c0.01-0.006,0.02-0.012,0.03-0.018l4.61-2.664v0l0.032-0.019l0.002,0.003c0.697-0.393,1.613-0.201,2.073,0.507l16.379,40.381
					l10.876-7.156c0.071-0.062,0.148-0.11,0.226-0.156l-0.003-0.004l0.049-0.029c0.005-0.003,0.011-0.007,0.017-0.01l4.551-2.629
					l0.004,0.005c0.7-0.426,1.634-0.244,2.106,0.464l15.86,32.157l-0.003,21.336l-4.626,2.673l-71.379-41.228
					c-0.82-0.473-1.326-1.349-1.326-2.296v-20.244L374.435,100.274z"/>
				<path id="XMLID_702_" style="fill:#27DEBF;" d="M426.892,184.91l0.001-21.337l-15.86-32.157
					c-0.521-0.782-1.611-0.93-2.321-0.315l-15.22,10.014l-16.664-40.567c-0.534-0.822-1.685-0.954-2.391-0.274l-20.248,20.867
					v20.244c0,0.947,0.505,1.822,1.326,2.296L426.892,184.91z"/>
				<polygon id="XMLID_546_" style="opacity:0.15;" points="393.491,141.115 398.286,152.793 395.243,139.962 				"/>
			</g>
			<g id="XMLID_655_">
				<path id="XMLID_689_" style="fill:#455A64;" d="M349.56,64.179v93.345c0,0.786,0.553,1.743,1.23,2.136l79.496,45.911
					c0.068,0.04,0.137,0.074,0.199,0.097c0.029,0.011,0.057,0.023,0.086,0.034c0.672,0.256,1.589,0.211,2.182-0.131l2.159-1.244
					c0.684-0.393,1.237-1.353,1.237-2.139v-93.346c0-0.393-0.137-0.825-0.36-1.213c-0.228-0.387-0.535-0.724-0.877-0.923
					l-79.49-45.911c-0.684-0.393-1.789-0.393-2.467,0l-2.165,1.248c-0.575,0.336-1.065,1.082-1.19,1.783
					c-0.011,0.046-0.023,0.103-0.029,0.154C349.566,64.042,349.56,64.11,349.56,64.179z M352.556,68.572
					c0-0.792,0.553-1.111,1.236-0.712l74.181,42.856c0.342,0.194,0.65,0.535,0.872,0.923c0.222,0.387,0.359,0.82,0.359,1.213v74.622
					c0,0.786-0.553,1.105-1.23,0.712l-74.181-42.856c-0.684-0.393-1.236-1.35-1.236-2.136V68.572z"/>
				<path id="XMLID_672_" style="fill:#263238;" d="M430.571,205.702c0.673,0.254,1.591,0.21,2.181-0.132l2.16-1.243
					c0.688-0.39,1.237-1.354,1.237-2.139v-93.346c0-0.39-0.136-0.825-0.361-1.211c-1.357,0.781-2.923,1.684-4.627,2.67
					c0.225,0.386,0.361,0.824,0.361,1.22v93.338C431.522,205.531,431.112,205.863,430.571,205.702z"/>
				<path id="XMLID_656_" style="fill:#37474F;" d="M349.56,64.179v93.345c0,0.786,0.553,1.743,1.23,2.136l79.496,45.911
					c0.068,0.04,0.137,0.074,0.199,0.097c0.029,0.011,0.057,0.023,0.086,0.034c0.541,0.16,0.951-0.171,0.951-0.844V111.52
					c0-0.393-0.137-0.832-0.359-1.219c-0.228-0.382-0.536-0.724-0.877-0.917L350.79,63.466c-0.564-0.33-1.042-0.159-1.19,0.359
					c-0.011,0.046-0.023,0.103-0.029,0.154C349.566,64.042,349.56,64.11,349.56,64.179z M352.556,68.572
					c0-0.792,0.553-1.111,1.236-0.712l74.181,42.856c0.342,0.194,0.65,0.535,0.872,0.923c0.222,0.387,0.359,0.82,0.359,1.213v74.622
					c0,0.786-0.553,1.105-1.23,0.712l-74.181-42.856c-0.684-0.393-1.236-1.35-1.236-2.136V68.572z"/>
			</g>
			<g id="XMLID_635_">
				<g id="XMLID_637_">
					<path id="XMLID_654_" style="fill:#27DEBF;" d="M400.171,111.61l-1.796-3.049l3.68-2.139c0,0,0.001-0.001,0.001-0.001
						l0.002-0.001l0,0c0.901-0.518,2.145-0.443,3.518,0.35c2.75,1.588,4.98,5.449,4.98,8.625c0,1.566-0.544,2.67-1.423,3.199
						l0.001,0.002l-0.027,0.016c-0.006,0.004-0.013,0.007-0.019,0.011l-3.566,2.069l-1.714-2.91
						C402.043,116.275,400.647,113.898,400.171,111.61z"/>
					<path id="XMLID_638_" style="opacity:0.15;" d="M400.171,111.61l-1.796-3.049l3.68-2.139c0,0,0.001-0.001,0.001-0.001
						l0.002-0.001l0,0c0.901-0.518,2.145-0.443,3.518,0.35c2.75,1.588,4.98,5.449,4.98,8.625c0,1.566-0.544,2.67-1.423,3.199
						l0.001,0.002l-0.027,0.016c-0.006,0.004-0.013,0.007-0.019,0.011l-3.566,2.069l-1.714-2.91
						C402.043,116.275,400.647,113.898,400.171,111.61z"/>
				</g>
				<path id="XMLID_636_" style="fill:#27DEBF;" d="M401.954,108.874c-2.75-1.588-4.98-0.301-4.98,2.875
					c0,3.175,2.229,7.037,4.979,8.625c2.75,1.588,4.98,0.301,4.98-2.875C406.934,114.323,404.704,110.462,401.954,108.874z"/>
			</g>
		</g>
		<g>
			<g id="XMLID_502_">
				<path id="XMLID_495_" style="fill:#27DEBF;" d="M410.066,228.003c1.032-0.171,2.133,3.099,2.491,5.878
					c0.358,2.779,0.921,7.144-0.408,7.648c-1.329,0.504-3.325-3.299-4.008-6.354C407.457,232.121,407.771,228.152,410.066,228.003z"
					/>
				<path id="XMLID_496_" style="opacity:0.3;" d="M410.066,228.003c1.032-0.171,2.133,3.099,2.491,5.878
					c0.358,2.779,0.921,7.144-0.408,7.648c-1.329,0.504-3.325-3.299-4.008-6.354C407.457,232.121,407.771,228.152,410.066,228.003z"
					/>
			</g>
			<path id="XMLID_531_" style="fill:#FFA8A7;" d="M421.913,201.005l0.005-0.005c-0.468-0.221-1.478-1.249-2.123-5.106
				c-0.435-2.6-0.648-3.724-1.782-4.11c-1.198-0.408-0.772,0.854-1.107,3.891c-0.314,2.85-1.104,6.83-0.716,10.026
				c0.243,3.395-0.053,6.365-0.796,11.328c-0.632,4.226-2.378,10.456-2.378,10.456c-1.336,1.438-18.777,4.594-18.777,4.594
				c-3.638,6.716,1.031,13.667,1.031,13.667c11.049-3.174,15.287-4.897,20.853-6.738c4.078-1.349,5.242-2.066,5.856-4.902
				c1.446-6.675,2.02-16.891,2.53-21.928c0.406-3.545,4.325-4.733,5.027-6.705L421.913,201.005z"/>
			<path id="XMLID_486_" style="fill:#27DEBF;" d="M395.509,229.199c-0.918,0.195-2.514,1.276-3.138,2.996
				c-0.53,1.461-2.51,12.893,4.128,14.563c0.617-0.081,3.689-1.298,7.952-2.505c4.217-1.195,7.697-2.723,7.697-2.723
				c-2.573-0.374-4.948-11.723-2.083-13.526L395.509,229.199z"/>
		</g>
		<path id="XMLID_494_" style="fill:#FFA8A7;" d="M365.465,168.454c-0.925-0.569,0-3.232,0.196-6.093
			c0.209-3.048,0.852-4.214-0.4-4.025c-1.184,0.179-1.593,1.247-2.482,3.729c-0.684,1.909-1.328,3.048-1.861,3.725l-5.398-3.164
			c-1.63,1.876-3.116,2.976-3.395,6.27c-0.484,5.724-0.554,7.129-1.116,11.63c-0.562,4.501,9.642-5.039,9.642-5.039
			c0.406-3.545,4.63-4.756,5.332-6.728L365.465,168.454L365.465,168.454z"/>
	</g>
</g>
</svg>
