<?xml version="1.0" encoding="utf-8"?>
<!-- Generator: Adobe Illustrator 27.5.0, SVG Export Plug-In . SVG Version: 6.00 Build 0)  -->
<svg version="1.1" xmlns="http://www.w3.org/2000/svg" xmlns:xlink="http://www.w3.org/1999/xlink" x="0px" y="0px"
	 viewBox="0 0 500 500" style="enable-background:new 0 0 500 500;" xml:space="preserve">
<g id="Floor">
	<ellipse id="Floor_1_" style="fill:#F0F0F0;" cx="249.806" cy="342.079" rx="243.237" ry="140.433"/>
</g>
<g id="Shadows">
	<ellipse id="Shadow_12_" style="fill:#E0E0E0;" cx="374.408" cy="378.932" rx="71.611" ry="41.345"/>
	<path id="Shadow_2_" style="fill:#E0E0E0;" d="M110.618,399.14l-16.373-9.453c-1.225-0.707-3.211-0.707-4.437,0l-12.211,7.05
		c-1.225,0.707-3.212,0.707-4.437,0l-41.345-23.871c-1.225-0.707-1.225-1.854,0-2.561l137.069-79.138
		c1.225-0.707,3.211-0.707,4.437,0l41.346,23.871c1.225,0.707,1.23,1.862,0.01,2.579l-12.231,7.189
		c-1.22,0.717-1.212,1.865,0.018,2.565l16.357,9.308c1.229,0.7,1.233,1.84,0.008,2.548L115.055,399.14
		C113.829,399.847,111.843,399.847,110.618,399.14z"/>
</g>
<g id="Clouds">
	<g id="Clouds_2_">
		<g id="XMLID_356_">
			<path id="XMLID_357_" style="fill:#F0F0F0;" d="M417.897,60.661l7.273,4.199c-0.036-0.325-0.061-0.647-0.061-0.963V61.79
				c0-3.75,2.632-5.269,5.879-3.395c1.315,0.759,2.525,1.962,3.504,3.37c0.532-4.715,4.231-6.471,8.724-3.877
				c4.858,2.805,8.796,9.626,8.796,15.236v3.152c0,1.453-0.269,2.677-0.745,3.652l6.041,3.488c1.801,1.04,3.261,3.569,3.261,5.649
				c0,2.08-1.46,2.923-3.261,1.883l-39.412-22.754c-1.801-1.04-3.261-3.569-3.261-5.649
				C414.635,60.464,416.096,59.621,417.897,60.661z"/>
		</g>
		<g id="XMLID_347_">
			<path id="XMLID_355_" style="fill:#F0F0F0;" d="M368.774,70.101l4.012,1.543v-8.838c0-7.006,5.589-8.686,11.656-5.183l0,0
				c6.068,3.503,10.986,12.023,10.986,19.029v1.283c1.377-0.549,3.154-0.336,5.098,0.786l0,0c4.366,2.521,7.906,8.652,7.906,13.693
				v0.583l5.594,3.23c2.875,1.66,5.206,5.697,5.206,9.018c0,3.32-2.331,4.666-5.206,3.006l-45.253-26.127
				c-2.875-1.66-5.206-5.697-5.206-9.018C363.567,69.787,365.898,68.441,368.774,70.101z"/>
		</g>
	</g>
</g>
<g id="Plants">
	<g id="Plants_8_">
		<g id="XMLID_1229_">
			<g id="XMLID_1988_">
				<path id="XMLID_1989_" style="fill:#27DEBF;" d="M432.024,260.118l-8.033-4.641c0,0-4.781-19.864-2.875-37.738
					c2.678-25.13,19.22-34.586,25.51-32.419c6.29,2.167,8.112,9.48-2.296,24.447C438.19,218.597,430.646,236.99,432.024,260.118z"/>
			</g>
			<g id="XMLID_1979_" style="opacity:0.15;">
				<path id="XMLID_1981_" d="M432.024,260.118l-8.033-4.641c0,0-4.781-19.864-2.875-37.738c2.678-25.13,19.22-34.586,25.51-32.419
					c6.29,2.167,8.112,9.48-2.296,24.447C438.19,218.597,430.646,236.99,432.024,260.118z"/>
			</g>
			<g id="XMLID_1877_">
				<path id="XMLID_1878_" style="fill:#FFFFFF;" d="M428.696,250.359c0.026-0.001,0.051-0.005,0.077-0.009
					c0.302-0.058,0.501-0.349,0.443-0.651c-4.403-23.179,3.694-49.225,13.721-60.063c0.209-0.225,0.195-0.579-0.031-0.787
					c-0.226-0.206-0.579-0.195-0.787,0.031c-10.209,11.036-18.465,37.507-13.997,61.027
					C428.173,250.182,428.423,250.372,428.696,250.359z"/>
			</g>
		</g>
		<g id="XMLID_992_">
			<g id="XMLID_1104_">
				<path id="XMLID_1228_" style="fill:#27DEBF;" d="M453.066,272.269c1.269,0.646,4.643-2.243,5.584-2.945
					c1.61-1.202,2.881-2.854,3.688-4.69c0.939-2.137,1.089-4.384,0.646-6.673c-0.23-1.187-0.623-2.336-1.015-3.48
					c-0.385-1.123-0.77-2.246-1.155-3.369c-0.38-1.108-0.765-2.255-0.675-3.423c0.181-2.353,2.174-4.096,3.99-5.604
					c2.008-1.668,4.077-3.84,3.923-6.654c-0.119-2.171-1.345-4.132-2.777-5.769c-1.432-1.637-3.105-3.062-4.413-4.8
					c-0.941-1.251-1.701-2.738-1.637-4.303c0.04-0.972,0.395-1.904,0.815-2.781c0.902-1.883,2.128-3.628,2.715-5.632
					c0.586-2.004,0.365-4.448-1.243-5.779c-1.32-1.093-3.202-1.16-4.904-0.961c-1.574,0.184-3.082,0.975-4.425,1.813
					c-4.344,2.71-6.627,8.132-11.273,10.283c-1.792,0.83-3.788,1.092-5.669,1.692c-1.881,0.6-3.776,1.672-4.57,3.48
					c-1.566,3.565,1.881,7.687,0.844,11.439c-0.918,3.321-4.029,4.731-5.663,7.764c-0.715,1.327-0.819,2.824-0.618,4.318
					c0.341,2.528,0.807,4.372,2.167,7.134c1.125,2.282,4.291,6.596,4.291,6.596S452.871,272.17,453.066,272.269z"/>
			</g>
			<g id="XMLID_1014_">
				<path id="XMLID_1015_" style="fill:#FFFFFF;" d="M440.771,265.861c0.008,0,0.015-0.001,0.015-0.001
					c0.314-0.029,0.539-0.301,0.512-0.607c-2.034-22.046,7.146-46.962,14.358-54.43c0.213-0.221,0.208-0.574-0.014-0.788
					c-0.222-0.213-0.574-0.206-0.788,0.014c-7.357,7.618-16.728,32.949-14.667,55.306
					C440.215,265.655,440.474,265.876,440.771,265.861z"/>
			</g>
			<g id="XMLID_1004_">
				<path id="XMLID_1011_" style="fill:#FFFFFF;" d="M442.961,238.678c0.054-0.003,0.109-0.013,0.163-0.033
					c6.987-2.552,15.815-3.385,15.902-3.393c0.307-0.029,0.532-0.3,0.504-0.606c-0.029-0.306-0.273-0.536-0.606-0.504
					c-0.09,0.009-9.057,0.854-16.182,3.457c-0.289,0.105-0.438,0.425-0.332,0.714C442.495,238.548,442.722,238.69,442.961,238.678z"
					/>
			</g>
		</g>
	</g>
</g>
<g id="Device">
	<g id="Decvice_1_">
		<g id="Device_2_">
			<g>
				<path id="XMLID_1230_" style="fill:#27DEBF;" d="M196.046,50.932L83.732,115.777c-2.091,1.215-3.793,4.162-3.793,6.582v264.526
					c0,2.42,1.703,3.405,3.793,2.191l112.314-64.845c2.091-1.215,3.794-4.162,3.794-6.582V53.123
					C199.839,50.703,198.137,49.718,196.046,50.932z M194.373,299.58c0,2.071-1.454,3.391-3.256,4.427L88.282,363.385
					c-1.792,1.036-3.256,0.199-3.256-1.882V142.237l0,0c0-2.316,1.235-4.457,3.241-5.615l102.847-59.408
					c1.448-0.837,3.259,0.209,3.259,1.881l0,0V299.58z"/>
			</g>
			<g style="opacity:0.3;">
				<path id="XMLID_600_" d="M196.046,50.932L83.732,115.777c-2.091,1.215-3.793,4.162-3.793,6.582v264.526
					c0,2.42,1.703,3.405,3.793,2.191l112.314-64.845c2.091-1.215,3.794-4.162,3.794-6.582V53.123
					C199.839,50.703,198.137,49.718,196.046,50.932z M194.373,299.58c0,2.071-1.454,3.391-3.256,4.427L88.282,363.385
					c-1.792,1.036-3.256,0.199-3.256-1.882V142.237l0,0c0-2.316,1.235-4.457,3.241-5.615l102.847-59.408
					c1.448-0.837,3.259,0.209,3.259,1.881l0,0V299.58z"/>
			</g>
			<path id="XMLID_261_" style="fill:#27DEBF;" d="M194.373,299.58c0,2.071-1.454,3.391-3.256,4.427L88.282,363.385
				c-1.792,1.036-3.256,0.199-3.256-1.882V142.237l0,0c0-2.316,1.235-4.457,3.241-5.615l102.847-59.408
				c1.448-0.837,3.259,0.209,3.259,1.881l0,0V299.58z"/>
			<path id="XMLID_398_" style="fill:#27DEBF;" d="M194.373,299.58c0,2.071-1.454,3.391-3.256,4.427L88.282,363.385
				c-1.792,1.036-3.256,0.199-3.256-1.882V142.237l0,0c0-2.316,1.235-4.457,3.241-5.615l102.847-59.408
				c1.448-0.837,3.259,0.209,3.259,1.881l0,0V299.58z"/>
			<path id="XMLID_603_" style="opacity:0.5;" d="M194.373,299.58c0,2.071-1.454,3.391-3.256,4.427L88.282,363.385
				c-1.792,1.036-3.256,0.199-3.256-1.882V142.237l0,0c0-2.316,1.235-4.457,3.241-5.615l102.847-59.408
				c1.448-0.837,3.259,0.209,3.259,1.881l0,0V299.58z"/>
			<path style="fill:#27DEBF;" d="M88.282,363.385l102.835-59.378c0.734-0.422,1.402-0.895,1.946-1.442L85.026,240.19v121.313
				C85.026,363.584,86.49,364.421,88.282,363.385z"/>
			<path style="opacity:0.4;" d="M88.282,363.385l102.835-59.378c0.734-0.422,1.402-0.895,1.946-1.442L85.026,240.19v121.313
				C85.026,363.584,86.49,364.421,88.282,363.385z"/>
			<path style="fill:#455A64;" d="M186.049,292.874V80.14l-97.782,56.482c-2.006,1.159-3.241,3.299-3.241,5.615v211.516
				l97.767-56.452C184.595,296.265,186.049,294.945,186.049,292.874z"/>
			<g>
				<path id="XMLID_1226_" style="fill:#27DEBF;" d="M83.259,389.314c-2.106,0.968-5.172,0.884-7.128-0.235l-4.344-2.511
					c-2.106-1.213-3.808-4.147-3.808-6.582v-264.51c0-0.921,0.244-1.899,0.658-2.84c0.132-0.31,0.282-0.611,0.451-0.912
					c0.009,0,0.009-0.009,0.009-0.009l11.951,6.902h0.009c-0.254,0.451-0.48,0.922-0.658,1.392c-0.292,0.79-0.461,1.598-0.461,2.351
					v264.529C79.939,389.116,81.388,390.132,83.259,389.314z"/>
			</g>
			<g style="opacity:0.5;">
				<path id="XMLID_921_" d="M83.259,389.314c-2.106,0.968-5.172,0.884-7.128-0.235l-4.344-2.511
					c-2.106-1.213-3.808-4.147-3.808-6.582v-264.51c0-0.921,0.244-1.899,0.658-2.84c0.132-0.31,0.282-0.611,0.451-0.912
					c0.009,0,0.009-0.009,0.009-0.009l11.951,6.902h0.009c-0.254,0.451-0.48,0.922-0.658,1.392c-0.292,0.79-0.461,1.598-0.461,2.351
					v264.529C79.939,389.116,81.388,390.132,83.259,389.314z"/>
			</g>
			<path id="XMLID_1223_" style="fill:#263238;" d="M142.378,339.308L142.378,339.308c1.943,0,2.153,2.179,2.153,3.116
				c0,3.388-2.479,7.682-5.413,9.377c-0.751,0.434-1.476,0.663-2.096,0.663c-1.943,0-2.153-2.179-2.153-3.116
				c0-3.389,2.479-7.683,5.414-9.377C141.033,339.537,141.758,339.308,142.378,339.308 M142.377,338.143
				c-0.806,0-1.716,0.263-2.678,0.819c-3.312,1.912-5.996,6.562-5.996,10.385c0,2.713,1.35,4.281,3.318,4.281
				c0.806,0,1.716-0.263,2.678-0.819c3.312-1.912,5.996-6.561,5.996-10.385C145.695,339.711,144.345,338.143,142.377,338.143
				L142.377,338.143z"/>
			<g id="XMLID_1204_">
				<path id="XMLID_1222_" d="M139.805,87.261c1.406-0.812,2.546-0.153,2.546,1.47c0,1.624-1.14,3.598-2.546,4.41
					c-1.406,0.812-2.546,0.154-2.546-1.47C137.259,90.048,138.399,88.073,139.805,87.261z"/>
				<path id="XMLID_1205_" d="M126.123,103.006l27.532-15.904c1.173-0.677,2.124-0.196,2.124,1.074c0,1.271-0.951,2.849-2.123,3.526
					l-27.533,15.904c-1.173,0.677-2.123,0.196-2.123-1.074C123.999,105.262,124.95,103.683,126.123,103.006z"/>
			</g>
			<g>
				<path id="XMLID_1203_" style="fill:#27DEBF;" d="M199.802,52.52c-0.273-1.975-1.853-2.689-3.752-1.589L83.729,115.777
					c-1.044,0.602-1.993,1.646-2.68,2.84l-11.951-6.902c0.696-1.194,1.636-2.219,2.689-2.821L184.09,44.038
					c2.088-1.213,5.491-1.213,7.598,0l4.363,2.501C197.969,47.659,199.558,50.226,199.802,52.52z"/>
			</g>
			<g style="opacity:0.4;">
				<path id="XMLID_920_" d="M199.802,52.52c-0.273-1.975-1.853-2.689-3.752-1.589L83.729,115.777
					c-1.044,0.602-1.993,1.646-2.68,2.84l-11.951-6.902c0.696-1.194,1.636-2.219,2.689-2.821L184.09,44.038
					c2.088-1.213,5.491-1.213,7.598,0l4.363,2.501C197.969,47.659,199.558,50.226,199.802,52.52z"/>
			</g>
		</g>
	</g>
</g>
<g id="Screen">
	<g>
		<g>
			<polygon style="fill:#E0E0E0;" points="214.853,91.709 105.506,154.758 105.506,381.543 111.699,385.086 221.045,321.939 
				221.045,95.252 			"/>
			<g id="XMLID_266_">
				<path style="fill:#FAFAFA;" d="M113.502,383.167c-0.835,0-1.334-0.694-1.334-1.857V162.044c0-2.142,1.152-4.138,3.007-5.209
					l102.846-59.408c0.266-0.154,0.552-0.232,0.849-0.232c0.821,0,1.707,0.652,1.707,1.707v220.485c0,1.58-0.931,2.819-3.021,4.02
					L114.72,382.786C114.289,383.035,113.868,383.167,113.502,383.167z"/>
				<path style="fill:#E0E0E0;" d="M218.87,97.664c0.595,0,1.237,0.473,1.237,1.238v220.485c0,1.392-0.859,2.507-2.787,3.614
					L114.485,382.38c-0.36,0.208-0.7,0.318-0.983,0.318c-0.753,0-0.866-0.87-0.866-1.388V162.044c0-1.975,1.062-3.815,2.772-4.803
					l102.847-59.408C218.45,97.721,218.656,97.664,218.87,97.664 M218.87,96.726c-0.362,0-0.733,0.092-1.083,0.295L114.94,156.429
					c-2.006,1.158-3.241,3.299-3.241,5.615V381.31c0,1.476,0.736,2.326,1.804,2.326c0.438,0,0.931-0.143,1.452-0.444l102.835-59.378
					c1.802-1.035,3.256-2.356,3.256-4.427V98.902C221.045,97.634,220.004,96.726,218.87,96.726L218.87,96.726z"/>
			</g>
			<path style="fill:#455A64;" d="M217.786,97.021l-106.088,61.28v23.874l109.347-63.131V95.252
				C221.045,95.252,219.235,96.184,217.786,97.021z"/>
			<path style="fill:#455A64;" d="M111.699,362.631v22.455l109.347-63.147c0,0,0-0.481,0-2.552V299.5L111.699,362.631z"/>
			<polygon style="fill:#263238;" points="105.506,178.632 111.699,182.175 111.699,158.301 105.506,154.758 			"/>
			<polygon style="fill:#37474F;" points="221.045,95.252 214.853,91.709 105.506,154.758 111.699,158.301 			"/>
			<polygon style="fill:#263238;" points="111.699,362.603 105.506,359.06 105.506,381.543 111.699,385.086 			"/>
		</g>
		<g>
			<g id="XMLID_592_">
				<path id="XMLID_596_" style="fill:#FAFAFA;" d="M127.045,156.292c-0.017-0.02-0.027-0.063-0.027-0.129v-0.633l-0.989,0.572
					c-0.054,0.031-0.081,0.002-0.081-0.088v-0.227c0-0.051,0.003-0.093,0.009-0.125c0.007-0.031,0.018-0.072,0.035-0.122
					l1.052-2.872c0.019-0.052,0.036-0.089,0.05-0.112c0.014-0.024,0.037-0.045,0.068-0.062l0.138-0.079
					c0.042-0.025,0.071-0.026,0.091-0.003c0.018,0.022,0.028,0.069,0.028,0.139v2.209l0.218-0.126
					c0.042-0.024,0.071-0.026,0.087-0.004c0.017,0.023,0.025,0.069,0.025,0.139v0.151c0,0.067-0.008,0.119-0.025,0.158
					c-0.016,0.039-0.045,0.071-0.087,0.095l-0.218,0.127v0.632c0,0.067-0.009,0.12-0.027,0.16c-0.018,0.039-0.049,0.072-0.092,0.098
					l-0.166,0.095C127.092,156.309,127.063,156.312,127.045,156.292z M127.084,154.954v-1.576l-0.718,1.99L127.084,154.954z"/>
				<path id="XMLID_594_" style="fill:#FAFAFA;" d="M128.22,155.231c-0.194-0.229-0.291-0.66-0.291-1.292
					c0-0.629,0.097-1.171,0.292-1.626c0.195-0.455,0.468-0.783,0.819-0.986c0.142-0.082,0.274-0.133,0.397-0.151
					c0.123-0.02,0.225-0.005,0.306,0.045c0.019,0.011,0.028,0.03,0.028,0.056c0,0.018-0.004,0.043-0.012,0.073l-0.09,0.33
					c-0.013,0.04-0.025,0.065-0.038,0.073c-0.007,0.003-0.02,0.002-0.041-0.004c-0.142-0.059-0.31-0.032-0.506,0.081
					c-0.237,0.137-0.424,0.363-0.559,0.68c-0.135,0.318-0.203,0.718-0.203,1.203c0,0.489,0.066,0.814,0.197,0.974
					c0.131,0.161,0.311,0.175,0.54,0.044c0.083-0.048,0.164-0.106,0.243-0.177c0.079-0.07,0.144-0.141,0.194-0.214v-1.027
					l-0.412,0.238c-0.042,0.025-0.071,0.026-0.087,0.004c-0.017-0.022-0.025-0.067-0.025-0.138v-0.144
					c0-0.07,0.008-0.124,0.025-0.161c0.016-0.038,0.045-0.068,0.087-0.093l0.659-0.38c0.046-0.026,0.079-0.025,0.098,0.002
					c0.02,0.027,0.03,0.082,0.03,0.163v1.465c0,0.055-0.003,0.099-0.01,0.13c-0.006,0.032-0.02,0.064-0.04,0.099
					c-0.191,0.325-0.452,0.582-0.781,0.773C128.687,155.471,128.413,155.46,128.22,155.231z"/>
			</g>
			<g id="XMLID_488_">
				<path id="XMLID_496_" style="fill:#FAFAFA;" d="M216.367,100.839c-0.112-0.164-0.25-0.208-0.392-0.126l-3.943,2.267
					c-0.256,0.147-0.456,0.673-0.456,1.197v2.216c0,0.292,0.061,0.543,0.172,0.707c0.047,0.07,0.101,0.119,0.159,0.145
					c0.075,0.034,0.153,0.027,0.233-0.019l3.943-2.267c0.256-0.148,0.456-0.673,0.456-1.198v-2.216
					C216.538,101.254,216.478,101.003,216.367,100.839z M211.855,106.815c-0.04-0.059-0.063-0.178-0.063-0.324v-2.216
					c0-0.386,0.159-0.804,0.347-0.912l3.943-2.268c0.046-0.026,0.089-0.032,0.125-0.016c0.02,0.009,0.036,0.023,0.051,0.045
					c0.04,0.059,0.063,0.178,0.063,0.323v2.216c0,0.387-0.159,0.805-0.347,0.913l-3.943,2.268
					C211.96,106.887,211.897,106.876,211.855,106.815z"/>
				<g id="XMLID_494_">
					<path id="XMLID_495_" style="fill:#FAFAFA;" d="M215.899,101.768v1.888c0,0.35-0.187,0.674-0.491,0.848l-3.21,1.84
						c-0.053,0.031-0.12-0.008-0.12-0.069v-1.95c0-0.282,0.124-0.601,0.258-0.678l3.416-1.963
						C215.817,101.646,215.899,101.693,215.899,101.768z"/>
				</g>
				<g id="XMLID_490_">
					<path id="XMLID_493_" style="fill:#FAFAFA;" d="M216.686,101.475c0.109-0.065,0.198,0.252,0.198,0.707v0.412
						c0,0.455-0.09,0.884-0.2,0.959l-0.2,0.135l0.005-2.096C216.488,101.592,216.576,101.54,216.686,101.475z"/>
				</g>
			</g>
			<g id="XMLID_373_">
				<g id="XMLID_439_">
					<path id="XMLID_486_" style="fill:#FAFAFA;" d="M136.559,150.184c0,0.488-0.257,1.033-0.574,1.216
						c-0.317,0.183-0.574-0.064-0.574-0.552c0-0.488,0.257-1.033,0.574-1.216C136.302,149.448,136.559,149.695,136.559,150.184z"/>
				</g>
				<g id="XMLID_435_">
					<g id="XMLID_436_">
						<path id="XMLID_437_" style="fill:#FAFAFA;" d="M135.984,148.184c-0.578,0.334-1.081,1.124-1.336,2.004
							c-0.052,0.179-0.025,0.349,0.061,0.403l0.001,0.001c0.109,0.068,0.27-0.073,0.334-0.299c0.178-0.623,0.533-1.18,0.94-1.415
							c0.408-0.235,0.762-0.087,0.94,0.33c0.064,0.152,0.226,0.108,0.335-0.088l0.001-0.002c0.086-0.154,0.112-0.353,0.06-0.472
							C137.066,148.06,136.563,147.85,135.984,148.184z"/>
					</g>
				</g>
				<g id="XMLID_418_">
					<g id="XMLID_420_">
						<path id="XMLID_433_" style="fill:#FAFAFA;" d="M135.984,146.769c-0.86,0.497-1.617,1.626-2.05,2.918
							c-0.064,0.19-0.046,0.382,0.047,0.441l0.002,0.001c0.105,0.067,0.257-0.064,0.329-0.28c0.351-1.056,0.969-1.98,1.672-2.386
							c0.703-0.406,1.323-0.197,1.674,0.454c0.072,0.133,0.224,0.089,0.329-0.1l0,0c0.093-0.166,0.111-0.378,0.048-0.495
							C137.606,146.528,136.846,146.271,135.984,146.769z"/>
					</g>
				</g>
			</g>
			<g>
				<path style="fill:#FAFAFA;" d="M161.491,133.98c-0.018-0.025-0.025-0.059-0.021-0.105c0.004-0.045,0.017-0.088,0.04-0.128
					l0.824-1.476c0.021-0.035,0.041-0.069,0.063-0.103c0.022-0.034,0.045-0.058,0.07-0.073l0.296-0.171
					c0.028-0.016,0.052-0.014,0.072,0.005c0.02,0.019,0.03,0.05,0.03,0.094v3.779c0,0.042-0.01,0.086-0.03,0.128
					c-0.021,0.043-0.044,0.072-0.072,0.089l-0.308,0.178c-0.028,0.016-0.051,0.015-0.072-0.005c-0.02-0.019-0.031-0.05-0.031-0.093
					v-2.889l-0.539,0.961c-0.022,0.04-0.047,0.065-0.074,0.075c-0.026,0.01-0.05,0.002-0.07-0.021L161.491,133.98z"/>
				<path style="fill:#FAFAFA;" d="M163.413,132.87c-0.018-0.024-0.025-0.059-0.021-0.105c0.003-0.044,0.016-0.087,0.039-0.128
					l0.825-1.476c0.02-0.035,0.041-0.07,0.063-0.104c0.021-0.033,0.045-0.058,0.07-0.072l0.296-0.171
					c0.028-0.016,0.052-0.015,0.073,0.005c0.02,0.02,0.03,0.051,0.03,0.093v3.779c0,0.043-0.01,0.086-0.03,0.128
					c-0.021,0.043-0.045,0.073-0.073,0.089l-0.307,0.178c-0.029,0.016-0.052,0.014-0.072-0.005c-0.02-0.019-0.03-0.05-0.03-0.093
					v-2.889l-0.539,0.961c-0.023,0.04-0.048,0.065-0.074,0.075c-0.027,0.01-0.05,0.003-0.07-0.021L163.413,132.87z"/>
				<path style="fill:#FAFAFA;" d="M165.935,131.251c0.028-0.017,0.052-0.014,0.073,0.005c0.02,0.02,0.03,0.051,0.03,0.094v0.573
					c0,0.043-0.01,0.086-0.03,0.129c-0.021,0.044-0.045,0.072-0.073,0.089l-0.353,0.204c-0.028,0.016-0.052,0.015-0.073-0.005
					c-0.02-0.019-0.03-0.051-0.03-0.093v-0.573c0-0.043,0.01-0.086,0.03-0.129c0.021-0.042,0.045-0.072,0.073-0.088L165.935,131.251
					z M165.935,133.298c0.028-0.016,0.052-0.014,0.073,0.005c0.02,0.02,0.03,0.051,0.03,0.094v0.573c0,0.043-0.01,0.086-0.03,0.128
					c-0.021,0.043-0.045,0.072-0.073,0.089l-0.353,0.204c-0.028,0.016-0.052,0.015-0.073-0.005c-0.02-0.019-0.03-0.051-0.03-0.093
					v-0.574c0-0.043,0.01-0.086,0.03-0.129c0.021-0.042,0.045-0.072,0.073-0.088L165.935,133.298z"/>
				<path style="fill:#FAFAFA;" d="M167.964,133.015c-0.028,0.016-0.052,0.015-0.073-0.005c-0.02-0.019-0.03-0.051-0.03-0.093
					v-0.708l-1.178,0.68c-0.028,0.016-0.052,0.015-0.072-0.005c-0.021-0.019-0.031-0.051-0.031-0.094v-0.415
					c0-0.055,0.008-0.107,0.025-0.158c0.017-0.051,0.037-0.106,0.059-0.165l1.163-2.906c0.051-0.127,0.103-0.206,0.155-0.236
					l0.289-0.167c0.028-0.016,0.052-0.014,0.073,0.005c0.02,0.02,0.03,0.05,0.03,0.094v2.339l0.327-0.189
					c0.027-0.016,0.052-0.014,0.072,0.005c0.021,0.019,0.03,0.051,0.03,0.094v0.416c0,0.042-0.01,0.086-0.03,0.128
					c-0.02,0.043-0.045,0.072-0.072,0.088l-0.327,0.189v0.708c0,0.042-0.01,0.086-0.03,0.128c-0.021,0.043-0.045,0.072-0.073,0.089
					L167.964,133.015z M167.861,131.477v-1.252l-0.65,1.627L167.861,131.477z"/>
				<path style="fill:#FAFAFA;" d="M169.49,128.197c0-0.043,0.01-0.085,0.031-0.128c0.02-0.043,0.044-0.072,0.072-0.089l1.428-0.824
					c0.029-0.017,0.052-0.015,0.072,0.005c0.02,0.02,0.031,0.05,0.031,0.094v0.416c0,0.042-0.011,0.086-0.031,0.128
					c-0.021,0.043-0.044,0.072-0.072,0.089l-1.067,0.616l-0.042,0.773c0.068-0.082,0.136-0.147,0.203-0.194
					c0.067-0.046,0.122-0.083,0.165-0.107c0.142-0.082,0.274-0.129,0.395-0.14c0.122-0.012,0.227,0.014,0.316,0.078
					c0.089,0.064,0.158,0.165,0.208,0.304c0.051,0.138,0.076,0.316,0.076,0.535c0,0.25-0.026,0.478-0.078,0.685
					c-0.052,0.207-0.123,0.395-0.213,0.561c-0.09,0.167-0.195,0.312-0.317,0.434c-0.122,0.123-0.251,0.224-0.387,0.303
					c-0.175,0.101-0.325,0.156-0.45,0.167c-0.126,0.01-0.23-0.015-0.312-0.075c-0.082-0.06-0.145-0.147-0.186-0.261
					c-0.042-0.114-0.066-0.246-0.07-0.395c-0.003-0.045,0.007-0.089,0.028-0.13c0.022-0.042,0.046-0.07,0.074-0.087l0.308-0.177
					c0.025-0.015,0.048-0.015,0.068-0.002c0.02,0.014,0.034,0.04,0.042,0.078c0.015,0.082,0.039,0.141,0.072,0.178
					c0.033,0.038,0.071,0.061,0.114,0.069c0.043,0.009,0.091,0.003,0.145-0.016c0.053-0.019,0.109-0.046,0.167-0.079
					c0.145-0.083,0.26-0.21,0.349-0.383c0.089-0.172,0.133-0.363,0.133-0.573c0-0.176-0.045-0.297-0.133-0.362
					c-0.089-0.066-0.204-0.059-0.349,0.02c-0.076,0.044-0.136,0.087-0.18,0.131c-0.045,0.043-0.081,0.085-0.109,0.124
					c-0.027,0.039-0.053,0.075-0.076,0.105c-0.023,0.031-0.052,0.057-0.087,0.077l-0.35,0.202c-0.027,0.016-0.052,0.015-0.072-0.005
					c-0.02-0.019-0.03-0.051-0.03-0.094L169.49,128.197z"/>
			</g>
			<g>
				<polygon style="fill:#FAFAFA;" points="116.115,163.073 116.115,161.854 117.171,161.244 117.171,162.463 				"/>
				<polygon style="fill:#FAFAFA;" points="117.699,162.158 117.699,159.72 118.755,159.111 118.755,161.549 				"/>
				<polygon style="fill:#FAFAFA;" points="119.283,161.244 119.283,157.587 120.339,156.977 120.339,160.635 				"/>
				<polygon style="fill:#FAFAFA;" points="120.867,160.329 120.867,155.453 121.923,154.843 121.923,159.719 				"/>
			</g>
			<polygon style="fill:#FAFAFA;" points="205.587,108.175 209.422,104.772 208.239,109.76 207.68,107.685 			"/>
		</g>
		<g>
			<path style="opacity:0.5;fill:#FAFAFA;" d="M119.926,165.031l92.891-53.729c0.735-0.425,1.33-0.081,1.33,0.767v4.135
				c0,0.849-0.596,1.881-1.33,2.306l-92.891,53.728c-0.735,0.425-1.33,0.081-1.33-0.767v-4.134
				C118.596,166.489,119.192,165.456,119.926,165.031z"/>
			<g>
				<path style="fill:#FAFAFA;" d="M152.436,148.344c0.154-0.089,0.292-0.123,0.417-0.102c0.125,0.02,0.231,0.081,0.319,0.185
					c0.087,0.104,0.156,0.24,0.207,0.414c0.051,0.171,0.079,0.364,0.085,0.578c0.003,0.07,0.005,0.152,0.005,0.246
					c0,0.094-0.002,0.178-0.005,0.251c-0.006,0.221-0.034,0.447-0.085,0.679c-0.051,0.23-0.12,0.446-0.207,0.651
					c-0.088,0.205-0.194,0.389-0.319,0.554c-0.125,0.164-0.263,0.29-0.417,0.379c-0.096,0.055-0.181,0.09-0.256,0.104
					c-0.075,0.016-0.142,0.018-0.198,0.009c-0.057-0.01-0.106-0.028-0.146-0.055c-0.04-0.026-0.072-0.053-0.097-0.082v0.163
					c0,0.052-0.012,0.104-0.037,0.157c-0.024,0.052-0.054,0.088-0.087,0.107l-0.351,0.203c-0.034,0.019-0.063,0.017-0.088-0.007
					c-0.024-0.024-0.036-0.062-0.036-0.114v-4.661c0-0.052,0.012-0.104,0.036-0.156c0.025-0.052,0.054-0.088,0.088-0.107
					l0.351-0.203c0.033-0.019,0.063-0.017,0.087,0.007c0.025,0.023,0.037,0.061,0.037,0.113v1.513
					c0.025-0.056,0.057-0.122,0.097-0.194c0.04-0.073,0.089-0.147,0.146-0.223c0.056-0.074,0.123-0.149,0.198-0.22
					C152.255,148.462,152.34,148.399,152.436,148.344z M152.865,149.816c-0.019-0.297-0.08-0.482-0.185-0.557
					c-0.104-0.075-0.232-0.069-0.383,0.018c-0.151,0.087-0.277,0.231-0.38,0.433c-0.103,0.201-0.162,0.43-0.178,0.685
					c-0.006,0.075-0.009,0.167-0.009,0.275c0,0.11,0.003,0.196,0.009,0.264c0.016,0.247,0.075,0.41,0.178,0.488
					c0.103,0.077,0.229,0.073,0.38-0.014c0.151-0.087,0.279-0.229,0.383-0.424c0.105-0.196,0.166-0.452,0.185-0.771
					C152.874,150.076,152.874,149.943,152.865,149.816z"/>
				<path style="fill:#FAFAFA;" d="M155.348,147.587c-0.184,0.106-0.318,0.246-0.399,0.419c-0.081,0.172-0.122,0.401-0.122,0.685
					v1.847c0,0.052-0.012,0.104-0.037,0.156c-0.025,0.052-0.054,0.088-0.088,0.108l-0.351,0.202
					c-0.033,0.02-0.063,0.018-0.087-0.006c-0.024-0.024-0.036-0.062-0.036-0.114v-3.312c0-0.052,0.012-0.104,0.036-0.156
					c0.024-0.052,0.054-0.088,0.087-0.107l0.351-0.203c0.034-0.019,0.063-0.017,0.088,0.007c0.025,0.023,0.037,0.061,0.037,0.113
					v0.164c0.08-0.16,0.165-0.297,0.256-0.412c0.09-0.112,0.21-0.212,0.357-0.298l0.208-0.12c0.034-0.019,0.063-0.017,0.087,0.007
					c0.026,0.023,0.038,0.061,0.038,0.113v0.47c0,0.052-0.012,0.104-0.038,0.156c-0.024,0.051-0.053,0.087-0.087,0.106
					L155.348,147.587z"/>
				<path style="fill:#FAFAFA;" d="M157.406,145.475c0.169-0.097,0.322-0.146,0.459-0.144c0.137,0.001,0.256,0.045,0.355,0.129
					c0.101,0.084,0.18,0.203,0.24,0.358c0.06,0.155,0.094,0.339,0.104,0.55c0.003,0.042,0.004,0.096,0.004,0.162
					c0,0.066,0,0.132,0,0.199c0,0.066,0,0.131,0,0.195c0,0.064-0.001,0.118-0.004,0.162c-0.012,0.226-0.048,0.449-0.106,0.672
					c-0.059,0.224-0.137,0.433-0.238,0.631c-0.099,0.197-0.218,0.376-0.355,0.535c-0.137,0.16-0.29,0.288-0.459,0.386
					c-0.169,0.098-0.322,0.146-0.459,0.144c-0.137-0.001-0.255-0.042-0.355-0.125c-0.1-0.083-0.179-0.201-0.237-0.357
					c-0.059-0.155-0.095-0.338-0.107-0.548c-0.002-0.042-0.005-0.094-0.007-0.156c-0.001-0.064-0.001-0.128-0.001-0.194
					c0-0.068,0-0.134,0.001-0.2c0.002-0.068,0.005-0.124,0.007-0.168c0.01-0.223,0.044-0.447,0.104-0.67
					c0.06-0.225,0.14-0.436,0.24-0.636c0.1-0.2,0.218-0.38,0.355-0.539C157.083,145.701,157.237,145.572,157.406,145.475z
					 M157.965,146.75c-0.01-0.141-0.032-0.25-0.068-0.326c-0.035-0.078-0.079-0.129-0.131-0.156
					c-0.052-0.026-0.109-0.032-0.17-0.018c-0.062,0.014-0.125,0.04-0.19,0.077c-0.064,0.037-0.127,0.085-0.189,0.141
					c-0.061,0.058-0.118,0.13-0.17,0.216c-0.053,0.087-0.096,0.189-0.132,0.306c-0.035,0.118-0.058,0.253-0.067,0.405
					c-0.003,0.04-0.005,0.088-0.007,0.146c-0.001,0.058-0.002,0.117-0.002,0.179c0,0.062,0.001,0.122,0.002,0.18
					c0.002,0.058,0.004,0.103,0.007,0.134c0.009,0.142,0.032,0.251,0.067,0.328c0.036,0.076,0.079,0.128,0.132,0.154
					c0.052,0.026,0.109,0.034,0.17,0.019c0.062-0.015,0.125-0.04,0.189-0.077c0.065-0.038,0.128-0.085,0.19-0.142
					c0.061-0.056,0.118-0.128,0.17-0.215c0.052-0.087,0.096-0.189,0.131-0.307c0.036-0.117,0.058-0.252,0.068-0.404
					c0.002-0.035,0.004-0.082,0.004-0.141c0-0.059,0-0.12,0-0.181c0-0.062,0-0.121,0-0.178
					C157.969,146.833,157.967,146.787,157.965,146.75z"/>
				<path style="fill:#FAFAFA;" d="M161.601,145.326l0.416-2.272c0.009-0.043,0.022-0.088,0.039-0.136
					c0.017-0.048,0.047-0.084,0.09-0.11l0.351-0.202c0.034-0.02,0.062-0.017,0.087,0.006c0.025,0.024,0.037,0.062,0.037,0.114
					c0,0.02-0.002,0.036-0.005,0.053l-0.696,3.677c-0.009,0.048-0.023,0.096-0.041,0.145c-0.019,0.049-0.05,0.085-0.093,0.111
					l-0.351,0.202c-0.042,0.024-0.073,0.023-0.089-0.006c-0.017-0.028-0.032-0.059-0.044-0.095l-0.448-1.638l-0.447,2.155
					c-0.012,0.05-0.027,0.098-0.044,0.146c-0.016,0.048-0.047,0.084-0.09,0.109l-0.351,0.203c-0.042,0.024-0.073,0.023-0.092-0.004
					c-0.018-0.028-0.032-0.06-0.041-0.098l-0.696-2.872c-0.004-0.014-0.006-0.028-0.006-0.048c0-0.052,0.013-0.104,0.038-0.156
					c0.024-0.052,0.053-0.088,0.087-0.108l0.351-0.202c0.043-0.025,0.073-0.023,0.09,0.005c0.016,0.029,0.03,0.059,0.039,0.091
					l0.415,1.793l0.443-2.288c0.006-0.041,0.021-0.088,0.043-0.139c0.024-0.052,0.052-0.087,0.086-0.106l0.351-0.203
					c0.034-0.019,0.062-0.017,0.085,0.008c0.023,0.025,0.038,0.054,0.044,0.089L161.601,145.326z"/>
				<path style="fill:#FAFAFA;" d="M164.565,144.049c0-0.052-0.011-0.088-0.032-0.11c-0.021-0.02-0.06-0.029-0.113-0.026
					c-0.054,0.002-0.126,0.016-0.215,0.038c-0.089,0.024-0.203,0.051-0.341,0.084c-0.135,0.031-0.248,0.036-0.337,0.016
					c-0.089-0.019-0.16-0.06-0.214-0.124c-0.054-0.064-0.092-0.15-0.114-0.258c-0.021-0.108-0.032-0.233-0.032-0.376
					c0-0.142,0.022-0.294,0.065-0.456c0.043-0.162,0.105-0.32,0.187-0.473c0.081-0.154,0.181-0.297,0.297-0.431
					c0.117-0.134,0.251-0.244,0.401-0.332c0.151-0.086,0.285-0.138,0.404-0.154c0.119-0.017,0.219-0.006,0.302,0.031
					c0.083,0.037,0.148,0.099,0.194,0.183c0.046,0.084,0.072,0.182,0.078,0.292c0.004,0.05-0.008,0.102-0.034,0.155
					c-0.026,0.053-0.056,0.089-0.09,0.109l-0.356,0.205c-0.045,0.027-0.08,0.033-0.103,0.021c-0.023-0.013-0.048-0.028-0.076-0.046
					c-0.028-0.016-0.065-0.025-0.111-0.024c-0.046,0-0.115,0.027-0.208,0.08c-0.091,0.054-0.173,0.122-0.244,0.206
					c-0.071,0.084-0.106,0.18-0.106,0.288c0,0.053,0.008,0.091,0.026,0.117c0.016,0.025,0.048,0.039,0.097,0.04
					c0.047,0.001,0.113-0.007,0.198-0.025c0.084-0.019,0.194-0.046,0.329-0.08c0.274-0.068,0.467-0.04,0.579,0.087
					c0.112,0.127,0.168,0.333,0.168,0.617c0,0.142-0.022,0.293-0.069,0.455c-0.046,0.161-0.112,0.321-0.2,0.477
					c-0.088,0.158-0.196,0.306-0.323,0.443c-0.128,0.138-0.272,0.253-0.431,0.345c-0.163,0.094-0.307,0.147-0.431,0.16
					c-0.125,0.013-0.231-0.003-0.317-0.048c-0.085-0.045-0.152-0.114-0.198-0.205c-0.046-0.091-0.071-0.193-0.073-0.305
					c-0.004-0.05,0.007-0.102,0.034-0.156c0.026-0.052,0.056-0.088,0.09-0.108l0.355-0.206c0.046-0.026,0.081-0.029,0.103-0.009
					c0.024,0.019,0.05,0.043,0.079,0.067c0.03,0.026,0.07,0.041,0.122,0.044c0.053,0.002,0.131-0.026,0.236-0.086
					c0.046-0.026,0.093-0.059,0.143-0.096c0.049-0.039,0.094-0.08,0.136-0.126c0.041-0.045,0.076-0.093,0.104-0.145
					C164.551,144.153,164.565,144.101,164.565,144.049z"/>
				<path style="fill:#FAFAFA;" d="M165.769,142.566c0-0.266,0.026-0.53,0.079-0.796c0.052-0.264,0.127-0.512,0.226-0.74
					c0.098-0.23,0.217-0.435,0.357-0.616c0.14-0.18,0.296-0.32,0.468-0.419c0.173-0.099,0.328-0.141,0.469-0.125
					c0.139,0.017,0.259,0.078,0.357,0.184c0.098,0.108,0.175,0.254,0.228,0.444c0.054,0.19,0.081,0.404,0.081,0.646v0.32
					c0,0.052-0.012,0.104-0.037,0.155c-0.025,0.053-0.054,0.089-0.088,0.108l-1.542,0.889c0,0.11,0.015,0.197,0.045,0.263
					c0.029,0.066,0.068,0.113,0.117,0.141c0.05,0.028,0.106,0.039,0.171,0.03c0.064-0.008,0.131-0.033,0.198-0.072
					c0.099-0.057,0.179-0.118,0.24-0.184c0.062-0.067,0.112-0.135,0.153-0.206c0.033-0.057,0.061-0.099,0.083-0.126
					c0.021-0.026,0.05-0.05,0.087-0.072l0.369-0.213c0.034-0.019,0.064-0.018,0.09,0.005c0.026,0.023,0.037,0.062,0.035,0.115
					c-0.004,0.068-0.027,0.167-0.072,0.297c-0.044,0.13-0.112,0.27-0.201,0.422c-0.089,0.15-0.199,0.298-0.329,0.444
					c-0.131,0.148-0.282,0.27-0.455,0.37c-0.172,0.1-0.328,0.144-0.468,0.132s-0.259-0.074-0.357-0.188
					c-0.099-0.114-0.174-0.272-0.226-0.477C165.795,143.094,165.769,142.85,165.769,142.566z M166.899,140.846
					c-0.089,0.051-0.165,0.117-0.228,0.193c-0.064,0.076-0.116,0.159-0.159,0.248c-0.043,0.088-0.076,0.178-0.099,0.27
					c-0.024,0.092-0.038,0.174-0.045,0.25l1.044-0.602c-0.006-0.068-0.017-0.136-0.035-0.204c-0.016-0.069-0.044-0.124-0.083-0.166
					c-0.038-0.042-0.089-0.064-0.151-0.068C167.079,140.763,166.998,140.789,166.899,140.846z"/>
				<path style="fill:#FAFAFA;" d="M169.891,139.19c-0.185,0.106-0.318,0.246-0.399,0.42c-0.082,0.172-0.123,0.4-0.123,0.684v1.847
					c0,0.052-0.012,0.104-0.037,0.156c-0.024,0.052-0.053,0.088-0.087,0.108l-0.351,0.202c-0.034,0.02-0.063,0.018-0.087-0.006
					c-0.025-0.024-0.037-0.062-0.037-0.114v-3.311c0-0.052,0.012-0.104,0.037-0.156c0.024-0.052,0.053-0.088,0.087-0.107
					l0.351-0.203c0.034-0.019,0.063-0.017,0.087,0.007c0.025,0.023,0.037,0.061,0.037,0.113v0.163
					c0.08-0.159,0.166-0.296,0.257-0.411c0.09-0.113,0.209-0.213,0.357-0.298l0.207-0.12c0.034-0.019,0.064-0.017,0.088,0.007
					c0.025,0.023,0.037,0.061,0.037,0.113v0.469c0,0.052-0.012,0.104-0.037,0.156c-0.024,0.052-0.054,0.088-0.088,0.107
					L169.891,139.19z"/>
				<path style="fill:#FAFAFA;" d="M171.169,140.214c0.034-0.019,0.063-0.016,0.088,0.006c0.024,0.024,0.037,0.062,0.037,0.114
					v0.696c0,0.052-0.013,0.104-0.037,0.156c-0.025,0.052-0.054,0.088-0.088,0.108l-0.429,0.248
					c-0.034,0.019-0.063,0.016-0.088-0.007c-0.024-0.024-0.036-0.062-0.036-0.114v-0.696c0-0.052,0.012-0.104,0.036-0.156
					c0.025-0.051,0.054-0.087,0.088-0.107L171.169,140.214z"/>
				<path style="fill:#FAFAFA;" d="M172.591,138.377c-0.006,0.074-0.009,0.16-0.009,0.254c0,0.094,0.003,0.176,0.009,0.243
					c0.009,0.142,0.031,0.255,0.064,0.34c0.034,0.085,0.077,0.144,0.128,0.179c0.05,0.034,0.106,0.049,0.168,0.044
					c0.061-0.004,0.124-0.026,0.189-0.063c0.077-0.044,0.142-0.091,0.194-0.141c0.052-0.048,0.097-0.102,0.134-0.158
					c0.036-0.057,0.068-0.116,0.094-0.176c0.026-0.06,0.051-0.125,0.076-0.196c0.019-0.053,0.04-0.108,0.064-0.166
					c0.026-0.056,0.054-0.094,0.089-0.114l0.35-0.202c0.033-0.019,0.064-0.018,0.09,0.004c0.026,0.024,0.038,0.062,0.034,0.116
					c-0.002,0.101-0.026,0.234-0.069,0.402c-0.042,0.167-0.11,0.342-0.2,0.524c-0.091,0.182-0.207,0.36-0.349,0.532
					c-0.141,0.171-0.31,0.314-0.507,0.427c-0.169,0.098-0.322,0.142-0.457,0.133c-0.135-0.01-0.253-0.06-0.352-0.152
					c-0.101-0.092-0.179-0.218-0.236-0.382c-0.057-0.164-0.091-0.351-0.104-0.562c-0.006-0.081-0.008-0.174-0.008-0.278
					s0.002-0.204,0.008-0.298c0.01-0.222,0.043-0.45,0.102-0.682c0.058-0.233,0.136-0.452,0.235-0.658
					c0.099-0.207,0.217-0.393,0.353-0.56c0.137-0.166,0.29-0.298,0.459-0.396c0.197-0.114,0.366-0.166,0.507-0.158
					c0.142,0.008,0.258,0.052,0.349,0.129c0.09,0.079,0.158,0.176,0.2,0.293c0.043,0.118,0.067,0.224,0.069,0.322
					c0.004,0.05-0.008,0.102-0.034,0.156c-0.026,0.052-0.057,0.089-0.09,0.108l-0.35,0.202c-0.035,0.02-0.063,0.015-0.089-0.012
					c-0.024-0.03-0.045-0.06-0.064-0.092c-0.025-0.042-0.05-0.078-0.076-0.108c-0.026-0.03-0.058-0.052-0.094-0.067
					c-0.037-0.013-0.082-0.015-0.134-0.003c-0.052,0.01-0.117,0.038-0.194,0.082c-0.065,0.038-0.128,0.09-0.189,0.156
					c-0.062,0.066-0.118,0.146-0.168,0.24c-0.051,0.092-0.094,0.202-0.128,0.325C172.622,138.087,172.6,138.225,172.591,138.377z"/>
				<path style="fill:#FAFAFA;" d="M176.057,134.707c0.168-0.098,0.322-0.146,0.459-0.144c0.136,0,0.255,0.044,0.355,0.128
					c0.1,0.084,0.18,0.204,0.24,0.359c0.059,0.155,0.094,0.339,0.103,0.55c0.004,0.041,0.005,0.095,0.005,0.161
					c0,0.066,0,0.132,0,0.2c0,0.066,0,0.13,0,0.194c0,0.064-0.001,0.118-0.005,0.163c-0.012,0.225-0.047,0.449-0.105,0.671
					c-0.059,0.224-0.138,0.434-0.238,0.632c-0.1,0.197-0.219,0.376-0.355,0.534c-0.137,0.16-0.291,0.289-0.459,0.386
					c-0.169,0.098-0.323,0.146-0.459,0.144c-0.137,0-0.256-0.042-0.356-0.124c-0.099-0.083-0.179-0.201-0.237-0.358
					c-0.059-0.154-0.094-0.337-0.106-0.548c-0.003-0.042-0.006-0.093-0.007-0.156c-0.001-0.064-0.002-0.128-0.002-0.194
					c0-0.067,0.001-0.134,0.002-0.2c0.001-0.067,0.004-0.124,0.007-0.168c0.009-0.222,0.044-0.446,0.104-0.67
					c0.059-0.224,0.14-0.436,0.239-0.636c0.1-0.199,0.219-0.38,0.356-0.538C175.733,134.933,175.887,134.804,176.057,134.707z
					 M176.615,135.983c-0.009-0.141-0.032-0.251-0.067-0.327c-0.035-0.077-0.079-0.128-0.131-0.156
					c-0.053-0.025-0.109-0.032-0.171-0.018c-0.061,0.014-0.124,0.04-0.189,0.078c-0.065,0.036-0.128,0.084-0.189,0.14
					c-0.062,0.058-0.119,0.13-0.171,0.216c-0.053,0.088-0.096,0.19-0.131,0.307c-0.036,0.117-0.059,0.253-0.067,0.405
					c-0.004,0.04-0.005,0.088-0.007,0.146s-0.003,0.117-0.003,0.179c0,0.061,0.001,0.121,0.003,0.179
					c0.002,0.058,0.003,0.104,0.007,0.134c0.008,0.142,0.031,0.252,0.067,0.328c0.035,0.076,0.078,0.128,0.131,0.155
					c0.052,0.026,0.109,0.033,0.171,0.019c0.061-0.015,0.124-0.04,0.189-0.078c0.065-0.037,0.128-0.084,0.189-0.141
					c0.062-0.057,0.118-0.129,0.171-0.215c0.052-0.088,0.096-0.19,0.131-0.307c0.035-0.117,0.058-0.253,0.067-0.405
					c0.003-0.034,0.004-0.082,0.004-0.14c0-0.06,0-0.12,0-0.182c0-0.062,0-0.12,0-0.178
					C176.619,136.066,176.618,136.02,176.615,135.983z"/>
				<path style="fill:#FAFAFA;" d="M178.577,133.678c0.073-0.179,0.163-0.336,0.267-0.471c0.105-0.133,0.214-0.233,0.328-0.298
					c0.194-0.112,0.352-0.148,0.475-0.108c0.123,0.04,0.219,0.13,0.29,0.27c0.04-0.118,0.09-0.232,0.148-0.342
					c0.058-0.11,0.121-0.208,0.187-0.3c0.066-0.09,0.135-0.168,0.205-0.235c0.071-0.067,0.14-0.12,0.208-0.159
					c0.175-0.101,0.321-0.14,0.438-0.118c0.117,0.022,0.211,0.089,0.284,0.198c0.072,0.11,0.123,0.257,0.152,0.442
					c0.029,0.184,0.044,0.387,0.044,0.61v1.911c0,0.052-0.012,0.104-0.038,0.156c-0.024,0.052-0.053,0.088-0.087,0.108l-0.351,0.202
					c-0.034,0.02-0.062,0.018-0.087-0.006c-0.024-0.024-0.037-0.062-0.037-0.114v-1.876c0-0.321-0.04-0.523-0.12-0.605
					c-0.08-0.082-0.192-0.08-0.337,0.003c-0.123,0.071-0.228,0.193-0.316,0.367c-0.087,0.174-0.134,0.416-0.14,0.728v1.911
					c0,0.052-0.012,0.104-0.037,0.156c-0.025,0.052-0.054,0.088-0.088,0.108l-0.351,0.202c-0.033,0.02-0.063,0.018-0.087-0.006
					s-0.037-0.062-0.037-0.114v-1.877c0-0.32-0.04-0.522-0.12-0.604c-0.08-0.082-0.192-0.081-0.337,0.002
					c-0.125,0.073-0.234,0.2-0.323,0.382c-0.089,0.182-0.133,0.431-0.133,0.748v1.876c0,0.052-0.012,0.104-0.037,0.157
					c-0.025,0.052-0.054,0.088-0.088,0.107l-0.351,0.203c-0.033,0.019-0.063,0.017-0.087-0.007
					c-0.024-0.024-0.036-0.062-0.036-0.114v-3.311c0-0.052,0.012-0.104,0.036-0.156c0.024-0.052,0.054-0.088,0.087-0.108
					l0.351-0.202c0.034-0.02,0.063-0.018,0.088,0.006c0.025,0.024,0.037,0.062,0.037,0.114V133.678z"/>
			</g>
			<path id="XMLID_269_" style="fill:#FAFAFA;" d="M211.471,113.182c-0.016-0.158-0.153-0.137-0.223,0.033l-0.358,0.874
				c-0.609-0.066-1.348,0.529-1.846,1.584c-0.646,1.368-0.646,2.986,0,3.608c0.323,0.311,0.747,0.314,1.172,0.069
				c0.424-0.245,0.849-0.739,1.172-1.422c0.082-0.174,0.082-0.378,0-0.457c-0.082-0.079-0.215-0.002-0.297,0.171
				c-0.482,1.02-1.267,1.475-1.75,1.01c-0.482-0.464-0.482-1.673,0-2.695c0.343-0.727,0.837-1.157,1.268-1.183l-0.27,0.659
				c-0.07,0.171-0.006,0.33,0.104,0.258l1.064-0.694c0.075-0.049,0.13-0.184,0.119-0.292L211.471,113.182z"/>
		</g>
		<g>
			<g>
				<g>
					<path style="fill:#FAFAFA;" d="M121.16,374.186c-0.128,0-0.256-0.047-0.355-0.143l-3.058-2.943
						c-0.158-0.152-0.202-0.389-0.108-0.588l3.058-6.476c0.12-0.256,0.427-0.362,0.682-0.244c0.255,0.121,0.365,0.426,0.244,0.682
						l-2.901,6.143l2.793,2.688c0.204,0.196,0.21,0.52,0.014,0.724C121.428,374.133,121.294,374.186,121.16,374.186z"/>
				</g>
				<g>
					<path style="fill:#FAFAFA;" d="M137.85,364.696c-0.074,0-0.148-0.016-0.219-0.049c-0.255-0.121-0.365-0.426-0.244-0.682
						l2.902-6.142l-2.794-2.689c-0.204-0.196-0.21-0.52-0.014-0.724c0.198-0.202,0.522-0.208,0.724-0.014l3.059,2.944
						c0.158,0.152,0.202,0.389,0.108,0.588l-3.059,6.475C138.226,364.588,138.042,364.696,137.85,364.696z"/>
				</g>
			</g>
			<g>
				<g>
					<path style="fill:#FAFAFA;" d="M164.119,349.739c-0.175,0-0.341-0.042-0.488-0.127c-0.334-0.193-0.526-0.581-0.526-1.065
						v-5.384c0-0.842,0.479-1.779,1.092-2.133l0.887-0.512c0.196-0.111,0.446-0.046,0.56,0.15c0.113,0.196,0.046,0.447-0.15,0.56
						l-0.888,0.512c-0.322,0.186-0.681,0.816-0.681,1.423v5.384c0,0.212,0.06,0.322,0.116,0.355
						c0.056,0.033,0.183,0.029,0.364-0.077l4.664-2.693c0.474-0.273,0.891-0.995,0.891-1.543v-5.385
						c0-0.229-0.063-0.369-0.122-0.403c-0.043-0.025-0.133-0.005-0.234,0.054l-0.973,0.56c-0.196,0.111-0.446,0.046-0.56-0.15
						c-0.113-0.196-0.046-0.447,0.15-0.56l0.974-0.56c0.364-0.209,0.748-0.23,1.053-0.054c0.339,0.195,0.533,0.601,0.533,1.114
						v5.385c0,0.842-0.571,1.832-1.301,2.253l-4.664,2.693C164.58,349.671,164.342,349.739,164.119,349.739z"/>
				</g>
				<g>
					<path style="fill:#FAFAFA;" d="M166.941,344.219c-0.226,0-0.41-0.184-0.41-0.41v-8.243c0-0.226,0.184-0.41,0.41-0.41
						c0.226,0,0.41,0.184,0.41,0.41v8.243C167.352,344.035,167.168,344.219,166.941,344.219z"/>
				</g>
				<g>
					<path style="fill:#FAFAFA;" d="M164.898,339.639c-0.069,0-0.138-0.018-0.202-0.054c-0.197-0.111-0.266-0.361-0.154-0.558
						l2.077-3.663c0.054-0.096,0.146-0.167,0.253-0.194c0.108-0.029,0.221-0.011,0.316,0.046l2.078,1.264
						c0.193,0.118,0.255,0.37,0.137,0.563c-0.118,0.194-0.369,0.253-0.563,0.137l-1.717-1.045l-1.869,3.296
						C165.18,339.564,165.04,339.639,164.898,339.639z"/>
				</g>
			</g>
			<g>
				<g>
					<path style="fill:#FAFAFA;" d="M182.513,339.374c-0.036,0-0.073-0.006-0.109-0.017c-0.153-0.048-0.257-0.19-0.257-0.35v-9.53
						c0-0.074,0.022-0.146,0.064-0.207c1.954-2.856,3.974-3.988,5.994-3.368c0.154,0.047,0.259,0.189,0.259,0.35v9.53
						c0,0.115-0.054,0.224-0.146,0.293c-0.092,0.07-0.212,0.092-0.323,0.059c-1.687-0.495-3.428,0.544-5.18,3.081
						C182.745,339.316,182.631,339.374,182.513,339.374z M182.879,329.591v8.309c1.593-1.976,3.22-2.84,4.853-2.576v-8.788
						C186.156,326.205,184.522,327.229,182.879,329.591z"/>
				</g>
				<g>
					<path style="fill:#FAFAFA;" d="M188.099,336.149c-0.036,0-0.073-0.006-0.109-0.017c-0.153-0.048-0.257-0.19-0.257-0.35v-9.53
						c0-0.074,0.022-0.146,0.064-0.207c1.953-2.857,3.973-3.991,5.995-3.368c0.154,0.047,0.259,0.189,0.259,0.35v9.53
						c0,0.115-0.054,0.224-0.146,0.293c-0.093,0.07-0.213,0.091-0.323,0.059c-1.684-0.495-3.427,0.542-5.18,3.081
						C188.331,336.091,188.217,336.149,188.099,336.149z M188.465,326.366v8.309c1.592-1.974,3.217-2.841,4.853-2.577v-8.788
						C191.735,322.978,190.106,324.003,188.465,326.366z"/>
				</g>
			</g>
			<g>
				<g>
					<path style="fill:#FAFAFA;" d="M204.545,324.785c-0.18,0-0.351-0.044-0.504-0.133c-0.352-0.203-0.546-0.602-0.546-1.124v-6.231
						c0-0.935,0.633-2.033,1.443-2.5l5.396-3.115c0.451-0.259,0.895-0.293,1.247-0.089c0.352,0.203,0.546,0.602,0.546,1.124v0.931
						c0,0.193-0.156,0.349-0.349,0.349s-0.349-0.156-0.349-0.349v-0.931c0-0.257-0.072-0.446-0.197-0.518
						c-0.127-0.071-0.326-0.04-0.547,0.089l-5.396,3.115c-0.593,0.343-1.095,1.211-1.095,1.895v6.231
						c0,0.257,0.072,0.446,0.197,0.518c0.124,0.07,0.325,0.04,0.547-0.089l0.804-0.464c0.164-0.096,0.38-0.042,0.477,0.127
						c0.097,0.167,0.04,0.381-0.127,0.477l-0.805,0.465C205.033,324.71,204.781,324.785,204.545,324.785z"/>
				</g>
				<g>
					<path style="fill:#FAFAFA;" d="M206.619,325.983c-0.18,0-0.351-0.044-0.504-0.133c-0.352-0.203-0.546-0.602-0.546-1.124v-6.231
						c0-0.934,0.633-2.033,1.443-2.5l5.396-3.115c0.451-0.259,0.894-0.294,1.247-0.089c0.352,0.203,0.546,0.602,0.546,1.124v6.232
						c0,0.935-0.633,2.032-1.443,2.499l-5.396,3.115C207.106,325.908,206.854,325.983,206.619,325.983z M213.147,313.359
						c-0.111,0-0.246,0.043-0.39,0.127l-5.396,3.115v0.001c-0.593,0.342-1.095,1.21-1.095,1.894v6.231
						c0,0.257,0.072,0.446,0.197,0.518c0.124,0.07,0.325,0.04,0.547-0.089l5.396-3.115c0.593-0.343,1.095-1.21,1.095-1.894v-6.232
						c0-0.257-0.072-0.446-0.197-0.518C213.26,313.372,213.207,313.359,213.147,313.359z M207.186,316.298h0.009H207.186z"/>
				</g>
			</g>
		</g>
		<g>
			<g>
				<g>
					<path style="fill:#27DEBF;" d="M192.821,209.72c-1.446-3.812-3.515-6.791-6.151-8.852c-2.636-2.061-5.706-3.103-9.124-3.094
						c-3.54,0.008-7.299,1.147-11.174,3.384c-3.875,2.237-7.634,5.44-11.174,9.519c-3.418,3.939-6.488,8.525-9.124,13.63
						c-2.636,5.105-4.705,10.473-6.151,15.955c-1.497,5.677-2.257,11.226-2.257,16.493c0,5.267,0.759,9.94,2.257,13.888
						c1.446,3.812,3.515,6.791,6.151,8.852c2.636,2.062,5.706,3.103,9.124,3.095c3.54-0.008,7.299-1.147,11.174-3.384
						c3.875-2.237,7.634-5.44,11.174-9.519c3.418-3.939,6.488-8.525,9.124-13.63c2.636-5.105,4.705-10.473,6.151-15.955
						c1.497-5.677,2.256-11.226,2.256-16.493C195.078,218.341,194.318,213.668,192.821,209.72z M192.189,225.276
						c0,2.872-0.253,5.837-0.742,8.84l-8.628,4.982c0.517-3.461,0.777-6.826,0.777-10.063c0-3.046-0.231-5.903-0.689-8.55
						l8.191-4.729C191.816,218.59,192.189,221.787,192.189,225.276z M184.627,204.825c2.314,1.81,4.134,4.396,5.408,7.617
						L182.14,217c-0.289-1.067-0.62-2.093-0.995-3.075c-1.297-3.404-3.104-6.293-5.369-8.586c-1.172-1.186-2.342-2.088-3.408-2.77
						C176.972,201.392,181.197,202.142,184.627,204.825z M167.816,205.251c1.353,0.54,3.557,1.675,5.764,3.908
						c2.073,2.099,3.724,4.735,4.906,7.836c0.218,0.572,0.42,1.16,0.606,1.765l-11.275,6.51V205.251z M179.945,222.194
						c0.506,2.608,0.761,5.452,0.761,8.508c0,3.239-0.287,6.621-0.855,10.108l-12.035,6.948v-18.562L179.945,222.194z
						 M152.42,247.033c0-3.055,0.255-6.195,0.761-9.387l11.747-6.782v18.562l-11.653,6.728
						C152.707,253.323,152.42,250.273,152.42,247.033z M164.928,207.303v19.635l-10.893,6.289c0.179-0.787,0.372-1.577,0.581-2.369
						c1.171-4.447,2.807-8.972,4.863-13.449C161.501,213.005,163.544,209.502,164.928,207.303z M148.117,225.904
						c3.556-6.888,7.968-12.685,12.771-16.863c-1.1,1.961-2.318,4.293-3.537,6.936c-2.265,4.909-4.072,9.883-5.369,14.786
						c-0.374,1.414-0.706,2.823-0.995,4.224l-8.278,4.779C143.983,235.074,145.803,230.385,148.117,225.904z M141.646,244.306
						l8.573-4.95c-0.458,3.175-0.688,6.299-0.688,9.345c0,3.237,0.26,6.301,0.777,9.166l-9.01,5.202
						c-0.49-2.437-0.742-5.111-0.742-7.983C140.555,251.597,140.928,247.971,141.646,244.306z M148.117,275.538
						c-2.649-2.072-4.651-5.162-5.928-9.056l8.899-5.138c0.262,0.966,0.556,1.906,0.883,2.817c1.289,3.591,3.085,6.751,5.336,9.392
						c1.47,1.725,2.937,2.998,4.195,3.916C156.461,279.078,151.824,278.437,148.117,275.538z M159.589,269.827
						c-2.088-2.449-3.749-5.371-4.939-8.684c-0.183-0.509-0.355-1.029-0.515-1.557l10.793-6.232v21.072
						C163.553,273.598,161.571,272.152,159.589,269.827z M167.816,273.198v-21.512l11.175-6.452
						c-0.154,0.686-0.319,1.375-0.494,2.067c-1.18,4.67-2.83,9.493-4.903,14.337C171.411,266.743,169.204,270.807,167.816,273.198z
						 M184.627,254.458c-3.589,6.951-8.049,12.792-12.904,16.979c1.235-2.338,2.663-5.239,4.095-8.572
						c2.251-5.24,4.046-10.473,5.336-15.553c0.327-1.289,0.621-2.568,0.883-3.837l8.518-4.918
						C189.279,243.925,187.276,249.327,184.627,254.458z"/>
				</g>
			</g>
		</g>
	</g>
</g>
<g id="Icons">
	<g id="Icon_2_">
		<g id="XMLID_922_">
			<path id="XMLID_925_" style="fill:#27DEBF;" d="M287.632,43.422c0-1.897-1.332-4.204-2.975-5.153l-2.422-1.398
				c-1.643-0.949-4.307-0.949-5.95,0L240.669,57.49c-1.643,0.949-2.975,3.256-2.975,5.153v41.189c0,1.898,1.333,4.204,2.975,5.153
				l2.423,1.399c1.643,0.949,4.307,0.949,5.95,0l35.616-20.619c1.643-0.948,2.975-3.255,2.975-5.152L287.632,43.422z"/>
			<path id="XMLID_924_" style="opacity:0.2;" d="M237.694,103.832c0,1.897,1.332,4.204,2.975,5.153l2.423,1.398
				c1.485,0.857,3.796,0.932,5.442,0.24c-1.4,0.53-2.466-0.26-2.466-1.957l-0.001-41.189c0-0.949,0.333-2,0.871-2.932l-8.372-4.834
				c-0.538,0.932-0.871,1.983-0.871,2.932V103.832z"/>
			<path id="XMLID_923_" style="opacity:0.5;fill:#FFFFFF;" d="M287.534,42.577c-0.347-1.263-1.499-1.665-2.873-0.874
				l-35.622,20.624c-0.818,0.472-1.568,1.277-2.096,2.22l-8.369-4.83c0.541-0.944,1.277-1.749,2.096-2.221l35.608-20.624
				c1.651-0.944,4.316-0.944,5.954,0l2.429,1.402C286.063,39.079,287.243,40.883,287.534,42.577z"/>
		</g>
		<g>
			<g>
				<path style="fill:#FAFAFA;" d="M261.808,96.487c-5.808,0-9.71-5.289-9.71-13.161c0-10.127,6.011-21.53,13.684-25.961
					c2.065-1.191,4.104-1.796,6.063-1.796c5.808,0,9.71,5.288,9.71,13.16c0,10.127-6.011,21.531-13.685,25.962
					C265.806,95.883,263.766,96.487,261.808,96.487z"/>
			</g>
			<g>
				<path style="fill:#27DEBF;" d="M271.847,56.959c-1.711,0-3.514,0.543-5.369,1.609c-7.162,4.139-12.992,15.246-12.992,24.754
					c0,7.152,3.269,11.773,8.32,11.773c1.711,0,3.514-0.543,5.369-1.609c7.162-4.139,12.992-15.236,12.992-24.754
					C280.167,61.58,276.898,56.959,271.847,56.959z"/>
				<path style="fill:#FAFAFA;" d="M262.035,93.559c-4.273,0-7.275-3.951-7.275-10.571c0-8.879,5.408-19.195,12.067-23.048
					c1.702-0.978,3.325-1.447,4.792-1.447c4.283,0,7.275,3.951,7.275,10.571c0,8.879-5.408,19.205-12.067,23.048
					C265.125,93.1,263.502,93.559,262.035,93.559z"/>
			</g>
			<path style="display:none;fill:#27DEBF;" d="M269.771,60.887c-0.064,0.012-0.099-0.056-0.081-0.152l0.342-1.736
				c0.019-0.096,0.086-0.182,0.148-0.193c0.063-0.012,0.099,0.056,0.081,0.151l-0.342,1.737
				C269.901,60.789,269.834,60.876,269.771,60.887z M267.861,61.352l0.111-1.663c0.006-0.091-0.042-0.141-0.108-0.111
				c-0.066,0.03-0.124,0.128-0.13,0.219l-0.111,1.662c-0.006,0.091,0.043,0.14,0.108,0.111
				C267.797,61.541,267.855,61.443,267.861,61.352z M265.764,62.576l-0.126-1.524c-0.007-0.084-0.066-0.113-0.131-0.066
				c-0.066,0.047-0.113,0.152-0.106,0.236l0.125,1.525c0.007,0.083,0.066,0.114,0.132,0.065
				C265.723,62.765,265.771,62.66,265.764,62.576z M263.71,64.322l-0.357-1.328c-0.019-0.073-0.087-0.081-0.15-0.019
				c-0.063,0.063-0.098,0.172-0.078,0.245l0.357,1.328c0.02,0.073,0.086,0.081,0.149,0.019
				C263.694,64.504,263.729,64.395,263.71,64.322z M261.777,66.521l-0.574-1.08c-0.031-0.059-0.104-0.046-0.162,0.029
				c-0.058,0.076-0.08,0.185-0.048,0.244l0.574,1.08c0.032,0.06,0.104,0.046,0.162-0.029
				C261.787,66.689,261.809,66.579,261.777,66.521z M260.04,69.089l-0.77-0.79c-0.042-0.043-0.118-0.009-0.169,0.076
				c-0.051,0.086-0.057,0.189-0.015,0.233l0.77,0.79c0.042,0.044,0.117,0.009,0.168-0.076
				C260.075,69.237,260.082,69.132,260.04,69.089z M258.564,71.928l-0.935-0.471c-0.051-0.025-0.127,0.028-0.168,0.121
				c-0.042,0.092-0.034,0.188,0.017,0.214l0.936,0.471c0.051,0.026,0.127-0.028,0.168-0.12
				C258.624,72.049,258.616,71.953,258.564,71.928z M257.409,74.927l-1.065-0.133c-0.059-0.007-0.131,0.065-0.161,0.16
				c-0.031,0.096-0.008,0.179,0.05,0.186l1.065,0.133c0.059,0.007,0.131-0.064,0.161-0.16
				C257.489,75.018,257.467,74.934,257.409,74.927z M256.616,77.973l-1.154,0.21c-0.063,0.012-0.13,0.098-0.148,0.193
				c-0.019,0.095,0.017,0.163,0.081,0.151l1.155-0.21c0.063-0.011,0.13-0.098,0.149-0.193
				C256.715,78.029,256.68,77.961,256.616,77.973z M256.218,80.948l-1.199,0.545c-0.066,0.03-0.124,0.128-0.13,0.219
				c-0.006,0.091,0.042,0.14,0.108,0.111l1.199-0.545c0.066-0.029,0.124-0.128,0.13-0.219
				C256.332,80.967,256.283,80.918,256.218,80.948z M256.228,83.737l-1.197,0.859c-0.066,0.047-0.114,0.153-0.106,0.236
				c0.007,0.084,0.065,0.113,0.131,0.066l1.198-0.859c0.066-0.047,0.113-0.153,0.106-0.236
				C256.353,83.719,256.294,83.69,256.228,83.737z M256.648,86.234l-1.15,1.14c-0.063,0.062-0.098,0.172-0.079,0.244
				c0.019,0.073,0.086,0.082,0.149,0.019l1.15-1.14c0.063-0.062,0.098-0.171,0.078-0.244
				C256.778,86.18,256.711,86.171,256.648,86.234z M257.46,88.342l-1.058,1.377c-0.058,0.076-0.08,0.185-0.048,0.244
				c0.032,0.059,0.104,0.047,0.162-0.029l1.059-1.377c0.059-0.075,0.08-0.184,0.048-0.243
				C257.591,88.254,257.518,88.267,257.46,88.342z M258.634,89.981l-0.926,1.562c-0.051,0.086-0.058,0.19-0.016,0.233
				c0.042,0.044,0.118,0.009,0.168-0.076l0.926-1.561c0.052-0.086,0.058-0.19,0.016-0.233
				C258.76,89.861,258.685,89.896,258.634,89.981z M260.124,91.087l-0.758,1.686c-0.042,0.092-0.034,0.188,0.017,0.214
				c0.051,0.026,0.127-0.028,0.168-0.12l0.758-1.686c0.042-0.092,0.034-0.188-0.017-0.214
				C260.241,90.941,260.166,90.995,260.124,91.087z M261.873,91.618l-0.561,1.745c-0.031,0.095-0.009,0.178,0.05,0.185
				c0.059,0.008,0.131-0.064,0.161-0.159l0.561-1.744c0.031-0.096,0.009-0.179-0.05-0.186
				C261.976,91.452,261.904,91.523,261.873,91.618z M263.815,91.554l-0.342,1.737c-0.019,0.095,0.017,0.163,0.08,0.152
				c0.063-0.012,0.13-0.098,0.148-0.193l0.342-1.737c0.019-0.096-0.017-0.163-0.08-0.152C263.9,91.373,263.833,91.46,263.815,91.554
				z M265.873,90.897l-0.11,1.663c-0.006,0.092,0.042,0.141,0.108,0.111c0.066-0.03,0.124-0.128,0.13-0.219l0.111-1.663
				c0.006-0.092-0.042-0.141-0.108-0.112C265.937,90.708,265.879,90.806,265.873,90.897z M267.97,89.672l0.126,1.524
				c0.007,0.084,0.065,0.114,0.131,0.066c0.066-0.047,0.113-0.152,0.106-0.236l-0.125-1.525c-0.007-0.084-0.065-0.113-0.131-0.066
				C268.011,89.483,267.963,89.589,267.97,89.672z M270.024,87.927l0.357,1.328c0.02,0.072,0.086,0.081,0.15,0.019
				c0.063-0.063,0.098-0.172,0.078-0.245l-0.357-1.328c-0.02-0.074-0.086-0.082-0.149-0.019
				C270.04,87.744,270.004,87.854,270.024,87.927z M271.957,85.728l0.575,1.08c0.031,0.059,0.104,0.046,0.162-0.03
				c0.058-0.076,0.079-0.184,0.047-0.243l-0.574-1.08c-0.032-0.06-0.104-0.047-0.162,0.029
				C271.947,85.56,271.926,85.669,271.957,85.728z M273.694,83.16l0.77,0.79c0.042,0.043,0.117,0.009,0.168-0.076
				c0.051-0.085,0.057-0.19,0.015-0.233l-0.77-0.79c-0.042-0.044-0.117-0.01-0.168,0.076
				C273.659,83.012,273.652,83.117,273.694,83.16z M275.169,80.321l0.936,0.47c0.052,0.026,0.127-0.027,0.168-0.12
				c0.041-0.092,0.034-0.188-0.018-0.214l-0.936-0.47c-0.052-0.026-0.126,0.027-0.168,0.12
				C275.11,80.2,275.118,80.296,275.169,80.321z M276.325,77.322l1.066,0.132c0.058,0.008,0.131-0.064,0.161-0.159
				c0.031-0.095,0.009-0.179-0.05-0.186l-1.066-0.133c-0.059-0.007-0.131,0.064-0.161,0.16
				C276.245,77.231,276.267,77.315,276.325,77.322z M277.118,74.276l1.155-0.21c0.064-0.012,0.13-0.098,0.148-0.193
				c0.019-0.096-0.017-0.163-0.081-0.151l-1.154,0.21c-0.064,0.011-0.13,0.098-0.148,0.193
				C277.019,74.219,277.054,74.288,277.118,74.276z M277.516,71.301l1.2-0.546c0.066-0.029,0.124-0.127,0.13-0.218
				c0.006-0.091-0.042-0.141-0.108-0.111l-1.199,0.545c-0.066,0.03-0.124,0.128-0.129,0.218
				C277.402,71.281,277.451,71.331,277.516,71.301z M277.505,68.512l1.198-0.86c0.066-0.047,0.113-0.153,0.106-0.236
				c-0.007-0.083-0.066-0.113-0.131-0.065l-1.198,0.859c-0.066,0.048-0.114,0.153-0.106,0.236
				C277.381,68.529,277.44,68.559,277.505,68.512z M277.086,66.015l1.151-1.14c0.063-0.062,0.098-0.171,0.079-0.244
				c-0.02-0.073-0.086-0.081-0.15-0.018l-1.15,1.14c-0.063,0.062-0.098,0.172-0.079,0.245
				C276.956,66.069,277.023,66.078,277.086,66.015z M276.274,63.907l1.059-1.378c0.058-0.075,0.08-0.184,0.048-0.243
				c-0.031-0.06-0.104-0.046-0.162,0.029l-1.058,1.377c-0.059,0.076-0.08,0.185-0.048,0.244
				C276.143,63.995,276.216,63.982,276.274,63.907z M275.1,62.268l0.926-1.562c0.051-0.086,0.058-0.19,0.016-0.233
				c-0.042-0.043-0.118-0.009-0.169,0.077l-0.926,1.561c-0.052,0.086-0.058,0.19-0.015,0.233
				C274.974,62.388,275.049,62.354,275.1,62.268z M273.61,61.162l0.758-1.686c0.042-0.092,0.034-0.188-0.017-0.213
				c-0.051-0.026-0.127,0.028-0.168,0.121l-0.759,1.685c-0.042,0.093-0.034,0.189,0.018,0.214
				C273.493,61.308,273.569,61.254,273.61,61.162z M271.861,60.631l0.561-1.745c0.031-0.096,0.009-0.18-0.05-0.186
				c-0.058-0.007-0.131,0.064-0.161,0.16l-0.561,1.744c-0.032,0.097-0.009,0.18,0.05,0.186
				C271.758,60.797,271.83,60.726,271.861,60.631z M266.866,63.429v-3.479c0-0.088-0.054-0.128-0.12-0.09
				c-0.066,0.038-0.119,0.141-0.119,0.228v3.479c0,0.088,0.054,0.128,0.119,0.09C266.813,63.62,266.866,63.518,266.866,63.429z
				 M264.931,64.965c0.065-0.054,0.107-0.162,0.094-0.241l-0.509-3.118c-0.013-0.079-0.076-0.099-0.141-0.044
				c-0.065,0.054-0.107,0.163-0.094,0.242l0.509,3.118c0.012,0.069,0.062,0.093,0.117,0.061
				C264.916,64.977,264.924,64.972,264.931,64.965z M263.189,66.698c0.061-0.069,0.09-0.179,0.065-0.245l-0.999-2.637
				c-0.025-0.066-0.095-0.065-0.156,0.004c-0.061,0.069-0.09,0.179-0.065,0.245l0.999,2.637c0.019,0.05,0.063,0.062,0.11,0.035
				C263.159,66.727,263.174,66.715,263.189,66.698z M261.587,68.789c0.055-0.08,0.069-0.188,0.033-0.24l-1.449-2.055
				c-0.037-0.052-0.111-0.029-0.165,0.052c-0.055,0.08-0.07,0.188-0.033,0.24l1.449,2.055c0.023,0.033,0.061,0.036,0.1,0.014
				C261.543,68.841,261.566,68.819,261.587,68.789z M260.185,71.158c0.047-0.089,0.047-0.19,0-0.225l-1.845-1.394
				c-0.047-0.035-0.122,0.008-0.169,0.098c-0.047,0.089-0.047,0.189,0,0.225l1.845,1.394c0.023,0.017,0.054,0.016,0.085-0.002
				C260.131,71.236,260.162,71.203,260.185,71.158z M259.039,73.715c0.037-0.094,0.022-0.185-0.033-0.202l-2.169-0.68
				c-0.055-0.018-0.129,0.045-0.166,0.139c-0.037,0.094-0.022,0.185,0.033,0.202l2.169,0.68c0.021,0.007,0.044,0.002,0.067-0.011
				C258.978,73.821,259.016,73.774,259.039,73.715z M258.192,76.36c0.026-0.096-0.003-0.173-0.064-0.171l-2.41,0.061
				c-0.062,0.002-0.131,0.081-0.156,0.176c-0.025,0.096,0.004,0.173,0.064,0.171l2.41-0.061c0.015,0,0.031-0.005,0.046-0.014
				C258.128,76.496,258.173,76.432,258.192,76.36z M257.677,78.993c0.013-0.094-0.029-0.153-0.094-0.133l-2.559,0.8
				c-0.065,0.02-0.128,0.113-0.141,0.206c-0.013,0.094,0.029,0.154,0.094,0.133l2.559-0.799c0.008-0.002,0.016-0.006,0.023-0.01
				C257.616,79.157,257.666,79.075,257.677,78.993z M257.395,81.74c0.066-0.038,0.12-0.141,0.12-0.229
				c0-0.088-0.054-0.128-0.12-0.09l-2.609,1.506c-0.066,0.038-0.12,0.14-0.12,0.229c0,0.088,0.054,0.128,0.12,0.09L257.395,81.74z
				 M255.056,86.218l2.558-2.156c0.065-0.054,0.107-0.163,0.094-0.241c-0.012-0.079-0.075-0.099-0.14-0.044l-2.559,2.157
				c-0.065,0.054-0.107,0.162-0.094,0.241c0.011,0.069,0.061,0.093,0.117,0.061C255.04,86.231,255.048,86.225,255.056,86.218z
				 M255.779,88.797l2.41-2.723c0.061-0.069,0.09-0.179,0.065-0.245c-0.025-0.068-0.095-0.065-0.156,0.003l-2.41,2.723
				c-0.061,0.069-0.09,0.178-0.064,0.245c0.019,0.05,0.063,0.062,0.11,0.035C255.749,88.827,255.764,88.814,255.779,88.797z
				 M256.926,90.886l2.169-3.185c0.055-0.08,0.07-0.188,0.033-0.24c-0.037-0.052-0.111-0.028-0.166,0.052l-2.169,3.185
				c-0.055,0.081-0.07,0.188-0.033,0.24c0.023,0.032,0.061,0.035,0.1,0.013C256.883,90.938,256.906,90.915,256.926,90.886z
				 M258.454,92.404l1.844-3.524c0.047-0.089,0.047-0.19,0-0.226c-0.047-0.035-0.122,0.009-0.169,0.098l-1.844,3.524
				c-0.047,0.089-0.047,0.19,0,0.225c0.023,0.018,0.054,0.016,0.085-0.002C258.4,92.481,258.43,92.448,258.454,92.404z
				 M260.303,93.292l1.449-3.729c0.036-0.094,0.021-0.184-0.033-0.202c-0.055-0.017-0.129,0.045-0.166,0.14l-1.449,3.729
				c-0.037,0.094-0.022,0.185,0.033,0.202c0.02,0.007,0.043,0.002,0.066-0.011C260.243,93.398,260.28,93.351,260.303,93.292z
				 M262.404,93.517l0.998-3.79c0.025-0.096-0.004-0.172-0.064-0.171c-0.061,0.002-0.131,0.081-0.156,0.176l-0.998,3.79
				c-0.025,0.096,0.004,0.172,0.065,0.171c0.015,0,0.031-0.005,0.046-0.014C262.34,93.652,262.385,93.589,262.404,93.517z
				 M264.674,93.07l0.508-3.705c0.013-0.094-0.029-0.153-0.094-0.133c-0.065,0.019-0.128,0.113-0.14,0.206l-0.509,3.705
				c-0.013,0.094,0.029,0.153,0.094,0.133c0.008-0.003,0.016-0.006,0.023-0.01C264.612,93.234,264.663,93.152,264.674,93.07z
				 M267.027,91.968l0-3.478c0-0.088-0.054-0.128-0.12-0.09c-0.066,0.038-0.12,0.141-0.12,0.229l0.001,3.478
				c0,0.088,0.053,0.129,0.119,0.091S267.027,92.056,267.027,91.968z M269.278,90.495c0.064-0.054,0.106-0.163,0.094-0.242
				l-0.509-3.117c-0.013-0.079-0.076-0.099-0.141-0.044c-0.065,0.054-0.107,0.162-0.094,0.242l0.509,3.117
				c0.012,0.07,0.062,0.093,0.117,0.06C269.262,90.507,269.271,90.502,269.278,90.495z M271.555,88.238
				c0.061-0.069,0.09-0.178,0.065-0.245l-0.999-2.637c-0.025-0.067-0.095-0.065-0.156,0.004c-0.06,0.068-0.089,0.178-0.064,0.245
				l0.999,2.637c0.019,0.05,0.064,0.061,0.111,0.034C271.525,88.267,271.54,88.255,271.555,88.238z M273.65,85.511
				c0.055-0.08,0.069-0.188,0.033-0.24l-1.45-2.055c-0.037-0.051-0.111-0.029-0.166,0.052c-0.055,0.08-0.069,0.188-0.033,0.24
				l1.45,2.055c0.023,0.033,0.061,0.036,0.1,0.013C273.607,85.563,273.63,85.541,273.65,85.511z M275.483,82.42
				c0.047-0.089,0.047-0.189,0-0.225l-1.845-1.394c-0.047-0.035-0.122,0.008-0.169,0.098c-0.047,0.089-0.047,0.19,0,0.225
				l1.845,1.393c0.023,0.018,0.054,0.016,0.084-0.001C275.429,82.499,275.46,82.465,275.483,82.42z M276.983,79.084
				c0.037-0.094,0.022-0.185-0.033-0.202l-2.169-0.679c-0.055-0.017-0.129,0.046-0.166,0.139c-0.037,0.095-0.022,0.185,0.033,0.202
				l2.169,0.68c0.021,0.006,0.044,0.002,0.066-0.011C276.922,79.19,276.96,79.143,276.983,79.084z M278.093,75.63
				c0.025-0.096-0.004-0.172-0.065-0.171l-2.41,0.061c-0.061,0.002-0.131,0.08-0.156,0.176c-0.025,0.096,0.004,0.173,0.064,0.171
				l2.411-0.061c0.015,0,0.03-0.005,0.046-0.014C278.029,75.765,278.074,75.703,278.093,75.63z M278.77,72.191
				c0.013-0.094-0.029-0.153-0.094-0.133l-2.559,0.8c-0.065,0.02-0.128,0.112-0.141,0.206c-0.013,0.094,0.029,0.153,0.094,0.133
				l2.559-0.8c0.008-0.003,0.016-0.007,0.023-0.011C278.709,72.354,278.759,72.274,278.77,72.191z M276.259,70.636l2.609-1.508
				c0.066-0.038,0.119-0.14,0.119-0.228c0-0.088-0.054-0.129-0.119-0.09l0,0l-2.609,1.508c-0.066,0.038-0.12,0.14-0.12,0.228
				C276.14,70.634,276.194,70.674,276.259,70.636L276.259,70.636z M276.086,68.281l2.558-2.157c0.065-0.054,0.107-0.163,0.094-0.242
				c-0.013-0.079-0.076-0.099-0.141-0.044l-2.559,2.157c-0.065,0.054-0.106,0.162-0.094,0.242c0.011,0.069,0.061,0.093,0.117,0.061
				C276.07,68.294,276.078,68.288,276.086,68.281z M275.557,66.225l2.41-2.724c0.061-0.069,0.09-0.179,0.064-0.245
				c-0.025-0.067-0.095-0.065-0.156,0.004l-2.41,2.724c-0.061,0.069-0.09,0.178-0.065,0.245c0.019,0.05,0.064,0.061,0.11,0.034
				C275.526,66.255,275.542,66.241,275.557,66.225z M274.692,64.545l2.169-3.186c0.055-0.081,0.07-0.188,0.033-0.24
				c-0.037-0.052-0.111-0.029-0.166,0.052l-2.169,3.185c-0.055,0.08-0.069,0.188-0.033,0.24c0.023,0.033,0.061,0.036,0.099,0.013
				C274.648,64.597,274.672,64.575,274.692,64.545z M273.525,63.306l1.844-3.525c0.047-0.089,0.047-0.19,0-0.225
				c-0.047-0.035-0.122,0.008-0.169,0.097l-1.844,3.525c-0.047,0.09-0.047,0.19,0,0.225c0.023,0.018,0.054,0.016,0.084-0.002
				C273.471,63.384,273.502,63.351,273.525,63.306z M272.101,62.557l1.449-3.73c0.037-0.094,0.022-0.184-0.033-0.202
				c-0.055-0.017-0.129,0.046-0.166,0.14l-1.448,3.73c-0.037,0.094-0.022,0.185,0.033,0.201c0.02,0.007,0.043,0.002,0.066-0.011
				C272.04,62.662,272.078,62.616,272.101,62.557z M270.473,62.325l0.998-3.791c0.025-0.096-0.004-0.173-0.065-0.171
				c-0.061,0.001-0.131,0.08-0.156,0.177l-0.997,3.79c-0.025,0.096,0.004,0.172,0.065,0.171c0.015-0.001,0.03-0.006,0.046-0.015
				C270.41,62.46,270.455,62.397,270.473,62.325z M268.707,62.619l0.508-3.706c0.013-0.093-0.029-0.153-0.094-0.133
				c-0.065,0.019-0.128,0.112-0.141,0.206l-0.508,3.706c-0.013,0.093,0.029,0.153,0.094,0.133c0.008-0.002,0.016-0.006,0.024-0.01
				C268.645,62.783,268.695,62.701,268.707,62.619z"/>
			<g>
				<g>
					<polygon style="fill:#27DEBF;" points="265.486,75.031 266.827,76.029 268.168,77.026 274.658,60.967 					"/>
					<polygon style="fill:#E0E0E0;" points="258.997,91.087 268.168,77.026 266.827,76.029 265.486,75.031 258.997,91.087 
						258.996,91.089 258.996,91.088 258.996,91.089 					"/>
				</g>
			</g>
		</g>
	</g>
	<g id="Icon_1_">
		<g id="XMLID_919_">
			<path id="XMLID_942_" style="fill:#27DEBF;" d="M287.632,117.912c0-1.897-1.332-4.204-2.975-5.153l-2.422-1.398
				c-1.643-0.949-4.307-0.949-5.95,0l-35.616,20.619c-1.643,0.949-2.975,3.256-2.975,5.153v41.189c0,1.898,1.333,4.204,2.975,5.153
				l2.423,1.399c1.643,0.949,4.307,0.949,5.95,0l35.616-20.619c1.643-0.948,2.975-3.255,2.975-5.152L287.632,117.912z"/>
			<path id="XMLID_941_" style="opacity:0.2;" d="M237.694,178.322c0,1.897,1.332,4.204,2.975,5.153l2.423,1.398
				c1.485,0.857,3.796,0.932,5.442,0.24c-1.4,0.53-2.466-0.26-2.466-1.957l-0.001-41.189c0-0.949,0.333-1.999,0.871-2.932
				l-8.372-4.834c-0.538,0.932-0.871,1.983-0.871,2.932V178.322z"/>
			<path id="XMLID_926_" style="opacity:0.5;fill:#FFFFFF;" d="M287.534,117.067c-0.347-1.263-1.499-1.666-2.873-0.874
				l-35.622,20.624c-0.818,0.472-1.568,1.277-2.096,2.221l-8.369-4.83c0.541-0.944,1.277-1.749,2.096-2.221l35.608-20.624
				c1.651-0.944,4.316-0.944,5.954,0l2.429,1.402C286.063,113.57,287.243,115.374,287.534,117.067z"/>
		</g>
		<g>
			<g>
				<path style="fill:#FFFFFF;" d="M266.878,167.093c0.748-2.316,3.453-10.676,4.682-13.668c0.789-1.916,1.598-4.18,1.598-6.404
					c0-2.377-0.768-4.18-2.131-5.031l7.387-4.262c0.553,1.588,0.83,3.422,0.83,5.482
					C279.244,152.369,273.712,163.025,266.878,167.093z"/>
				<path style="fill:#27DEBF;" d="M266.878,167.093c0.748-2.316,3.453-10.676,4.682-13.668c0.789-1.916,1.598-4.18,1.598-6.404
					c0-2.377-0.768-4.18-2.131-5.031l7.387-4.262c0.553,1.588,0.83,3.422,0.83,5.482
					C279.244,152.369,273.712,163.025,266.878,167.093z"/>
				<path style="fill:#FFFFFF;" d="M279.244,143.209c0,9.16-5.533,19.816-12.367,23.883c0.748-2.316,3.453-10.676,4.682-13.668
					c0.789-1.916,1.598-4.18,1.598-6.404c0-2.377-0.768-4.18-2.131-5.031l7.387-4.262
					C278.968,139.316,279.244,141.15,279.244,143.209z"/>
			</g>
			<g>
				<path style="fill:#FFFFFF;" d="M266.673,142.236c-2.797,1.639-5.215,5.543-5.943,9.467l-3.442-6.168
					c1.199-2.633,2.674-5.01,4.324-6.998c1.649-1.988,3.463-3.596,5.348-4.682c2.357-1.363,4.652-1.793,6.619-1.25
					c1.619,0.441,2.982,1.557,3.965,3.217C276.212,136.601,269.183,140.761,266.673,142.236z"/>
				<path style="fill:#27DEBF;" d="M257.287,145.535c1.199-2.633,2.674-5.01,4.324-6.998c1.649-1.988,3.463-3.596,5.348-4.682
					c2.357-1.363,4.652-1.793,6.619-1.25c1.619,0.441,2.982,1.557,3.965,3.217c-1.332,0.779-8.361,4.939-10.871,6.414
					c-2.797,1.639-5.215,5.543-5.943,9.467L257.287,145.535z"/>
				<path style="fill:#FFFFFF;" d="M277.544,135.822c-1.332,0.779-8.361,4.939-10.871,6.414c-2.797,1.639-5.215,5.543-5.943,9.467
					l-3.442-6.168c1.199-2.633,2.674-5.01,4.324-6.998c1.649-1.988,3.463-3.596,5.348-4.682c2.357-1.363,4.652-1.793,6.619-1.25
					C275.197,133.045,276.56,134.162,277.544,135.822z"/>
			</g>
			<g>
				<path style="fill:#FFFFFF;" d="M264.746,168.107c-2.459,0.902-4.713,0.717-6.516-0.533c-2.459-1.701-3.822-5.154-3.822-9.734
					c0-3.002,0.615-6.291,1.783-9.57c0.912,1.496,3.832,6.291,4.693,8.32c0.625,1.455,1.537,2.418,2.654,2.787
					c1.045,0.359,2.193,0.174,3.422-0.533c0.44-0.256,0.881-0.584,1.332-0.973L264.746,168.107z"/>
				<path style="fill:#27DEBF;" d="M258.23,167.574c-2.459-1.701-3.822-5.154-3.822-9.734c0-3.002,0.615-6.291,1.783-9.57
					c0.912,1.496,3.832,6.291,4.693,8.32c0.625,1.455,1.537,2.418,2.654,2.787c1.045,0.359,2.193,0.174,3.422-0.533
					c0.44-0.256,0.881-0.584,1.332-0.973l-3.545,10.236C262.287,169.009,260.033,168.824,258.23,167.574z"/>
				<path style="fill:#FFFFFF;" d="M268.292,157.871l-3.545,10.236c-2.459,0.902-4.713,0.717-6.516-0.533
					c-2.459-1.701-3.822-5.154-3.822-9.734c0-3.002,0.615-6.291,1.783-9.57c0.912,1.496,3.832,6.291,4.693,8.32
					c0.625,1.455,1.537,2.418,2.654,2.787c1.045,0.359,2.193,0.174,3.422-0.533C267.4,158.589,267.841,158.261,268.292,157.871z"/>
			</g>
			<g>
				<path style="fill:#FFFFFF;" d="M270.944,148.155c0,3.032-1.843,6.553-4.117,7.866c-2.274,1.313-4.117-0.081-4.117-3.112
					c0-3.031,1.843-6.553,4.117-7.866C269.101,143.731,270.944,145.124,270.944,148.155z"/>
			</g>
		</g>
	</g>
	<g id="Icon">
		<g id="XMLID_943_">
			<path id="XMLID_946_" style="fill:#27DEBF;" d="M287.632,192.402c0-1.897-1.332-4.204-2.975-5.153l-2.422-1.398
				c-1.643-0.949-4.307-0.949-5.95,0l-35.616,20.619c-1.643,0.949-2.975,3.256-2.975,5.153v41.189c0,1.898,1.333,4.204,2.975,5.153
				l2.423,1.399c1.643,0.949,4.307,0.949,5.95,0l35.616-20.619c1.643-0.948,2.975-3.255,2.975-5.152L287.632,192.402z"/>
			<path id="XMLID_945_" style="opacity:0.2;" d="M237.694,252.813c0,1.897,1.332,4.204,2.975,5.153l2.423,1.398
				c1.485,0.857,3.796,0.932,5.442,0.24c-1.4,0.529-2.466-0.26-2.466-1.957l-0.001-41.189c0-0.949,0.333-2,0.871-2.932l-8.372-4.834
				c-0.538,0.932-0.871,1.983-0.871,2.932V252.813z"/>
			<path id="XMLID_944_" style="opacity:0.5;fill:#FFFFFF;" d="M287.534,191.557c-0.347-1.263-1.499-1.666-2.873-0.874
				l-35.622,20.624c-0.818,0.472-1.568,1.277-2.096,2.221l-8.369-4.83c0.541-0.944,1.277-1.749,2.096-2.221l35.608-20.624
				c1.651-0.944,4.316-0.944,5.954,0l2.429,1.402C286.063,188.06,287.243,189.864,287.534,191.557z"/>
		</g>
		<path style="fill:#FFFFFF;" d="M254.418,230.816c0.443-9.152,5.674-19.195,12.324-23.034c7.646-4.414,12.495-0.024,12.495,9.93
			v4.166l-17.177,9.917c0,2.591,1.401,5.168,5.328,3.958c3.928-1.21,7.936-6.38,9.284-8.11v7.563c0,0-3.178,4.404-8.293,7.357
			c-5.115,2.953-11.076,1.498-11.076-7.333c0-8.832,4.696-14.714,6.456-16.63c0,0-1.699,2.922-1.699,6.499l9.514-5.493
			c0-3.616-0.581-4.602-1.332-5.173c-0.751-0.572-3.262-1.41-8.412,4.188C256.679,224.219,255.132,228.555,254.418,230.816z"/>
	</g>
</g>
<g id="Character">
	<g id="Character_3_">
		<g id="XMLID_999_">
			<g id="XMLID_1013_">
				<g id="XMLID_1025_">
					<path id="XMLID_1028_" style="fill:#263238;" d="M352.319,380.129c-0.055,2.235-2.146,7.836-2.146,7.836
						s-1.445,1.736-5.036,2.177l0.718-8.385L352.319,380.129z"/>
					<polygon id="XMLID_1027_" points="345.136,390.142 338.644,385.868 338.644,379.076 345.551,385.303 					"/>
					<path id="XMLID_1026_" style="fill:#455A64;" d="M342.212,369.25l0.316-1.388c-1.095,0.208-4.768,7.733-9.1,12.299
						c-3.956,4.169-9.907,5.476-12.175,7.141c-3.036,2.228,0.371,7.086,7.844,7.493c3.709,0.201,9.626-0.601,11.707-2.576
						c2.081-1.975,3.747-6.188,5.396-7.608c1.649-1.419,4.989-2.664,6.119-4.483c0.621-1,0.716-3.476,0.647-5.603
						c-0.064-1.952-0.128-4.095-0.796-4.066c-0.053,0.224-0.299,1.16-0.299,1.16c-0.331,0.919-1.672,1.743-5.486,0.887
						C344.668,372.121,341.691,371.121,342.212,369.25z"/>
				</g>
				<g id="XMLID_1018_">
					<path id="XMLID_1023_" style="fill:#263238;" d="M422.047,344.732c1,1.759,1.783,13.335,1.783,13.335s-3.177,3.668-4.883,4.691
						l-3.82-11.28L422.047,344.732z"/>
					<polygon id="XMLID_1020_" points="418.947,362.759 409.933,359.579 407.306,352.055 416.642,355.839 					"/>
					<path id="XMLID_1019_" style="fill:#455A64;" d="M415.491,337.674c0.649-0.591,1.479,0.654,3.141,2.52
						c1.165,1.309,2.651,2.951,3.325,4.308c0.948,1.91-1.834,6.12-3.639,8.416c-1.909,2.428-2.281,4.498-2.668,8.011
						c-0.468,4.251,0,6.933-5.656,10.118c-4.527,2.549-13.084,2.133-14.755,0.168c-2.85-3.352,5.081-6.61,6.991-12.595
						c2.638-8.265,3.009-9.645,3.424-15.576L415.491,337.674z"/>
				</g>
				<path id="XMLID_1017_" style="fill:#FFA8A7;" d="M346.094,223.579c3.82,2.665,6.03,6.004,23.794,4.262l2.09,51.206
					c0,0,14.18,9.883,18.181,16.327c4.002,6.446,22.741,38.504,22.741,38.504l0,0l2.69,3.944c1.671,2.449,0.823,4.406-1.63,6.072
					c-2.346,1.522-5.284,2.45-7.173,0.389l-2.309-2.52c-0.001-0.001-45.82-44.455-47.387-47.134
					c-1.566-2.68-5.055-9.298-8.137-22.759C345.002,254.599,345.392,242.458,346.094,223.579z"/>
				<path style="fill:#F28F8F;" d="M346.14,254.106c0.476,5.619,1.344,11.335,2.816,17.763c3.082,13.461,6.571,20.079,8.137,22.759
					c0.25,0.427,1.625,1.916,3.755,4.113l0,0c3.247,3.35,8.255,8.35,13.739,13.771c-0.269-6.87-1.361-14.6-1.361-14.6
					c2.578-3.365,6.075-9.007,7.828-11.897c-0.01-0.008-0.019-0.016-0.029-0.024c-0.267-0.223-0.533-0.443-0.798-0.661
					c-0.06-0.049-0.12-0.098-0.18-0.147c-0.214-0.175-0.426-0.348-0.638-0.518c-0.076-0.061-0.151-0.122-0.227-0.182
					c-0.198-0.159-0.394-0.316-0.589-0.471c-0.076-0.06-0.15-0.119-0.225-0.178c-0.19-0.15-0.378-0.298-0.563-0.444
					c-0.075-0.059-0.15-0.117-0.224-0.175c-0.189-0.148-0.375-0.292-0.559-0.434c-0.063-0.049-0.127-0.098-0.189-0.146
					c-0.205-0.158-0.405-0.311-0.602-0.461c-0.035-0.027-0.072-0.055-0.107-0.082c-0.23-0.175-0.453-0.344-0.669-0.507
					c-0.004-0.003-0.009-0.007-0.013-0.01c-0.453-0.341-0.874-0.654-1.256-0.936c-0.017-0.012-0.031-0.023-0.048-0.035
					c-0.167-0.123-0.327-0.24-0.478-0.351c-0.037-0.027-0.071-0.052-0.107-0.078c-0.122-0.089-0.239-0.174-0.348-0.253
					c-0.045-0.033-0.087-0.063-0.13-0.094c-0.1-0.072-0.196-0.141-0.284-0.204c-0.03-0.021-0.059-0.042-0.087-0.062
					c-0.089-0.064-0.171-0.123-0.245-0.175c-0.023-0.016-0.048-0.034-0.069-0.049c-0.07-0.05-0.133-0.094-0.186-0.132
					c-0.01-0.007-0.024-0.017-0.034-0.024c-0.057-0.04-0.102-0.072-0.134-0.094c-0.002-0.002-0.007-0.005-0.009-0.006
					c-0.031-0.022-0.049-0.034-0.049-0.034l-1.445-35.391L346.14,254.106z"/>
				<path style="fill:#37474F;" d="M346.094,223.579c0,0-1.694,9.974-1.693,24.496c0,5.108,0.505,14.76,0.505,14.76
					s10.799,6.14,24.237,1.91l-0.464-32.778C368.68,231.967,356.501,229.873,346.094,223.579z"/>
				<path id="XMLID_1016_" style="fill:#FFA8A7;" d="M341.737,370.31l0.151-1.035c1.874-9.285,6.452-60.985,8.096-74.895
					c1.779-15.051,8.699-51.236,8.699-51.236s-7.577-12.643-12.589-19.565c4.706,6.814,32.383,6.788,35.414-4.95
					c1.699,4.95,9.087,10.714,8.026,26.24c-1.354,19.797-19.251,53.03-19.251,53.03c0.228,2.688,1.365,13.986-1.199,24.001
					c-4.045,15.801-15.217,43.29-16.502,47.107l-0.882,3.242C349.652,374.161,342.69,373.04,341.737,370.31z"/>
				<path style="fill:#455A64;" d="M346.094,223.579c0,0,6.849,4.183,17.313,2.861c10.463-1.322,18.101-7.811,18.101-7.811
					s1.725,2.142,5.052,8.571c1.593,3.078,3.983,10.853,3.61,16.6c-0.855,13.2-6.646,26.737-6.646,26.737s-4.361-2.032-5.713-7.169
					c0,0-6.065,5.397-13.919,5.646c-7.854,0.249-11.002-2.22-11.002-2.22l3.182-21.927
					C356.074,244.869,348.87,237.009,346.094,223.579z"/>
			</g>
		</g>
		<g id="XMLID_1029_">
			<g>
				<path style="fill:#27DEBF;" d="M361.571,126.016c-3.449,0-6.717,0.295-9.72,1.893c-3.033-1.098-8.39-1.311-12.496,4.467
					c-3.087,4.343-2.29,12.112,0.965,16.18c-0.178,0.641-0.407,1.269-0.751,1.868c-0.788,1.375-1.918,2.558-3.278,3.376
					c-2.394,1.44-5.445,1.821-7.403,3.814c-2.081,2.12-2.192,5.864-0.24,8.103c-2.409,0.388-4.406,2.571-4.579,5.004
					c-0.173,2.433,1.855,5.23,3.825,5.602c-3.075,2.984-2.311,8.888,0.539,12.305c2.85,3.417,6.86,4.249,11.357,2.824
					c0.356,1.432-0.771-1.286,0.545-0.619c1.316,0.667,2.807,0.905,4.279,1.016c7.188,0.542,14.536-1.914,20.006-6.596
					c2.543-2.176,5.4-3.931,7.79-6.323c2.433-2.435,4.491-5.242,6.102-8.282c2.539-4.792,3.972-10.186,3.972-15.619v-8.101
					C382.484,135.379,373.121,126.016,361.571,126.016z"/>
				<path style="opacity:0.5;" d="M361.571,126.016c-3.449,0-6.717,0.295-9.72,1.893c-3.033-1.098-8.39-1.311-12.496,4.467
					c-3.087,4.343-2.29,12.112,0.965,16.18c-0.178,0.641-0.407,1.269-0.751,1.868c-0.788,1.375-1.918,2.558-3.278,3.376
					c-2.394,1.44-5.445,1.821-7.403,3.814c-2.081,2.12-2.192,5.864-0.24,8.103c-2.409,0.388-4.406,2.571-4.579,5.004
					c-0.173,2.433,1.855,5.23,3.825,5.602c-3.075,2.984-2.311,8.888,0.539,12.305c2.85,3.417,6.86,4.249,11.357,2.824
					c0.356,1.432-0.771-1.286,0.545-0.619c1.316,0.667,2.807,0.905,4.279,1.016c7.188,0.542,14.536-1.914,20.006-6.596
					c2.543-2.176,5.4-3.931,7.79-6.323c2.433-2.435,4.491-5.242,6.102-8.282c2.539-4.792,3.972-10.186,3.972-15.619v-8.101
					C382.484,135.379,373.121,126.016,361.571,126.016z"/>
			</g>
			<path style="fill:#FFA8A7;" d="M341.585,182.471c-2.759,6.606-6.604,17.5-8.904,24.141L321.6,193.57h-9.307
				c0,0,11.162,23.931,17.882,29.432c4.474,3.663,7.275,0.956,8.383-1.311l0.004-0.007c0.043-0.076,1.902-3.353,4.354-8.303
				c3.18-6.421,6.572-13.46,6.572-13.46l7.313-27.459C350.957,171.995,345.089,174.079,341.585,182.471z"/>
			<path style="fill:#F28F8F;" d="M332.68,206.612c0,0,2.684,3.204,3.406,4.648c0,0-1.331-4.454-2.951-5.957L332.68,206.612z"/>
			<g>
				<path id="XMLID_1227_" style="fill:#27DEBF;" d="M371.117,172.462l7.586,0.269c0,0,2.291,0.568,3.238,1.058
					c3.381,1.751,3.77,5.063,3.938,9.01c0.183,4.325-0.195,7.981-4.174,14.859l-3.646,8.504c0,0,0.079,2.761,0.196,4.754
					c0.025,0.425,3.225,7.393,3.253,7.714c0.471,6.428-23.875,16.024-35.864,6.17c-0.012-0.252,0.509-9.729,0.497-9.98
					c-0.242-5.185-0.479-10.104-0.479-10.104c-6.522-6.393-5.159-13.281-2.87-17.869c4.577-9.173,10.384-14.56,14.423-14.359
					L371.117,172.462z"/>
				<path style="opacity:0.1;" d="M374.362,210.506c0.404,4.158,3.37,10.161-0.268,15.238c4.528-2.08,7.583-4.801,7.414-7.115
					c-0.028-0.321-3.228-7.289-3.253-7.714c-0.117-1.992-0.196-4.754-0.196-4.754l3.646-8.504
					c3.892-6.727,4.337-10.373,4.183-14.576l-5.847,6.422C375.699,197.916,373.768,204.389,374.362,210.506z"/>
			</g>
			<path style="fill:#FFA8A7;" d="M404.46,210.32c-9.415-24.092-13.241-34.068-20.101-36.91c-2.641-1.094-7.099-0.731-7.099-0.731
				c-1.685,3.094-3.271,13.366,3.793,20.235c0,0,9.156,13.765,12.126,20.622c-0.735,6.634-1.334,15.512-3.463,20.112
				c-0.425,0.918-1.221,1.631-2.219,1.991c-2.65,0.954-3.297,2.402-5.375,3.848c-1.624,1.129-2.905,1.243-2.768,1.727
				c0.176,0.622,1.1,1.752,2.942,1.589c0.927-0.082,1.627-0.355,3.174-0.932c0,0-1.359,2.278-4.26,4.682
				c-3.932,3.258-4.376,5.635,2.595,7.025c4.368,0.871,8.16-0.956,12.533-9.237c1.26-2.386,3.213-6.162,4.289-9.418
				c2.008-6.079,3.766-13.814,4.138-18.928C404.967,213.199,405.068,211.875,404.46,210.32z"/>
			<path id="XMLID_1162_" style="fill:#FFA8A7;" d="M378.565,148.053c-2.128-2.095-5.528-1.476-7.018,1.5c0,0-2.918-0.1-9.887-2.517
				c-5.719-1.984-12.338-6.378-13.43-11.686c-2.107,3.301-3.495,10.78-2.913,19.41c0.719,10.675,4.445,12.377,6.229,13.031
				c1.784,0.655,5.176,0.704,8.402-0.037l0.413,5.36c0,0-17.808,14.39-3.338,14.061c11.619-0.264,16.609-14.254,16.609-14.254
				l0-14.566c0,0,3.093,1.271,5.209-1.243C381.133,154.387,380.568,150.026,378.565,148.053z"/>
			<g>
				<g id="XMLID_1137_">
					<path id="XMLID_1141_" style="fill:#263238;" d="M349.902,144.931l-3.427,1.638c-0.492-0.937-0.123-2.063,0.823-2.515
						C348.245,143.602,349.41,143.994,349.902,144.931z"/>
				</g>
				<path id="XMLID_1136_" style="fill:#263238;" d="M358.347,150.622c-0.067,0.894,0.576,1.67,1.437,1.733
					c0.861,0.063,1.614-0.612,1.682-1.506c0.068-0.894-0.575-1.67-1.437-1.733C359.167,149.053,358.414,149.727,358.347,150.622z"/>
				<path id="XMLID_1134_" style="fill:#263238;" d="M347.129,150.244c-0.063,0.835,0.538,1.56,1.342,1.618
					c0.804,0.059,1.507-0.571,1.57-1.407c0.063-0.835-0.538-1.56-1.342-1.619C347.895,148.779,347.192,149.409,347.129,150.244z"/>
				<polygon id="XMLID_1105_" style="fill:#F28F8F;" points="354.358,148.834 354.486,157.688 349.217,156.712 				"/>
				<path id="XMLID_1093_" style="fill:#F28F8F;" d="M359.133,159.764l-3.806,1.109c0.286,1.089,1.37,1.723,2.421,1.417
					C358.799,161.983,359.419,160.852,359.133,159.764z"/>
				<g id="XMLID_1030_">
					<path id="XMLID_1092_" style="fill:#F28F8F;" d="M359.948,167.755c3.102-0.599,9.427-2.84,10.275-5.444
						c0,0-0.237,1.619-2.059,3.383c-1.823,1.763-8.064,4.037-8.064,4.037L359.948,167.755z"/>
				</g>
			</g>
			<g id="XMLID_991_">
				<g id="XMLID_1007_">
					<path id="XMLID_1010_" style="fill:#455A64;" d="M309.491,176.23l-0.019,0.004l0.884-0.926l0.002,0.012
						c0.201-0.196,0.533-0.284,0.981-0.208l10.729,1.822c0.994,0.169,2.142,1.048,2.563,1.965l9.641,20.964
						c0.223,0.486,0.192,0.88-0.03,1.122l0.009,0.002l-0.911,0.954l-0.001-0.013c-0.199,0.202-0.536,0.293-0.99,0.216l-10.729-1.821
						c-0.994-0.169-2.142-1.049-2.563-1.965c-1.894-4.121-7.748-16.845-9.641-20.965C309.178,176.878,309.23,176.467,309.491,176.23
						z"/>
					<path id="XMLID_1009_" style="fill:#263238;" d="M333.385,200.792l-9.641-20.964c-0.421-0.917-1.569-1.796-2.563-1.965
						l-10.729-1.822c-0.994-0.169-1.459,0.437-1.038,1.354c1.893,4.12,7.747,16.844,9.641,20.965
						c0.421,0.916,1.569,1.797,2.563,1.965l10.729,1.821C333.342,202.314,333.806,201.709,333.385,200.792z"/>
					<path id="XMLID_1008_" style="fill:#37474F;" d="M322.378,178.354c0.586,0.377,1.112,0.923,1.368,1.476l9.642,20.957
						c0.21,0.471,0.2,0.857,0.001,1.099l0.857-0.893l-0.011-0.008c0.227-0.244,0.257-0.632,0.035-1.122l-9.643-20.967
						c-0.233-0.517-0.716-1.019-1.265-1.399L322.378,178.354z"/>
				</g>
			</g>
			<path id="XMLID_1003_" style="fill:#FFA8A7;" d="M314.568,196.967c-4.437-5.097-4.315-11.474-2.275-13.313l1.354,2.945
				c0,0,6.79,1.509,10.056,1.26c3.266-0.25,5.936-1.025,6.83-0.395c1.895,1.335,2.439,7.027-2.99,9.093
				C322.927,198.315,314.568,196.967,314.568,196.967z"/>
		</g>
	</g>
</g>
</svg>
