<svg width="16" height="16" viewBox="0 0 16 16" fill="none" xmlns="http://www.w3.org/2000/svg">
<g id="icon">
<path id="Vector 117 (Stroke)" fill-rule="evenodd" clip-rule="evenodd" d="M14.5165 5.58577C14.7168 5.78604 14.7168 6.11074 14.5165 6.31101L10.414 10.4136C10.2137 10.6138 9.88901 10.6138 9.68874 10.4136C9.48847 10.2133 9.48847 9.88861 9.68874 9.68834L12.9159 6.46121L5.9488 6.46121C3.96624 6.46121 2.35905 8.0684 2.35905 10.051L2.35905 14.1535C2.35905 14.4367 2.12946 14.6663 1.84623 14.6663C1.56301 14.6663 1.33341 14.4367 1.33341 14.1535L1.33341 10.051C1.33341 7.50195 3.39979 5.43557 5.9488 5.43557L12.9159 5.43557L9.68874 2.20845C9.48848 2.00818 9.48848 1.68348 9.68874 1.48321C9.88901 1.28294 10.2137 1.28294 10.414 1.48321L14.5165 5.58577Z" fill="white"/>
</g>
</svg>
